<svg width="1920" height="257" viewBox="0 0 1920 257" fill="none" xmlns="http://www.w3.org/2000/svg">
<path fill-rule="evenodd" clip-rule="evenodd" d="M358.752 201.388C360.861 201.388 362.57 193.217 362.57 183.114C362.57 173.011 360.861 147.421 358.752 147.421C356.643 147.421 354.933 173.031 354.933 183.114C354.933 193.197 356.643 201.388 358.752 201.388Z" fill="#1D4F21"/>
<path fill-rule="evenodd" clip-rule="evenodd" d="M358.752 201.388C360.539 202.628 365.978 196.741 370.923 188.237C375.868 179.733 387.008 157.126 385.221 155.886C383.434 154.646 369.439 175.243 364.495 183.747C359.55 192.251 356.97 200.148 358.752 201.388Z" fill="#1D4F21"/>
<path fill-rule="evenodd" clip-rule="evenodd" d="M358.752 201.388C360.771 202.041 364.507 194.718 367.092 185.039C369.678 175.361 374.587 150.267 372.579 149.614C370.571 148.961 362.362 173.024 359.776 182.703C357.191 192.382 356.726 200.742 358.752 201.388Z" fill="#3CA144"/>
<path fill-rule="evenodd" clip-rule="evenodd" d="M358.752 201.388C359.943 203.307 367.092 200.324 374.724 194.718C382.355 189.112 400.859 173.325 399.686 171.406C398.512 169.487 378.131 182.161 370.494 187.768C362.856 193.374 357.578 199.469 358.752 201.388Z" fill="#318337"/>
<path fill-rule="evenodd" clip-rule="evenodd" d="M358.752 201.388C360.789 200.794 360.539 192.414 358.156 182.67C355.773 172.926 348.153 148.655 346.128 149.242C344.102 149.83 348.427 175.074 350.786 184.818C353.146 194.562 356.714 201.982 358.752 201.388Z" fill="#3CA144"/>
<path fill-rule="evenodd" clip-rule="evenodd" d="M358.752 201.388C360.539 200.181 358.102 192.251 353.294 183.643C348.487 175.034 334.826 154.189 333.039 155.396C331.252 156.604 341.975 179.42 346.813 188.029C351.65 196.637 356.952 202.595 358.752 201.388Z" fill="#318337"/>
<path fill-rule="evenodd" clip-rule="evenodd" d="M358.752 201.388C359.895 199.43 354.581 193.432 346.837 187.95C339.092 182.468 318.568 170.1 317.418 172.039C316.268 173.977 334.957 189.477 342.678 194.966C350.399 200.455 357.602 203.326 358.752 201.388Z" fill="#1D4F21"/>
<path fill-rule="evenodd" clip-rule="evenodd" d="M358.752 201.388C359.413 199.195 352.872 194.862 344.138 191.67C335.404 188.479 312.676 182.2 312.015 184.387C311.354 186.573 332.997 196.428 341.731 199.606C350.465 202.785 358.084 203.581 358.752 201.388Z" fill="#1D4F21"/>
<path fill-rule="evenodd" clip-rule="evenodd" d="M358.752 201.388C359.347 203.614 366.967 203.183 375.826 200.435C384.685 197.688 406.704 188.896 406.126 186.677C405.548 184.459 382.594 189.634 373.741 192.388C364.888 195.142 358.174 199.169 358.752 201.388Z" fill="#1D4F21"/>
<path fill-rule="evenodd" clip-rule="evenodd" d="M358.74 201.518C359.472 203.333 365.889 201.962 373.127 198.464C380.365 194.966 398.071 184.609 397.338 182.801C396.606 180.993 377.679 188.413 370.476 191.938C363.273 195.462 358.007 199.711 358.74 201.518Z" fill="#318337"/>
<path fill-rule="evenodd" clip-rule="evenodd" d="M358.74 201.519C360.05 202.883 365.507 198.908 370.929 192.61C376.35 186.312 389.046 169.259 387.729 167.901C386.412 166.544 371.59 181.398 366.169 187.683C360.747 193.968 357.423 200.161 358.74 201.519Z" fill="#3CA144"/>
<path fill-rule="evenodd" clip-rule="evenodd" d="M358.74 201.518C360.372 202.367 364.429 196.715 367.801 188.903C371.173 181.091 378.405 160.552 376.773 159.704C375.141 158.855 365.251 178.023 361.879 185.809C358.507 193.595 357.089 200.677 358.74 201.518Z" fill="#318337"/>
<path fill-rule="evenodd" clip-rule="evenodd" d="M358.74 201.519C360.527 201.793 362.862 195.077 363.947 186.508C365.031 177.939 366.33 155.977 364.542 155.71C362.755 155.442 358.549 176.966 357.465 185.509C356.38 194.052 356.946 201.251 358.74 201.519Z" fill="#318337"/>
<path fill-rule="evenodd" clip-rule="evenodd" d="M358.74 201.519C359.556 199.756 354.504 195.168 347.456 191.272C340.408 187.376 321.839 178.924 321.046 180.693C320.254 182.461 337.465 193.746 344.513 197.661C351.561 201.577 357.923 203.287 358.74 201.519Z" fill="#318337"/>
<path fill-rule="evenodd" clip-rule="evenodd" d="M358.74 201.518C359.997 200.096 356.416 194.072 350.745 188.067C345.073 182.063 329.643 167.953 328.386 169.376C327.129 170.799 340.522 187.212 346.193 193.223C351.865 199.234 357.483 202.948 358.74 201.518Z" fill="#3CA144"/>
<path fill-rule="evenodd" clip-rule="evenodd" d="M358.74 201.518C360.384 200.703 359.067 193.687 355.797 185.796C352.526 177.906 342.881 158.614 341.236 159.436C339.592 160.258 346.598 180.901 349.839 188.766C353.08 196.63 357.089 202.341 358.74 201.518Z" fill="#318337"/>
<path fill-rule="evenodd" clip-rule="evenodd" d="M358.71 201.629C359.508 202.935 364.286 200.853 369.386 197.061C374.485 193.269 386.794 182.507 385.995 181.228C385.197 179.949 371.596 188.609 366.496 192.427C361.397 196.245 357.912 200.35 358.71 201.629Z" fill="#1D4F21"/>
<path fill-rule="evenodd" clip-rule="evenodd" d="M358.71 201.629C360.068 202.054 362.541 197.12 364.238 190.613C365.936 184.106 369.124 167.229 367.765 166.805C366.407 166.38 361.004 182.566 359.312 189.073C357.62 195.579 357.346 201.205 358.71 201.629Z" fill="#1D4F21"/>
<path fill-rule="evenodd" clip-rule="evenodd" d="M358.71 201.629C359.854 200.722 357.852 195.54 354.236 190.052C350.62 184.563 340.498 171.373 339.342 172.28C338.186 173.187 346.455 187.859 350.066 193.341C353.676 198.823 357.56 202.537 358.71 201.629Z" fill="#1D4F21"/>
<path fill-rule="evenodd" clip-rule="evenodd" d="M1553.75 201.388C1555.86 201.388 1557.57 193.217 1557.57 183.114C1557.57 173.011 1555.86 147.421 1553.75 147.421C1551.64 147.421 1549.93 173.031 1549.93 183.114C1549.93 193.197 1551.64 201.388 1553.75 201.388Z" fill="#1D4F21"/>
<path fill-rule="evenodd" clip-rule="evenodd" d="M1553.75 201.388C1555.54 202.628 1560.98 196.741 1565.92 188.237C1570.87 179.733 1582.01 157.126 1580.22 155.886C1578.43 154.646 1564.44 175.243 1559.49 183.747C1554.55 192.251 1551.97 200.148 1553.75 201.388Z" fill="#1D4F21"/>
<path fill-rule="evenodd" clip-rule="evenodd" d="M1553.75 201.388C1555.77 202.041 1559.51 194.718 1562.09 185.039C1564.68 175.361 1569.59 150.267 1567.58 149.614C1565.57 148.961 1557.36 173.024 1554.78 182.703C1552.19 192.382 1551.73 200.742 1553.75 201.388Z" fill="#3CA144"/>
<path fill-rule="evenodd" clip-rule="evenodd" d="M1553.75 201.388C1554.94 203.307 1562.09 200.324 1569.72 194.718C1577.36 189.112 1595.86 173.325 1594.69 171.406C1593.51 169.487 1573.13 182.161 1565.49 187.768C1557.86 193.374 1552.58 199.469 1553.75 201.388Z" fill="#318337"/>
<path fill-rule="evenodd" clip-rule="evenodd" d="M1553.75 201.388C1555.79 200.794 1555.54 192.414 1553.16 182.67C1550.77 172.926 1543.15 148.655 1541.13 149.242C1539.1 149.83 1543.43 175.074 1545.79 184.818C1548.15 194.562 1551.71 201.982 1553.75 201.388Z" fill="#3CA144"/>
<path fill-rule="evenodd" clip-rule="evenodd" d="M1553.75 201.388C1555.54 200.181 1553.1 192.251 1548.29 183.643C1543.49 175.034 1529.83 154.189 1528.04 155.396C1526.25 156.604 1536.98 179.42 1541.81 188.029C1546.65 196.637 1551.95 202.595 1553.75 201.388Z" fill="#318337"/>
<path fill-rule="evenodd" clip-rule="evenodd" d="M1553.75 201.388C1554.9 199.43 1549.58 193.432 1541.84 187.95C1534.09 182.468 1513.57 170.1 1512.42 172.039C1511.27 173.977 1529.96 189.477 1537.68 194.966C1545.4 200.455 1552.6 203.326 1553.75 201.388Z" fill="#1D4F21"/>
<path fill-rule="evenodd" clip-rule="evenodd" d="M1553.75 201.388C1554.41 199.195 1547.87 194.862 1539.14 191.67C1530.4 188.479 1507.68 182.2 1507.01 184.387C1506.35 186.573 1528 196.428 1536.73 199.606C1545.46 202.785 1553.08 203.581 1553.75 201.388Z" fill="#1D4F21"/>
<path fill-rule="evenodd" clip-rule="evenodd" d="M1553.75 201.388C1554.35 203.614 1561.97 203.183 1570.83 200.435C1579.68 197.688 1601.7 188.896 1601.13 186.677C1600.55 184.459 1577.59 189.634 1568.74 192.388C1559.89 195.142 1553.17 199.169 1553.75 201.388Z" fill="#1D4F21"/>
<path fill-rule="evenodd" clip-rule="evenodd" d="M1553.74 201.518C1554.47 203.333 1560.89 201.962 1568.13 198.464C1575.37 194.966 1593.07 184.609 1592.34 182.801C1591.61 180.993 1572.68 188.413 1565.48 191.938C1558.27 195.462 1553.01 199.711 1553.74 201.518Z" fill="#318337"/>
<path fill-rule="evenodd" clip-rule="evenodd" d="M1553.74 201.519C1555.05 202.883 1560.51 198.908 1565.93 192.61C1571.35 186.312 1584.05 169.259 1582.73 167.901C1581.41 166.544 1566.59 181.398 1561.17 187.683C1555.75 193.968 1552.42 200.161 1553.74 201.519Z" fill="#3CA144"/>
<path fill-rule="evenodd" clip-rule="evenodd" d="M1553.74 201.518C1555.37 202.367 1559.43 196.715 1562.8 188.903C1566.17 181.091 1573.41 160.552 1571.77 159.704C1570.14 158.855 1560.25 178.023 1556.88 185.809C1553.51 193.595 1552.09 200.677 1553.74 201.518Z" fill="#318337"/>
<path fill-rule="evenodd" clip-rule="evenodd" d="M1553.74 201.519C1555.53 201.793 1557.86 195.077 1558.95 186.508C1560.03 177.939 1561.33 155.977 1559.54 155.71C1557.76 155.442 1553.55 176.966 1552.46 185.509C1551.38 194.052 1551.95 201.251 1553.74 201.519Z" fill="#318337"/>
<path fill-rule="evenodd" clip-rule="evenodd" d="M1553.74 201.519C1554.56 199.756 1549.5 195.168 1542.46 191.272C1535.41 187.376 1516.84 178.924 1516.05 180.693C1515.25 182.461 1532.47 193.746 1539.51 197.661C1546.56 201.577 1552.92 203.287 1553.74 201.519Z" fill="#318337"/>
<path fill-rule="evenodd" clip-rule="evenodd" d="M1553.74 201.518C1555 200.096 1551.42 194.072 1545.74 188.067C1540.07 182.063 1524.64 167.953 1523.39 169.376C1522.13 170.799 1535.52 187.212 1541.19 193.223C1546.86 199.234 1552.48 202.948 1553.74 201.518Z" fill="#3CA144"/>
<path fill-rule="evenodd" clip-rule="evenodd" d="M1553.74 201.518C1555.38 200.703 1554.07 193.687 1550.8 185.796C1547.53 177.906 1537.88 158.614 1536.24 159.436C1534.59 160.258 1541.6 180.901 1544.84 188.766C1548.08 196.63 1552.09 202.341 1553.74 201.518Z" fill="#318337"/>
<path fill-rule="evenodd" clip-rule="evenodd" d="M1553.71 201.629C1554.51 202.935 1559.29 200.853 1564.39 197.061C1569.49 193.269 1581.79 182.507 1581 181.228C1580.2 179.949 1566.6 188.609 1561.5 192.427C1556.4 196.245 1552.91 200.35 1553.71 201.629Z" fill="#1D4F21"/>
<path fill-rule="evenodd" clip-rule="evenodd" d="M1553.71 201.629C1555.07 202.054 1557.54 197.12 1559.24 190.613C1560.94 184.106 1564.12 167.229 1562.77 166.805C1561.41 166.38 1556 182.566 1554.31 189.073C1552.62 195.579 1552.35 201.205 1553.71 201.629Z" fill="#1D4F21"/>
<path fill-rule="evenodd" clip-rule="evenodd" d="M1553.71 201.629C1554.85 200.722 1552.85 195.54 1549.24 190.052C1545.62 184.563 1535.5 171.373 1534.34 172.28C1533.19 173.187 1541.46 187.859 1545.07 193.341C1548.68 198.823 1552.56 202.537 1553.71 201.629Z" fill="#1D4F21"/>
<path d="M108.839 118.902C113.875 139.574 113.875 171.371 116.393 184.088" stroke="#634E3E" stroke-width="9.6" stroke-linecap="round" stroke-linejoin="round"/>
<path d="M172.153 119.2C167.116 139.872 167.116 171.68 164.598 184.386" stroke="#4A3A2C" stroke-width="9.6" stroke-linecap="round" stroke-linejoin="round"/>
<path d="M60.0979 184.806C61.1004 163.615 55.0384 132.337 55.085 119.399" stroke="#4A3A2C" stroke-width="9.6" stroke-linecap="round" stroke-linejoin="round"/>
<path fill-rule="evenodd" clip-rule="evenodd" d="M61.1937 150.257C77.876 150.257 91.399 134.061 91.399 114.085C91.399 94.1097 77.876 43.3757 61.1937 43.3757C44.5114 43.3757 31 94.1318 31 114.085C31 134.038 44.5114 150.257 61.1937 150.257Z" fill="#27692C"/>
<path fill-rule="evenodd" clip-rule="evenodd" d="M89.1491 127.807C90.6502 123.384 91.4094 118.765 91.3991 114.118C91.3991 95.6456 79.8345 50.8777 64.9242 44.2156C52.87 53.4299 43.8469 89.337 43.8469 104.705C43.8469 122.383 55.8311 136.745 70.6598 136.745C77.8061 136.756 84.3461 133.354 89.1491 127.807Z" fill="#318337"/>
<path fill-rule="evenodd" clip-rule="evenodd" d="M167.116 150.257C186.515 150.257 202.241 131.475 202.241 108.274C202.241 85.0722 186.515 26.0188 167.116 26.0188C147.718 26.0188 132.003 84.9948 132.003 108.274C132.003 131.553 147.73 150.257 167.116 150.257Z" fill="#318337"/>
<path fill-rule="evenodd" clip-rule="evenodd" d="M199.63 124.15C201.368 119.019 202.249 113.662 202.241 108.274C202.241 86.7956 188.8 34.7469 171.453 26.991C157.464 37.7079 146.972 79.4595 146.972 97.3247C146.972 117.908 160.961 134.602 178.086 134.602C186.387 134.558 194.034 130.591 199.63 124.15Z" fill="#769738"/>
<path fill-rule="evenodd" clip-rule="evenodd" d="M112.64 150.257C136.072 150.257 155.074 127.498 155.074 99.4351C155.074 71.3723 136.072 0 112.64 0C89.2074 0 70.2052 71.317 70.2052 99.4351C70.2052 127.553 89.1957 150.257 112.64 150.257Z" fill="#769738"/>
<path fill-rule="evenodd" clip-rule="evenodd" d="M151.926 118.704C154.029 112.483 155.091 105.989 155.074 99.4573C155.074 73.5048 138.835 10.6065 117.874 1.23755C100.947 14.1862 88.2631 64.6329 88.2631 86.2324C88.2631 111.113 105.097 131.277 125.86 131.277C135.978 131.277 145.165 126.493 151.926 118.704Z" fill="#96BB51"/>
<path d="M1811.15 124.589C1806.11 145.26 1806.11 177.057 1803.59 189.774" stroke="#634E3E" stroke-width="9.6" stroke-linecap="round" stroke-linejoin="round"/>
<path d="M1747.83 124.887C1752.87 145.558 1752.87 177.366 1755.39 190.072" stroke="#4A3A2C" stroke-width="9.6" stroke-linecap="round" stroke-linejoin="round"/>
<path d="M1859.89 190.492C1858.88 169.301 1864.95 138.023 1864.9 125.086" stroke="#4A3A2C" stroke-width="9.6" stroke-linecap="round" stroke-linejoin="round"/>
<path fill-rule="evenodd" clip-rule="evenodd" d="M1858.79 155.944C1842.11 155.944 1828.59 139.747 1828.59 119.771C1828.59 99.796 1842.11 49.062 1858.79 49.062C1875.47 49.062 1888.99 99.8181 1888.99 119.771C1888.99 139.725 1875.47 155.944 1858.79 155.944Z" fill="#27692C"/>
<path fill-rule="evenodd" clip-rule="evenodd" d="M1830.84 133.494C1829.34 129.07 1828.58 124.451 1828.59 119.805C1828.59 101.332 1840.15 56.564 1855.06 49.9019C1867.12 59.1162 1876.14 95.0233 1876.14 110.392C1876.14 128.069 1864.15 142.432 1849.33 142.432C1842.18 142.443 1835.64 139.04 1830.84 133.494Z" fill="#318337"/>
<path fill-rule="evenodd" clip-rule="evenodd" d="M1752.87 155.944C1733.47 155.944 1717.74 137.161 1717.74 113.96C1717.74 90.7585 1733.47 31.7051 1752.87 31.7051C1772.27 31.7051 1787.98 90.6811 1787.98 113.96C1787.98 137.239 1772.26 155.944 1752.87 155.944Z" fill="#318337"/>
<path fill-rule="evenodd" clip-rule="evenodd" d="M1720.36 129.836C1718.62 124.705 1717.74 119.349 1717.74 113.96C1717.74 92.4819 1731.19 40.4332 1748.53 32.6772C1762.52 43.3941 1773.01 85.1458 1773.01 103.011C1773.01 123.594 1759.02 140.288 1741.9 140.288C1733.6 140.244 1725.95 136.278 1720.36 129.836Z" fill="#769738"/>
<path fill-rule="evenodd" clip-rule="evenodd" d="M1807.35 155.944C1783.91 155.944 1764.91 133.184 1764.91 105.121C1764.91 77.0586 1783.91 5.68628 1807.35 5.68628C1830.78 5.68628 1849.78 77.0033 1849.78 105.121C1849.78 133.239 1830.79 155.944 1807.35 155.944Z" fill="#769738"/>
<path fill-rule="evenodd" clip-rule="evenodd" d="M1768.06 124.39C1765.96 118.169 1764.89 111.675 1764.91 105.144C1764.91 79.191 1781.15 16.2928 1802.11 6.92383C1819.04 19.8725 1831.72 70.3192 1831.72 91.9187C1831.72 116.8 1814.89 136.963 1794.13 136.963C1784.01 136.963 1774.82 132.179 1768.06 124.39Z" fill="#96BB51"/>
<path d="M261.521 151.887C264.984 166.101 264.984 187.964 266.716 196.708" stroke="#634E3E" stroke-width="9.6" stroke-linecap="round" stroke-linejoin="round"/>
<path d="M305.055 152.092C301.592 166.306 301.592 188.177 299.861 196.913" stroke="#4A3A2C" stroke-width="9.6" stroke-linecap="round" stroke-linejoin="round"/>
<path d="M228.007 197.202C228.697 182.631 224.529 161.125 224.561 152.229" stroke="#4A3A2C" stroke-width="9.6" stroke-linecap="round" stroke-linejoin="round"/>
<path fill-rule="evenodd" clip-rule="evenodd" d="M228.761 173.447C240.231 173.447 249.53 162.31 249.53 148.575C249.53 134.84 240.231 99.9563 228.761 99.9563C217.29 99.9563 208 134.856 208 148.575C208 162.295 217.29 173.447 228.761 173.447Z" fill="#27692C"/>
<path fill-rule="evenodd" clip-rule="evenodd" d="M247.983 158.01C249.015 154.969 249.537 151.793 249.53 148.598C249.53 135.896 241.578 105.114 231.326 100.533C223.038 106.869 216.833 131.558 216.833 142.125C216.833 154.28 225.074 164.156 235.27 164.156C240.183 164.164 244.68 161.824 247.983 158.01Z" fill="#318337"/>
<path fill-rule="evenodd" clip-rule="evenodd" d="M301.592 173.447C314.93 173.447 325.744 160.532 325.744 144.579C325.744 128.626 314.93 88.0217 301.592 88.0217C288.254 88.0217 277.449 128.573 277.449 144.579C277.449 160.586 288.262 173.447 301.592 173.447Z" fill="#318337"/>
<path fill-rule="evenodd" clip-rule="evenodd" d="M323.948 155.496C325.143 151.968 325.749 148.285 325.744 144.579C325.744 129.811 316.502 94.0231 304.574 88.6902C294.955 96.059 287.741 124.767 287.741 137.051C287.741 151.204 297.36 162.682 309.135 162.682C314.842 162.652 320.101 159.925 323.948 155.496Z" fill="#769738"/>
<path fill-rule="evenodd" clip-rule="evenodd" d="M264.134 173.447C280.246 173.447 293.312 157.797 293.312 138.502C293.312 119.206 280.246 70.1313 264.134 70.1313C248.023 70.1313 234.957 119.168 234.957 138.502C234.957 157.835 248.015 173.447 264.134 173.447Z" fill="#769738"/>
<path fill-rule="evenodd" clip-rule="evenodd" d="M291.148 151.751C292.593 147.474 293.324 143.008 293.312 138.517C293.312 120.673 282.146 77.4244 267.734 70.9824C256.095 79.8858 247.373 114.572 247.373 129.424C247.373 146.532 258.948 160.396 273.224 160.396C280.182 160.396 286.498 157.106 291.148 151.751Z" fill="#96BB51"/>
<path d="M1658.22 156.626C1654.76 170.839 1654.76 192.703 1653.03 201.447" stroke="#634E3E" stroke-width="9.6" stroke-linecap="round" stroke-linejoin="round"/>
<path d="M1614.69 156.831C1618.15 171.044 1618.15 192.915 1619.88 201.651" stroke="#4A3A2C" stroke-width="9.6" stroke-linecap="round" stroke-linejoin="round"/>
<path d="M1691.74 201.94C1691.05 187.37 1695.22 165.864 1695.18 156.968" stroke="#4A3A2C" stroke-width="9.6" stroke-linecap="round" stroke-linejoin="round"/>
<path fill-rule="evenodd" clip-rule="evenodd" d="M1690.98 178.185C1679.51 178.185 1670.21 167.049 1670.21 153.314C1670.21 139.579 1679.51 104.695 1690.98 104.695C1702.45 104.695 1711.74 139.594 1711.74 153.314C1711.74 167.033 1702.45 178.185 1690.98 178.185Z" fill="#27692C"/>
<path fill-rule="evenodd" clip-rule="evenodd" d="M1671.76 162.749C1670.73 159.707 1670.21 156.531 1670.21 153.336C1670.21 140.635 1678.17 109.853 1688.42 105.272C1696.71 111.608 1702.91 136.297 1702.91 146.864C1702.91 159.019 1694.67 168.895 1684.47 168.895C1679.56 168.902 1675.06 166.562 1671.76 162.749Z" fill="#318337"/>
<path fill-rule="evenodd" clip-rule="evenodd" d="M1618.15 178.185C1604.81 178.185 1594 165.271 1594 149.318C1594 133.365 1604.81 92.7603 1618.15 92.7603C1631.49 92.7603 1642.29 133.312 1642.29 149.318C1642.29 165.324 1631.48 178.185 1618.15 178.185Z" fill="#318337"/>
<path fill-rule="evenodd" clip-rule="evenodd" d="M1595.8 160.234C1594.6 156.706 1593.99 153.023 1594 149.318C1594 134.55 1603.24 98.7616 1615.17 93.4287C1624.79 100.798 1632 129.506 1632 141.789C1632 155.942 1622.38 167.421 1610.61 167.421C1604.9 167.39 1599.64 164.663 1595.8 160.234Z" fill="#769738"/>
<path fill-rule="evenodd" clip-rule="evenodd" d="M1655.61 178.185C1639.5 178.185 1626.43 162.536 1626.43 143.24C1626.43 123.945 1639.5 74.8699 1655.61 74.8699C1671.72 74.8699 1684.79 123.907 1684.79 143.24C1684.79 162.574 1671.73 178.185 1655.61 178.185Z" fill="#769738"/>
<path fill-rule="evenodd" clip-rule="evenodd" d="M1628.6 156.489C1627.15 152.212 1626.42 147.747 1626.43 143.256C1626.43 125.411 1637.6 82.163 1652.01 75.7209C1663.65 84.6243 1672.37 119.311 1672.37 134.163C1672.37 151.27 1660.8 165.134 1646.52 165.134C1639.56 165.134 1633.25 161.845 1628.6 156.489Z" fill="#96BB51"/>
<path d="M-442 184.295C-436.417 181.652 -300.571 99.4986 12.6812 184.295C325.934 269.091 586.256 195.485 636.084 182.312C766.659 147.794 934.45 85.6228 1294.22 188.92C1582.04 271.558 1874 207.494 1984 165.133" stroke="#69C770" stroke-width="56"/>
</svg>
