<svg width="1920" height="1277" viewBox="0 0 1920 1277" fill="none" xmlns="http://www.w3.org/2000/svg">
<g opacity="0.55">
<mask id="mask0_80_749" style="mask-type:luminance" maskUnits="userSpaceOnUse" x="0" y="0" width="1920" height="1277">
<path d="M1920 0H0V1276.41H1920V0Z" fill="white"/>
</mask>
<g mask="url(#mask0_80_749)">
<g style="mix-blend-mode:multiply">
<path d="M1092.38 -133.512C1076.91 -67.4889 1057.49 -2.44623 1034.24 61.2677C1024 89.5785 1012.43 118.247 992.487 140.865C941.466 198.686 852.199 200.473 776.013 187.913C705.751 176.33 637.121 156.448 571.572 128.688C506.701 101.219 443.956 65.7607 374.452 54.1198C304.948 42.479 224.103 61.2677 186.65 120.723C164.378 156.156 160.82 200.984 169.524 241.905C178.228 282.827 198.196 320.456 220.34 355.965C245.709 396.606 275.149 437.783 278.964 485.495C282.906 534.918 255.54 585.464 211.917 609.256C149.888 643.106 73.9589 621.867 4.37808 609.256C-83.9931 593.199 -178.79 593.326 -259.532 632.614C-340.275 671.902 -402.688 757.243 -394.393 846.439" stroke="white" stroke-width="0.978593" stroke-miterlimit="10"/>
<path d="M1076.69 -146.864C1061.65 -82.3194 1042.58 -18.7751 1019.6 43.398C1009.36 71.0196 998.068 98.9474 978.637 121.106C928.948 177.727 842.573 180.842 768.487 170.069C750.891 167.516 733.398 164.419 716.007 160.777C665.871 150.324 616.759 135.477 569.242 116.409C505.856 90.8805 444.416 57.6938 376.474 47.0486C308.532 36.4033 231.936 55.8558 192.359 111.226C177.627 131.237 167.6 154.297 163.021 178.698C160.108 195.429 159.522 212.48 161.28 229.371C162.036 237.219 163.241 245.018 164.89 252.729C171.7 283.976 186.189 314.559 202.036 343.635C203.597 346.52 205.184 349.379 206.772 352.264C231.552 396.862 257.716 442.48 259.149 492.388C260.532 540.432 235.111 589.395 192.589 612.754C132.148 646.144 58.4452 627.024 -8.85718 616.353C-14.1564 615.511 -19.4812 614.719 -24.8316 614.03C-105.625 603.257 -190.105 607.648 -262.195 644.817C-338.995 684.437 -397.747 767.939 -388.454 854.608" stroke="#F9F9F9" stroke-width="0.978593" stroke-miterlimit="10"/>
<path d="M1061.02 -160.215C1046.37 -97.1557 1027.63 -35.1109 1004.93 25.5282C994.867 52.4605 983.68 79.6991 964.736 101.373C916.48 156.769 832.87 161.185 760.908 152.199C743.842 150.055 726.826 147.391 709.862 144.209C661.086 135.059 613.215 121.63 566.809 104.079C504.908 80.6692 444.774 49.7035 378.444 39.9772C312.115 30.251 239.283 50.4693 198.092 101.704C181.452 122.382 167.884 142.779 160.64 166.291C155.609 182.673 153.021 199.704 152.96 216.837C152.914 224.987 153.41 233.131 154.444 241.216C158.745 274.25 173.132 307.589 188.672 339.219C190.233 342.359 191.769 345.473 193.331 348.588C217.523 397.091 240.486 447.05 239.411 499.204C238.515 545.793 214.758 593.097 173.414 616.225C114.534 649.106 43.1356 632.104 -21.914 623.45C-27.034 622.761 -32.154 622.122 -37.274 621.561C-115.303 613.136 -196.148 619.519 -264.576 657.019C-337.562 696.997 -392.576 778.636 -382.336 862.777" stroke="#F4F4F4" stroke-width="0.978593" stroke-miterlimit="10"/>
<path d="M1045.35 -173.592C1031.09 -112.013 1012.69 -51.46 990.285 7.65854C980.327 33.9015 969.293 60.3998 950.861 81.6903C903.681 135.81 823.194 141.554 753.332 134.329C736.743 132.628 720.214 130.407 703.744 127.667C656.342 119.853 609.723 107.885 564.429 91.9016C504.013 70.5345 445.185 41.8153 380.416 33.0336C315.648 24.2519 246.221 45.0573 203.776 92.3356C185.293 112.911 168.397 131.19 158.234 153.986C151.025 169.905 146.385 186.861 144.487 204.226C143.572 212.703 143.324 221.238 143.744 229.754C145.536 264.574 159.821 300.799 175.079 334.879C176.589 338.249 178.1 341.618 179.636 345.09C203.239 397.653 223.156 451.619 219.546 506.403C216.628 551.435 194.253 597.258 154.061 620.029C96.8453 652.45 27.6229 637.567 -35.1739 630.878C-40.1403 630.368 -45.1067 629.883 -50.0731 629.474C-125.312 623.373 -202.547 631.746 -267.34 669.579C-336.46 709.914 -387.66 789.562 -376.396 871.252" stroke="#EEEEEE" stroke-width="0.978593" stroke-miterlimit="10"/>
<path d="M1029.68 -186.892C1015.81 -126.816 997.739 -67.7786 975.617 -10.2112C965.812 15.317 954.881 41.0495 936.961 61.8294C891.213 114.877 813.517 121.923 745.78 116.485C729.669 115.209 713.626 113.43 697.652 111.15C651.583 104.58 606.182 93.9873 561.972 79.4949C503.092 60.1446 445.517 33.5442 382.362 25.8857C319.207 18.2273 252.749 39.237 209.511 82.7115C189.031 103.134 168.986 119.344 155.751 141.426C146.348 156.959 139.665 173.974 135.988 191.742C134.233 200.437 133.274 209.272 133.121 218.139C132.378 254.746 146.586 293.804 161.537 330.463L165.991 341.312C189.108 397.755 205.901 455.679 199.681 513.117C194.996 556.515 173.773 600.96 134.708 623.399C79.1045 655.335 12.1349 642.57 -48.4091 637.873C-53.1963 637.49 -57.9835 637.184 -62.7707 636.929C-135.193 633.1 -208.793 643.515 -269.951 681.603C-335.155 722.27 -382.591 800.207 -370.38 879.293" stroke="#E9E9E9" stroke-width="0.978593" stroke-miterlimit="10"/>
<path d="M1014.02 -200.243C1000.53 -141.651 982.791 -84.1124 960.947 -28.081C951.271 -3.21649 940.468 21.8267 923.111 42.1216C878.644 93.9183 803.84 102.292 738.202 98.641C722.603 97.7731 707.047 96.4286 691.533 94.6076C646.848 89.3436 602.714 80.1691 559.642 67.1903C502.195 49.8822 445.978 25.6304 384.384 18.6867C322.791 11.743 258.944 33.2888 215.22 73.1384C192.743 93.5609 169.549 107.55 153.472 128.969C141.972 144.021 133.299 161.024 127.872 179.157C125.253 188.086 123.538 197.253 122.752 206.523C119.501 244.816 133.607 286.784 148.352 325.868C149.786 329.748 151.245 333.526 152.679 337.483C175.156 397.959 189.031 459.763 180.122 519.933C173.927 561.774 153.626 604.763 115.687 626.871C61.4403 658.398 -3.25086 647.753 -61.4397 645.021C-66.0221 644.817 -70.6301 644.664 -75.2381 644.562C-144.921 643.132 -214.912 655.462 -272.358 693.959C-333.67 734.983 -377.548 811.057 -364.16 887.616" stroke="#E3E3E3" stroke-width="0.978593" stroke-miterlimit="10"/>
<path d="M998.4 -213.594C985.294 -156.484 967.879 -100.444 946.304 -45.9507C936.73 -21.7499 926.131 2.55291 909.235 22.3883C866.074 73.0363 794.163 82.7114 730.65 80.8479C715.546 80.4054 700.467 79.5034 685.415 78.1419C642.09 74.1721 599.199 66.4158 557.235 54.9623C501.274 39.6454 446.362 17.6911 386.381 11.7686C326.4 5.84604 264.832 27.2897 220.928 63.8206C196.275 84.2431 170.087 95.9095 151.04 116.613C137.385 131.137 126.652 148.14 119.424 166.699C115.928 175.854 113.455 185.365 112.051 195.061C106.291 235.242 120.32 279.942 134.656 321.655C136.09 325.774 137.506 329.892 138.906 334.011C160.794 398.444 171.904 464.052 160.102 527.055C152.576 567.262 132.992 608.746 96.1025 630.598C43.7249 661.589 -18.7903 653.037 -74.8287 652.322C-79.2319 652.322 -83.6607 652.322 -88.0895 652.322C-155.008 653.241 -221.363 667.639 -275.226 706.365C-332.672 747.747 -372.838 821.957 -358.451 895.989" stroke="#DEDEDE" stroke-width="0.978593" stroke-miterlimit="10"/>
<path d="M982.656 -226.946C969.976 -171.318 952.916 -116.774 931.635 -63.8205C922.215 -40.309 911.744 -16.7465 895.335 2.55284C853.504 52.001 784.487 62.9781 723.072 62.9015C708.48 62.9015 693.897 62.4335 679.322 61.4975C637.354 58.8496 595.704 52.5109 554.855 42.5555C500.378 29.3319 446.771 9.5731 388.455 4.5951C330.138 -0.382895 263.885 13.7853 226.637 54.1964C196.557 69.4878 170.65 84.2431 148.711 104.206C132.934 118.174 120.136 135.164 111.079 154.165C106.714 163.542 103.492 173.407 101.479 183.548C93.2098 225.491 107.136 272.896 121.191 317.086C122.59 321.46 123.972 325.833 125.338 330.207C146.637 398.597 155.136 468.06 140.288 533.82C131.584 572.419 112.64 612.677 76.8002 634.018C26.0098 664.525 -34.2526 658.091 -88.0382 659.368C-92.2878 659.368 -96.5118 659.623 -100.838 659.827C-164.966 663.069 -227.737 679.356 -277.939 718.542C-331.469 760.281 -367.949 832.628 -352.537 904.132" stroke="#D8D8D8" stroke-width="0.978593" stroke-miterlimit="10"/>
<path d="M966.99 -240.297C954.695 -186.152 937.964 -133.105 916.967 -81.6901C907.674 -58.8935 897.358 -36.0202 881.46 -17.1038C840.935 31.0679 774.81 43.398 715.521 45.0829C701.424 45.4914 687.318 45.4914 673.204 45.0829C632.599 43.7244 592.192 38.8127 552.449 30.4042C499.457 19.0952 447.156 1.58286 390.35 -2.55271C333.543 -6.68828 269.569 7.02037 232.372 44.7C199.86 59.149 171.188 72.4747 146.33 91.9017C128.489 105.315 113.664 122.308 102.81 141.784C97.589 151.358 93.6145 161.559 90.9833 172.137C80.2057 215.867 94.0553 266.208 107.802 312.797C109.168 317.392 110.516 322.013 111.847 326.659C132.558 399.006 138.599 472.17 120.551 540.841C110.772 577.703 92.1609 616.481 57.6009 637.567C8.42329 667.588 -49.5863 663.274 -101.119 666.516C-105.19 666.771 -109.234 667.103 -113.305 667.461C-174.745 673.051 -233.804 691.304 -280.37 730.822C-330.009 772.867 -362.777 843.375 -346.367 912.353" stroke="#D2D2D2" stroke-width="0.978593" stroke-miterlimit="10"/>
<path d="M951.323 -253.648C939.425 -200.986 923.033 -149.436 902.324 -99.56C893.159 -77.4526 882.945 -55.3196 867.585 -36.8627C828.366 10.2113 765.134 23.7412 707.943 27.2131C694.29 28.064 680.637 28.4725 666.983 28.4384C627.737 28.389 588.572 24.8952 549.94 17.9974C498.433 8.83277 447.54 -6.45864 392.193 -9.52203C336.846 -12.5854 275.252 0.255286 238.081 35.2034C203.163 48.8354 171.751 60.7316 143.95 79.3672C124.02 92.1964 107.105 109.169 94.3627 129.122C88.2897 138.892 83.5706 149.437 80.3339 160.47C67.0475 205.987 80.7947 259.137 94.2603 308.227C95.5915 313.078 96.9056 317.945 98.2027 322.83C118.324 399.159 122.113 475.999 100.763 547.631C90.0875 583.013 71.6811 620.335 38.4011 641.09C-9.26612 670.651 -65.0229 668.456 -114.303 673.689C-118.194 674.098 -121.983 674.557 -125.951 675.093C-184.524 683.007 -240.05 703.174 -282.981 743.1C-328.729 785.503 -357.784 854.148 -340.351 920.598" stroke="#CDCDCD" stroke-width="0.978593" stroke-miterlimit="10"/>
<path d="M935.655 -266.999C924.152 -215.817 908.088 -165.762 887.655 -117.43C878.618 -95.986 868.558 -74.5678 853.71 -56.5959C815.796 -10.6452 755.457 4.21224 700.366 9.47105C687.293 10.7304 674.168 11.5814 660.993 12.0239C623.106 13.2588 585.183 11.1745 547.662 5.79499C497.665 -1.4295 448.001 -14.4744 394.241 -16.5932C340.481 -18.7121 280.833 -6.38197 243.713 25.6815C206.388 38.4456 172.238 49.0398 141.466 66.935C120.5 79.1375 100.532 95.45 86.0168 116.587C79.0992 126.553 73.6266 137.441 69.7608 148.932C53.9656 196.235 67.6104 252.219 80.7688 303.811C82.0744 308.917 83.3288 314.023 84.6344 319.128C104.193 399.414 105.857 480.135 80.8712 554.498C69.5048 588.349 51.2008 624.241 19.0216 644.638C-27.0584 673.689 -80.46 673.613 -127.487 680.863C-131.199 681.424 -134.911 682.037 -138.598 682.726C-194.406 692.938 -246.297 715.198 -285.567 755.38C-327.449 798.139 -352.793 864.921 -334.207 928.971" stroke="#C7C7C7" stroke-width="0.978593" stroke-miterlimit="10"/>
<path d="M919.987 -280.351C908.861 -230.649 893.117 -182.089 872.96 -135.299C864.051 -114.545 854.144 -93.8671 839.808 -76.3292C803.2 -31.6548 745.753 -15.4189 692.787 -8.37312C680.192 -6.67124 667.545 -5.38631 654.848 -4.51835C618.334 -2.02886 581.673 -2.72076 545.28 -6.58615C496.64 -11.6918 448.358 -22.4902 396.313 -23.6645C344.268 -24.8388 286.72 -13.2745 249.497 16.185C209.766 28.1577 172.851 37.3224 139.161 54.4773C116.121 66.1948 93.9772 82.5583 77.7212 104.002C69.9647 114.158 63.7379 125.39 59.238 137.342C40.9596 186.484 54.4508 245.275 67.302 299.369C68.582 304.73 69.8279 310.1 71.0396 315.478C90.0348 399.721 89.83 484.347 61.0556 561.442C48.998 593.71 30.8732 628.122 -0.38439 648.238C-44.7492 676.829 -96.0516 678.872 -140.826 688.087C-144.333 688.828 -147.866 689.593 -151.373 690.436C-204.391 703.021 -252.672 727.222 -288.308 767.735C-326.298 810.852 -347.93 875.771 -328.474 937.166" stroke="#C2C2C2" stroke-width="0.978593" stroke-miterlimit="10"/>
<path d="M904.295 -293.574C893.553 -245.389 878.12 -198.364 858.215 -153.169C849.459 -133.104 839.68 -113.166 825.831 -96.0881C790.554 -52.6901 736 -35.0501 685.031 -26.2429C672.947 -24.1156 660.796 -22.4137 648.576 -21.1373C613.407 -17.3058 577.97 -16.5456 542.669 -18.8653C495.642 -21.9542 448.538 -30.4806 398.08 -30.7103C347.623 -30.9401 292.275 -20.0651 255.207 6.68847C213.095 17.8698 173.415 25.5283 136.781 42.0961C111.719 53.354 87.4498 69.4879 69.325 91.5187C60.7385 101.862 53.7651 113.437 48.6402 125.854C27.8274 176.757 41.293 238.357 53.7602 294.953C55.006 300.535 56.2178 306.151 57.3954 311.802C75.8018 400.001 73.9586 488.635 41.165 568.334C28.493 599.096 10.4449 632.002 -19.6351 651.709C-62.3871 679.79 -111.437 683.977 -153.958 695.107C-157.312 696.001 -160.64 696.92 -163.968 697.916C-214.221 712.824 -258.867 739.041 -290.867 779.861C-324.966 823.259 -342.886 886.39 -322.406 945.258" stroke="#BCBCBC" stroke-width="0.978593" stroke-miterlimit="10"/>
<path d="M888.627 -307.053C878.312 -260.311 863.25 -214.737 843.674 -171.039C835.021 -151.688 825.395 -132.44 812.058 -115.847C778.086 -73.5722 726.426 -54.5792 677.683 -44.0871C666.078 -41.5683 654.404 -39.4069 642.662 -37.6029C608.861 -32.4661 574.675 -30.2879 540.493 -31.0932C494.925 -32.1399 449.152 -38.4453 400.282 -37.705C351.411 -36.9647 301.568 -19.8353 260.941 -2.70584C218.854 15.1639 173.901 13.9896 134.4 29.7915C107.315 40.5645 80.8959 56.5962 60.9791 79.0865C51.5135 89.6049 43.7412 101.524 37.9391 114.418C14.6175 167.108 28.0063 231.515 40.2687 290.562C41.4634 296.417 42.641 302.288 43.8015 308.177C61.7215 400.359 58.3679 493.103 21.3247 575.278C8.21749 604.559 -9.98409 635.882 -38.8353 655.258C-80.0001 682.88 -126.797 689.262 -167.066 702.358C-170.24 703.379 -173.389 704.476 -176.538 705.625C-224 722.882 -265.037 751.065 -293.402 792.217C-323.61 836.023 -337.843 897.24 -316.442 953.581" stroke="#B7B7B7" stroke-width="0.978593" stroke-miterlimit="10"/>
<path d="M872.96 -320.379C863.022 -275.126 848.288 -231.055 829.005 -188.909C820.48 -170.222 811.085 -151.714 798.285 -135.58C765.619 -94.4798 716.851 -74.3126 670.285 -61.9314C659.208 -58.9701 648.03 -56.3662 636.749 -54.1198C604.239 -47.6755 571.225 -44.0878 538.086 -43.3979C494.029 -42.4023 449.536 -46.4613 402.253 -44.7764C354.969 -43.0916 306.585 -27.2896 266.573 -12.228C221.773 4.67169 174.413 2.27203 131.942 17.3847C102.912 27.5705 74.2399 43.5256 52.6079 66.3734C42.3648 77.0832 33.8885 89.3441 27.4943 102.7C1.63833 157.254 14.9247 224.495 26.9055 286.095C28.0831 292.17 29.2266 298.289 30.3359 304.449C47.5647 400.589 43.1359 497.621 1.61271 582.145C-12.0833 610.047 -30.4129 639.762 -58.1377 658.73C-97.6897 685.943 -142.234 694.367 -180.25 709.505C-183.245 710.705 -186.214 712.058 -189.184 713.258C-233.882 732.838 -271.283 763.012 -295.987 804.496C-322.33 848.66 -332.851 908.013 -310.323 961.826" stroke="#B1B1B1" stroke-width="0.978593" stroke-miterlimit="10"/>
<path d="M857.293 -333.73C847.752 -289.952 833.344 -247.371 814.336 -206.778C805.965 -188.909 796.621 -171.039 784.308 -155.314C752.948 -115.438 707.072 -94.0458 662.554 -79.7756C651.956 -76.3718 641.255 -73.334 630.452 -70.662C599.377 -62.9185 567.683 -57.8959 535.732 -55.6514C493.159 -52.6391 449.997 -54.4516 404.301 -51.7967C358.605 -49.1417 311.68 -34.6928 272.41 -21.6989C224.794 -6.1012 175.079 -9.54752 129.613 4.85038C98.5092 14.6787 67.7892 30.6339 44.2628 53.9156C33.1876 64.8022 23.9544 77.4063 16.9219 91.2378C-11.4429 147.4 1.76675 217.551 13.4148 281.678C14.5753 288.009 15.6931 294.366 16.7683 300.748C33.4339 400.793 28.1603 502.395 -18.2013 589.038C-32.3581 615.562 -50.8157 643.643 -77.4141 662.329C-115.353 689.006 -157.67 699.473 -193.433 716.679C-196.249 718.032 -199.065 719.436 -201.83 720.891C-243.763 742.82 -277.555 774.96 -298.598 816.775C-321.049 861.296 -327.859 918.888 -304.307 970.072" stroke="#ABABAB" stroke-width="0.978593" stroke-miterlimit="10"/>
<path d="M841.627 -347.183C832.479 -304.85 818.406 -263.727 799.694 -224.648C791.771 -207.181 782.005 -190.604 770.561 -175.2C740.507 -136.499 697.524 -113.703 655.105 -97.7474C645.019 -93.9352 634.779 -90.4548 624.385 -87.3063C594.654 -78.2882 564.196 -71.8566 533.351 -68.0836C492.391 -62.978 450.382 -62.5951 406.273 -58.9956C362.164 -55.3961 316.673 -42.3257 278.119 -31.323C227.841 -17.0017 175.617 -21.2394 127.233 -7.65835C94.1322 1.78708 61.2618 17.538 35.841 41.3813C23.9453 52.4416 13.9558 65.3785 6.27298 79.6736C-24.5238 137.852 -11.4166 210.608 0.000969501 277.236C1.12737 283.823 2.21111 290.434 3.25218 297.072C19.329 401.15 13.4922 507.373 -37.9382 595.931C-52.5558 621.152 -71.2182 647.523 -96.6646 665.878C-133.119 692.07 -173.132 704.579 -206.617 723.827C-209.177 725.359 -211.89 726.916 -214.476 728.498C-253.618 752.776 -283.801 786.907 -301.209 829.054C-319.769 873.933 -322.866 929.559 -298.316 978.317" stroke="#A6A6A6" stroke-width="0.978593" stroke-miterlimit="10"/>
<path d="M825.934 -360.433C817.157 -319.649 803.401 -280.092 784.974 -242.645C777.091 -225.844 767.546 -209.869 756.481 -194.959C727.809 -157.458 687.719 -133.334 647.425 -115.617C637.825 -111.379 628.071 -107.448 618.241 -103.849C589.86 -93.5239 560.635 -85.6743 530.894 -80.3882C491.29 -73.2914 450.74 -70.6109 408.218 -66.0669C365.697 -61.5229 321.87 -49.9331 283.777 -40.845C230.657 -28.0809 176.257 -32.9824 124.852 -20.014C89.7288 -11.1302 54.708 4.5441 27.572 28.847C14.854 40.0962 4.10795 53.3832 -4.22326 68.1604C-37.5033 127.998 -24.7033 203.69 -13.5161 272.82C-12.4067 279.627 -11.3657 286.486 -10.3929 293.396C5.12073 401.431 -1.17686 512.632 -57.8041 602.849C-72.8569 626.794 -91.6729 651.352 -115.993 669.401C-150.732 695.133 -188.569 709.863 -219.801 731C-222.361 732.659 -224.716 734.395 -227.122 736.106C-263.23 762.179 -290.083 799.032 -303.794 841.333C-318.489 886.518 -317.874 940.306 -292.3 986.537" stroke="#A0A0A0" stroke-width="0.978593" stroke-miterlimit="10"/>
<path d="M810.265 -373.784C801.907 -334.48 788.493 -296.417 770.355 -260.541C762.555 -244.409 753.282 -229.028 742.656 -214.59C715.238 -178.263 678.041 -152.837 639.846 -133.334C630.758 -128.662 621.491 -124.322 612.121 -120.263C585.104 -108.646 557.13 -99.379 528.512 -92.5653C490.393 -83.4262 451.148 -78.5248 410.188 -73.0107C369.228 -67.4966 327.091 -57.4895 289.51 -50.214C233.625 -39.39 176.716 -44.5467 122.47 -32.3442C85.3245 -23.9965 48.1533 -8.42433 19.2253 16.338C5.69174 27.7607 -5.81073 41.38 -14.7971 56.6216C-50.6371 118.247 -37.8371 196.746 -26.9827 268.378C-25.9331 275.449 -24.9091 282.572 -23.9619 289.72C-9.03711 401.712 -15.4115 518.197 -77.7219 609.741C-93.0819 632.487 -112.205 655.258 -135.399 672.949C-168.423 698.196 -204.007 715.019 -232.96 738.174C-235.23 739.978 -237.483 741.841 -239.719 743.764C-273 772.405 -296.306 810.841 -306.279 853.535C-317.082 899.078 -312.756 951.002 -286.183 994.706" stroke="#9B9B9B" stroke-width="0.978593" stroke-miterlimit="10"/>
<path d="M794.599 -387.135C786.625 -349.307 773.543 -312.733 755.712 -278.41C747.939 -263.057 738.933 -248.355 728.781 -234.451C702.669 -199.35 668.365 -172.596 632.295 -151.306C623.693 -146.2 614.912 -141.426 606.029 -136.933C580.36 -124.005 553.62 -113.311 526.106 -104.972C489.498 -93.816 451.533 -86.6681 412.186 -80.2094C372.839 -73.7508 332.416 -65.352 295.22 -59.7869C236.621 -51.0562 177.28 -56.3916 120.064 -44.8274C80.9219 -36.9136 41.6004 -21.418 10.8548 3.67623C-3.5033 15.3136 -15.7553 29.3185 -25.3692 45.083C-63.7692 108.495 -50.9692 189.828 -40.4732 263.962C-39.4236 271.263 -38.4508 278.641 -37.5292 286.044C-23.1932 401.993 -29.3628 524.069 -97.4332 616.634C-113.692 639.061 -132.912 659.197 -154.572 676.498C-186.086 701.26 -219.443 720.227 -246.195 745.424C-248.294 747.415 -250.368 749.432 -252.416 751.499C-282.967 782.733 -302.786 822.832 -309.017 866.019C-315.929 911.97 -307.891 961.979 -280.294 1003.16" stroke="#959595" stroke-width="0.978593" stroke-miterlimit="10"/>
<path d="M778.931 -400.486C771.339 -364.13 758.581 -329.041 741.043 -296.28C733.345 -281.655 724.611 -267.595 714.906 -254.21C690.099 -220.283 658.586 -192.253 624.717 -169.175C616.627 -163.661 608.333 -158.428 599.91 -153.475C575.61 -139.24 550.119 -127.129 523.725 -117.276C488.1 -104.265 451.451 -94.2319 414.157 -87.2808C376.602 -79.9287 337.869 -73.1382 300.928 -69.4111C239.693 -63.1056 177.843 -68.1857 117.683 -57.3107C76.5185 -49.882 35.0721 -34.4885 2.48327 -8.8071C-12.638 3.01775 -25.6022 17.3532 -35.8399 33.5697C-76.7999 98.7432 -63.9999 182.884 -53.7599 259.52C-52.7615 267.178 -51.7887 274.837 -50.9183 282.495C-37.1711 402.478 -42.8799 530.425 -117.069 623.68C-133.847 644.484 -152.833 663.417 -173.696 680.148C-203.597 704.425 -234.701 725.512 -259.2 752.623C-261.12 754.767 -263.014 756.937 -264.883 759.158C-292.661 792.92 -309.023 834.576 -311.629 878.17C-314.65 924.427 -302.899 972.625 -274.278 1011.27" stroke="#909090" stroke-width="0.978593" stroke-miterlimit="10"/>
<path d="M763.239 -413.838C743.118 -314.431 677.863 -227.048 593.921 -170.018C509.978 -112.988 408.167 -84.7536 306.638 -78.8311C242.842 -75.1295 178.382 -79.8266 115.303 -69.6664C52.2248 -59.5062 -11.8008 -31.3741 -46.5144 22.0309C-90.0344 88.9914 -77.2344 175.966 -67.404 255.103C-51.148 385.297 -51.3784 530.808 -137.062 630.368C-179.737 679.944 -240.102 713.105 -277.708 766.586C-329.83 840.746 -325.785 949.368 -268.287 1019.47" stroke="#8A8A8A" stroke-width="0.978593" stroke-miterlimit="10"/>
</g>
<g style="mix-blend-mode:multiply">
<path d="M230.246 1291.14C270.068 1236.2 313.154 1183.69 359.27 1133.89C379.75 1111.75 401.433 1089.72 428.595 1076.52C498.048 1042.85 581.094 1075.55 646.502 1116.48C706.817 1154.22 762.417 1198.98 812.134 1249.81C861.337 1300.15 905.497 1357.03 965.12 1394.5C1024.74 1431.98 1106.56 1445.89 1164.16 1405.38C1198.44 1381.28 1219.07 1341.28 1226.88 1300.2C1234.69 1259.13 1230.85 1216.7 1224.17 1175.42C1216.49 1128.14 1205.3 1078.85 1220.25 1033.36C1235.76 986.257 1280.59 950.185 1330.02 945.029C1400.35 937.676 1462.17 986.512 1521.46 1024.96C1596.75 1073.82 1684.25 1110.2 1773.93 1105.04C1863.6 1099.88 1954.25 1045.2 1981.16 959.733" stroke="white" stroke-width="0.978593" stroke-miterlimit="10"/>
<path d="M239.539 1309.6C278.615 1255.56 321.112 1204.07 366.771 1155.43C387.046 1133.84 408.473 1112.37 435.174 1099.4C488.806 1073.36 550.553 1086.63 605.9 1112.16C620.807 1119.11 635.334 1126.84 649.42 1135.32C709.039 1171 764.185 1213.63 813.695 1262.32C862.719 1310.49 906.649 1365.48 965.631 1401.5C998.707 1421.74 1037.9 1435.6 1076.5 1438.11C1110.12 1440.25 1143.47 1433.59 1171.35 1414.57C1176.32 1411.18 1181.05 1407.46 1185.51 1403.44C1212.88 1378.65 1229.49 1343.01 1236.71 1306.43C1239 1294.83 1240.55 1283.1 1241.34 1271.3C1243.39 1240.34 1240.98 1209.02 1237.43 1178.38C1231.82 1129.88 1224.34 1080.07 1241.22 1034.68C1258.09 989.295 1300.91 954.525 1349.17 949.266C1417.86 941.735 1478.42 987.763 1536.38 1023.5C1540.97 1026.34 1545.57 1029.09 1550.23 1031.82C1620.58 1072.85 1700.2 1101.34 1781.09 1094.8C1867.34 1087.83 1953.82 1033.53 1978.8 949.879" stroke="#F9F9F9" stroke-width="0.978593" stroke-miterlimit="10"/>
<path d="M248.833 1327.85C287.185 1274.74 329.094 1224.27 374.273 1176.8C394.343 1155.71 415.54 1134.83 441.754 1122.07C494.439 1096.54 554.932 1108.38 609.409 1132.28C624.094 1138.77 638.432 1146.01 652.365 1153.98C711.273 1187.61 765.948 1228.13 815.233 1274.67C864.026 1320.63 907.828 1373.8 966.273 1408.57C1000.6 1428.99 1040.82 1443.49 1080.6 1446.61C1115.16 1449.16 1149.72 1443.01 1178.68 1423.86C1183.84 1420.45 1188.75 1416.67 1193.37 1412.55C1221.89 1387.3 1238.91 1350.6 1246.75 1312.99C1249.2 1300.97 1250.91 1288.8 1251.87 1276.56C1254.43 1244.76 1253.04 1212.54 1250.74 1181.16C1247.21 1131.28 1243.44 1081.17 1262.23 1035.81C1280.15 992.741 1321.34 958.686 1368.42 953.3C1435.42 945.641 1494.76 988.784 1551.41 1021.84C1555.87 1024.4 1560.37 1026.95 1564.93 1029.5C1633.61 1067.31 1710.67 1092.56 1788.34 1084.31C1871.13 1075.55 1953.46 1021.41 1976.53 939.821" stroke="#F4F4F4" stroke-width="0.978593" stroke-miterlimit="10"/>
<path d="M258.099 1346.18C295.74 1293.95 337.078 1244.47 381.798 1198.12C401.612 1177.56 422.579 1157.27 448.358 1144.71C500.044 1119.51 559.308 1130.16 612.915 1152.37C627.402 1158.49 641.568 1165.34 655.359 1172.89C713.565 1204.45 767.778 1242.84 816.844 1287.23C865.484 1331.19 909.132 1382.28 966.783 1415.77C1002.39 1436.45 1043.58 1451.51 1084.54 1455.24C1120.08 1458.43 1155.89 1452.53 1185.84 1433.26C1191.24 1429.81 1196.37 1425.98 1201.2 1421.79C1230.85 1396.06 1248.28 1358.25 1256.68 1319.48C1259.31 1307.11 1261.22 1294.61 1262.41 1282.03C1265.59 1249.35 1265.1 1216.24 1264.05 1184.13C1262.57 1132.94 1262.44 1082.52 1283.25 1037.13C1302.07 996.059 1341.77 963.103 1387.67 957.512C1453 949.624 1511.09 990.009 1566.41 1020.36C1570.78 1022.76 1575.18 1025.11 1579.62 1027.41C1646.67 1062 1721.14 1084.03 1795.56 1074.07C1874.92 1063.48 1953.1 1009.61 1974.27 929.967" stroke="#EEEEEE" stroke-width="0.978593" stroke-miterlimit="10"/>
<path d="M267.393 1364.53C304.302 1313.26 345.054 1264.85 389.3 1219.71C408.909 1199.67 429.645 1179.94 454.938 1167.61C505.677 1142.85 563.713 1152.29 616.423 1172.84C630.667 1178.43 644.619 1184.72 658.228 1191.71C715.722 1221.2 769.464 1257.47 818.305 1299.72C866.689 1341.53 910.285 1390.62 967.22 1422.84C1004.11 1443.72 1046.35 1459.4 1088.46 1463.68C1124.92 1467.41 1161.98 1461.92 1192.99 1442.5C1198.54 1439.01 1203.84 1435.13 1208.83 1430.88C1239.55 1404.66 1257.47 1365.76 1266.41 1325.83C1269.2 1313.14 1271.32 1300.31 1272.73 1287.39C1276.47 1253.87 1276.93 1219.84 1277.16 1186.96C1277.72 1134.5 1281.15 1083.8 1304.04 1038.33C1323.73 999.276 1361.95 967.264 1406.67 961.622C1470.34 953.58 1527.17 991.132 1581.21 1018.78C1585.46 1020.97 1589.76 1023.09 1594.01 1025.19C1659.39 1056.56 1731.3 1075.35 1802.5 1063.68C1878.37 1051.28 1952.46 997.719 1971.69 920.011" stroke="#E9E9E9" stroke-width="0.978593" stroke-miterlimit="10"/>
<path d="M276.685 1382.89C312.864 1332.52 353.031 1285.13 396.8 1241.16C416.179 1221.65 436.659 1202.51 461.491 1190.38C511.283 1166.05 568.064 1174.09 619.904 1193.06C634.087 1198.17 647.911 1204.19 661.12 1210.52C717.924 1237.94 771.214 1272.07 819.84 1312.18C868.019 1351.9 911.565 1398.97 967.757 1429.94C1005.93 1451 1049.14 1467.28 1092.45 1472.26C1129.86 1476.5 1168.15 1471.39 1200.18 1451.84C1205.93 1448.32 1211.43 1444.38 1216.61 1440.07C1248.54 1413.39 1266.79 1373.39 1276.29 1332.32C1279.27 1319.28 1281.57 1306.1 1283.17 1292.82C1287.5 1258.46 1288.83 1223.54 1290.39 1189.92C1292.95 1136.13 1299.92 1085.25 1325.01 1039.66C1345.49 1002.57 1382.3 971.603 1425.84 965.834C1487.82 957.614 1543.42 992.358 1596.13 1017.3C1600.31 1019.26 1604.48 1021.2 1608.7 1023.07C1672.42 1051.15 1741.82 1066.8 1809.72 1053.42C1882.16 1039.18 1952.1 985.899 1969.41 910.131" stroke="#E3E3E3" stroke-width="0.978593" stroke-miterlimit="10"/>
<path d="M285.978 1401.24C321.43 1351.78 361.021 1305.4 404.327 1262.6C423.501 1243.63 443.751 1225.05 468.096 1213.13C516.916 1189.23 572.468 1196 623.437 1213.3C637.389 1218 651.008 1223.52 664.064 1229.31C720.164 1254.67 772.991 1286.68 821.402 1324.66C869.351 1362.24 912.845 1407.19 968.295 1436.98C1007.77 1458.22 1051.96 1475.27 1096.45 1480.74C1134.85 1485.51 1174.32 1480.74 1207.37 1461.11C1213.33 1457.56 1219.01 1453.58 1224.37 1449.18C1257.45 1422.02 1276.11 1380.92 1286.17 1338.72C1289.37 1325.27 1291.78 1311.69 1293.65 1298.21C1298.53 1262.98 1300.79 1227.17 1303.65 1192.78C1308.21 1137.72 1318.61 1086.56 1345.95 1040.89C1367.04 1005.81 1402.62 975.892 1444.99 970.072C1505.33 961.673 1559.68 993.609 1611.09 1015.87C1615.13 1017.61 1619.23 1019.32 1623.32 1020.97C1685.4 1045.89 1752.17 1058.25 1816.88 1043.16C1885.88 1027.13 1951.67 974.233 1967.08 900.201" stroke="#DEDEDE" stroke-width="0.978593" stroke-miterlimit="10"/>
<path d="M295.27 1419.57C329.993 1371.03 369.001 1325.68 411.826 1284.07C430.77 1265.61 450.79 1247.61 474.674 1235.9C522.546 1212.44 576.87 1217.87 626.943 1233.52C640.665 1237.76 654.105 1242.76 667.007 1248.12C722.386 1271.42 774.741 1301.3 822.937 1337.12C870.681 1372.57 914.15 1415.44 968.857 1444.1C1009.66 1465.5 1054.82 1483.06 1100.49 1489.29C1139.76 1494.57 1180.54 1490.23 1214.64 1470.42C1220.8 1466.85 1226.67 1462.8 1232.2 1458.32C1266.43 1430.7 1285.48 1388.53 1296.2 1345.16C1299.56 1331.37 1302.14 1317.43 1304.22 1303.62C1309.7 1267.55 1312.9 1230.84 1317.02 1195.72C1323.62 1139.32 1337.32 1087.94 1367.01 1042.16C1388.57 1008.98 1423.1 980.181 1464.29 974.156C1522.94 965.579 1576.04 994.579 1626.16 1014.26C1630.1 1015.79 1634.07 1017.28 1638.07 1018.73C1698.48 1040.43 1762.69 1049.57 1824.18 1032.77C1889.71 1014.9 1951.36 962.183 1964.98 890.296" stroke="#D8D8D8" stroke-width="0.978593" stroke-miterlimit="10"/>
<path d="M304.64 1437.93C338.654 1390.29 377.096 1345.95 419.456 1305.51C438.17 1287.64 457.856 1270.16 481.357 1258.67C528.282 1235.69 581.197 1239.88 630.528 1253.77C644.045 1257.57 657.28 1262.06 670.029 1266.94C724.71 1288.15 776.605 1315.91 824.576 1349.6C872.115 1382.94 915.584 1423.63 969.446 1451.18C1011.56 1472.72 1057.69 1490.95 1104.51 1497.79C1144.76 1503.61 1186.76 1499.65 1221.89 1479.69C1228.26 1476.11 1234.33 1472.02 1240.04 1467.46C1275.39 1439.38 1294.87 1395.98 1306.06 1351.59C1309.59 1337.45 1312.36 1323.15 1314.66 1309.04C1320.7 1272.1 1324.9 1234.52 1330.23 1198.6C1338.91 1140.93 1355.83 1089.29 1387.93 1043.44C1409.89 1012.12 1443.4 984.47 1483.44 978.317C1540.43 969.561 1592.27 995.881 1641.06 1012.73C1644.9 1014.06 1648.74 1015.28 1652.66 1016.56C1711.54 1035.02 1772.98 1040.94 1831.3 1022.43C1893.4 1002.75 1950.9 950.338 1962.47 880.391" stroke="#D2D2D2" stroke-width="0.978593" stroke-miterlimit="10"/>
<path d="M313.83 1456.28C347.125 1409.56 384.985 1366.25 426.854 1326.98C445.439 1309.6 464.895 1292.72 487.833 1281.52C533.785 1258.92 585.599 1261.86 633.932 1274.06C647.218 1277.43 660.274 1281.41 672.87 1285.83C726.836 1304.97 778.262 1330.61 826.009 1362.16C873.343 1393.35 916.838 1431.9 969.855 1458.35C1013.38 1480 1060.4 1498.94 1108.4 1506.39C1149.59 1512.72 1192.88 1509.18 1229 1489.06C1235.56 1485.43 1241.82 1481.29 1247.72 1476.68C1284.22 1448.09 1304.04 1403.72 1315.84 1358.1C1319.55 1343.6 1322.5 1328.97 1325.03 1314.52C1331.63 1276.72 1336.73 1238.25 1343.38 1201.59C1354.09 1142.59 1374.1 1090.69 1408.79 1044.77C1431.06 1015.28 1463.65 988.835 1502.49 982.555C1557.81 973.62 1608.42 997.132 1655.91 1011.27C1659.65 1012.37 1663.41 1013.44 1667.17 1014.47C1724.29 1029.78 1783.35 1032.33 1838.36 1012.19C1897.01 990.698 1950.39 938.544 1960.04 870.537" stroke="#CDCDCD" stroke-width="0.978593" stroke-miterlimit="10"/>
<path d="M323.123 1474.64C355.686 1428.81 392.976 1386.51 434.38 1348.43C452.633 1331.55 471.935 1315.24 494.412 1304.21C539.417 1282.03 589.977 1283.79 637.439 1294.23C650.521 1297.14 663.347 1300.64 675.839 1304.44C729.105 1321.52 780.077 1345.03 827.622 1374.44C874.726 1403.52 918.246 1439.89 970.444 1465.24C1015.24 1487.02 1063.24 1506.65 1112.45 1514.72C1154.58 1521.58 1199.05 1518.42 1236.25 1498.17C1243 1494.52 1249.45 1490.32 1255.53 1485.64C1293.18 1456.59 1313.46 1411.12 1325.77 1364.33C1329.66 1349.5 1332.79 1334.51 1335.53 1319.73C1342.72 1281.11 1348.76 1241.72 1356.67 1204.29C1369.47 1144 1392.51 1091.76 1429.79 1045.86C1452.31 1018.17 1484.06 992.945 1521.71 986.537C1575.47 977.424 1624.7 998.127 1670.89 1009.51C1674.55 1010.41 1678.18 1011.25 1681.87 1012.07C1737.29 1024.09 1793.79 1023.55 1845.58 1001.62C1900.75 978.317 1950 926.47 1957.73 860.377" stroke="#C7C7C7" stroke-width="0.978593" stroke-miterlimit="10"/>
<path d="M332.417 1492.97C364.263 1448.06 400.973 1406.79 441.882 1369.89C459.802 1353.53 479.002 1337.83 500.992 1326.98C545.05 1305.23 594.381 1305.59 640.948 1314.47C653.748 1317.03 666.548 1319.94 678.708 1323.36C731.263 1338.37 781.773 1359.75 829.108 1387.02C876.007 1413.98 919.552 1448.11 970.932 1472.44C1017.01 1494.29 1066.01 1514.64 1116.39 1523.34C1159.45 1530.72 1205.17 1527.94 1243.39 1507.57C1250.35 1503.86 1256.99 1499.59 1263.26 1494.8C1302.04 1465.32 1322.73 1418.78 1335.6 1370.86C1339.67 1355.55 1342.98 1340.23 1345.84 1325.25C1353.52 1285.75 1360.59 1245.47 1369.78 1207.31C1384.6 1145.71 1410.46 1093.07 1450.57 1047.22C1473.28 1021.28 1504.33 997.336 1540.71 990.826C1592.7 981.534 1640.81 999.404 1685.68 1008.13C1689.22 1008.82 1692.77 1009.46 1696.33 1010.05C1750.09 1018.86 1804.03 1015.15 1852.49 991.464C1904.23 966.319 1949.34 914.752 1955.15 850.625" stroke="#C2C2C2" stroke-width="0.978593" stroke-miterlimit="10"/>
<path d="M341.709 1511.27C372.831 1467.26 408.963 1427 449.383 1391.29C467.303 1375.46 486.042 1360.35 507.597 1349.68C550.656 1328.39 598.759 1327.44 644.455 1334.64C657.075 1336.63 669.517 1339.18 681.651 1342.12C733.491 1355.04 783.533 1374.29 830.643 1399.43C877.338 1424.27 920.935 1456.18 971.443 1479.46C1018.98 1501.36 1068.72 1522.48 1120.36 1531.79C1164.39 1539.71 1211.34 1537.31 1250.61 1516.81C1257.78 1513.13 1264.63 1508.86 1271.09 1504.05C1311.03 1474.05 1332.12 1426.41 1345.54 1377.32C1349.76 1361.8 1353.22 1346.13 1356.47 1330.68C1364.79 1290.35 1372.8 1249.2 1383.17 1210.27C1400.17 1147.39 1428.71 1094.22 1471.67 1048.52C1494.5 1024.27 1524.74 1001.65 1560.04 995.038C1610.37 985.567 1657.32 1000.6 1700.84 1006.65C1704.29 1007.11 1707.73 1007.55 1711.08 1007.93C1763.2 1013.5 1814.53 1006.53 1859.87 981.177C1908.15 954.219 1949.11 902.958 1953.02 840.771" stroke="#BCBCBC" stroke-width="0.978593" stroke-miterlimit="10"/>
<path d="M351.001 1529.68C381.397 1486.56 416.963 1447.31 456.908 1412.81C474.521 1397.49 493.107 1382.94 514.175 1372.5C556.287 1351.62 603.161 1349.52 647.961 1354.93C660.351 1356.47 672.614 1358.51 684.569 1360.99C735.701 1371.85 785.284 1389 832.179 1412.04C878.668 1434.74 922.342 1464.37 971.98 1486.69C1020.88 1508.61 1071.64 1530.49 1124.35 1540.45C1169.33 1548.87 1217.51 1546.86 1257.8 1526.23C1265.16 1522.48 1272.19 1518.13 1278.82 1513.21C1319.78 1482.73 1341.39 1434.07 1355.37 1383.78C1359.77 1367.9 1363.46 1351.87 1366.86 1336.12C1375.77 1294.92 1384.78 1252.87 1396.35 1213.18C1415.42 1149 1446.63 1095.21 1492.56 1049.8C1515.6 1027.18 1545.01 1005.94 1579.16 999.199C1627.8 989.55 1673.42 1001.75 1715.66 1005.12C1718.99 1005.38 1722.32 1005.58 1725.67 1005.76C1776.15 1008.11 1824.9 997.923 1866.98 970.863C1911.83 941.991 1948.65 890.934 1950.72 830.79" stroke="#B7B7B7" stroke-width="0.978593" stroke-miterlimit="10"/>
<path d="M360.269 1548.03C389.959 1505.82 424.959 1467.58 464.409 1434.25C481.792 1419.5 500.249 1405.51 520.729 1395.27C561.894 1374.85 607.513 1371.3 651.443 1375.15C663.629 1376.23 675.661 1377.71 687.488 1379.77C737.9 1388.57 787.019 1403.59 833.715 1424.47C880 1445.07 923.725 1472.42 972.518 1493.73C1022.8 1515.69 1074.46 1538.36 1128.35 1548.92C1174.25 1557.88 1223.68 1556.25 1265.02 1535.5C1272.57 1531.72 1279.78 1527.31 1286.58 1522.32C1328.79 1491.36 1350.71 1441.53 1365.25 1390.19C1369.83 1373.95 1373.7 1357.56 1377.33 1341.48C1386.8 1299.44 1396.71 1256.5 1409.61 1216.06C1430.73 1150.58 1464.52 1096.08 1513.52 1051.05C1536.43 1030.01 1565.36 1010.2 1598.31 1003.36C1645.31 993.532 1689.65 1002.95 1730.61 1003.59C1733.84 1003.59 1737.06 1003.59 1740.29 1003.59C1789.11 1002.72 1835.29 989.294 1874.15 960.524C1915.55 929.89 1948.24 879.242 1948.39 820.91" stroke="#B1B1B1" stroke-width="0.978593" stroke-miterlimit="10"/>
<path d="M369.561 1566.36C398.542 1525.05 432.987 1487.83 471.961 1455.72C488.911 1441.08 507.5 1428.43 527.359 1418.04C567.551 1398.03 611.839 1393.18 655.001 1395.4C666.956 1396.01 678.809 1397.11 690.457 1398.59C740.151 1405.28 788.81 1418.14 835.302 1436.88C881.382 1455.34 925.158 1480.28 973.055 1500.7C1024.74 1522.66 1077.27 1546.17 1132.36 1557.35C1179.21 1566.79 1229.87 1565.59 1272.24 1544.58C1279.99 1540.77 1287.4 1536.32 1294.39 1531.26C1337.75 1499.81 1360.05 1448.9 1375.15 1396.39C1379.92 1379.82 1383.96 1363.21 1387.8 1346.69C1397.84 1303.78 1408.69 1259.89 1422.87 1218.74C1446.04 1151.99 1482.32 1096.51 1534.49 1052.12C1557.53 1032.59 1585.69 1014.31 1617.51 1007.32C1662.82 997.31 1705.93 1003.92 1745.51 1001.85C1748.63 1001.7 1751.76 1001.47 1754.88 1001.22C1802.03 997.132 1845.66 980.487 1881.29 950.007C1919.23 917.586 1947.85 867.167 1945.93 810.801" stroke="#ABABAB" stroke-width="0.978593" stroke-miterlimit="10"/>
<path d="M378.88 1584.71C407.142 1544.3 441.006 1508.09 479.462 1477.16C496.242 1463.11 514.509 1450.92 533.939 1440.81C573.184 1421.23 616.346 1415.08 658.509 1415.62C670.234 1415.79 681.907 1416.41 693.376 1417.4C742.317 1422.02 790.482 1432.76 836.736 1449.36C882.585 1465.7 926.464 1488.45 973.491 1507.85C1026.59 1529.75 1079.99 1554.11 1136.23 1565.9C1184.05 1575.88 1235.94 1575.06 1279.33 1554.03C1287.28 1550.19 1294.89 1545.68 1302.07 1540.55C1346.56 1508.72 1369.37 1456.61 1384.96 1402.98C1389.9 1386.05 1394.15 1368.98 1398.2 1352.25C1408.79 1308.5 1420.6 1263.77 1436.06 1221.81C1461.27 1153.72 1499.93 1097.18 1555.35 1053.52C1578.39 1035.48 1605.99 1018.75 1636.58 1011.63C1680.26 1001.42 1722.11 1005.25 1760.44 1000.48C1763.46 1000.09 1766.48 999.659 1769.47 999.199C1814.99 991.873 1856.03 972.012 1888.41 939.821C1922.92 905.613 1947.29 855.578 1943.55 801.024" stroke="#A6A6A6" stroke-width="0.978593" stroke-miterlimit="10"/>
<path d="M388.147 1603.17C415.672 1563.57 448.979 1528.29 486.963 1498.51C503.565 1485.04 521.501 1473.31 540.493 1463.48C578.893 1444.31 620.698 1436.85 661.991 1435.76C673.511 1435.45 684.945 1435.57 696.295 1436.11C744.537 1438.61 792.269 1447.18 838.349 1461.64C883.994 1475.86 927.949 1496.26 974.029 1514.72C1028.56 1536.54 1082.83 1561.79 1140.25 1574.22C1189.02 1584.71 1242.14 1584.28 1286.58 1563.12C1294.72 1559.24 1302.52 1554.67 1309.88 1549.46C1355.52 1517.09 1378.64 1463.99 1394.84 1409.18C1399.96 1391.93 1404.39 1374.49 1408.67 1357.44C1419.83 1312.84 1432.58 1267.22 1449.29 1224.49C1476.58 1155.13 1517.52 1097.25 1576.29 1054.6C1599.33 1037.95 1626.34 1022.84 1655.65 1015.59C1697.64 1005.22 1738.24 1006.22 1775.26 998.74C1778.18 998.153 1781.09 997.515 1783.99 996.825C1827.39 986.67 1866.43 963.025 1895.48 929.303C1926.5 893.257 1946.68 843.401 1941.09 790.915" stroke="#A0A0A0" stroke-width="0.978593" stroke-miterlimit="10"/>
<path d="M397.44 1621.4C424.274 1582.78 457.013 1548.59 494.464 1520.08C510.889 1507.19 528.504 1495.89 547.072 1486.33C584.397 1467.62 625.101 1458.78 665.498 1456.1C676.787 1455.31 688.051 1454.98 699.213 1455.01C746.736 1455.47 794.007 1461.96 839.885 1474.33C885.325 1486.41 929.485 1504.45 974.618 1522.02C1030.55 1543.74 1085.7 1569.98 1144.32 1582.93C1194.01 1593.96 1248.38 1593.9 1293.85 1572.59C1302.19 1568.7 1310.18 1564.09 1317.71 1558.8C1364.51 1525.95 1388.03 1471.75 1404.75 1415.85C1410.02 1398.23 1414.66 1380.46 1419.14 1363.08C1430.89 1317.61 1444.58 1271.18 1462.66 1227.63C1491.99 1156.96 1535.16 1097.56 1597.39 1056.08C1621.11 1039.86 1647.35 1027.66 1675.06 1019.98C1715.38 1009.46 1754.73 1007.62 1790.44 997.438C1793.25 996.647 1796.04 995.779 1798.84 994.885C1840.68 981.301 1877.11 954.792 1902.85 919.194C1930.44 881.336 1946.57 831.785 1938.97 781.214" stroke="#9B9B9B" stroke-width="0.978593" stroke-miterlimit="10"/>
<path d="M406.708 1639.75C432.845 1602.02 465.027 1568.84 501.965 1541.52C518.218 1529.24 535.512 1518.39 553.652 1509.1C589.835 1491.4 628.901 1480.3 669.005 1476.32C680.064 1475.07 691.123 1474.28 702.157 1473.77C748.952 1472.15 795.761 1476.51 841.447 1486.74C886.656 1496.69 930.791 1512.27 975.156 1529.04C1032.53 1550.61 1088.51 1577.72 1148.29 1591.38C1198.93 1602.94 1254.53 1603.27 1301.04 1581.83C1309.58 1577.91 1317.75 1573.24 1325.47 1567.89C1373.39 1534.55 1397.32 1479.26 1414.66 1422.2C1420.11 1404.33 1424.9 1386.1 1429.63 1368.39C1441.95 1322.08 1456.59 1274.67 1475.71 1230.54C1507.1 1158.55 1552.51 1097.41 1618.13 1057.33C1641.77 1042.85 1667.3 1031.68 1694 1024.14C1732.66 1013.44 1770.8 1008.82 1805.16 995.906C1807.87 994.885 1810.59 993.838 1813.25 992.715C1853.58 975.669 1887.44 946.285 1909.94 908.804C1934.08 869.108 1946.06 819.838 1936.56 771.232" stroke="#959595" stroke-width="0.978593" stroke-miterlimit="10"/>
<path d="M416 1658.11C441.414 1621.27 473.027 1589.09 509.44 1562.99C557.467 1527.81 613.467 1505.01 672.461 1496.62C683.29 1494.91 694.17 1493.6 705.024 1492.69C751.088 1488.97 797.44 1491.2 842.931 1499.32C887.936 1507.16 932.147 1520.43 975.616 1536.24C1034.5 1557.6 1091.28 1585.71 1152.26 1600.06C1203.84 1612.13 1260.67 1612.82 1308.21 1591.28C1316.95 1587.33 1325.32 1582.61 1333.22 1577.18C1382.3 1543.36 1406.64 1486.99 1424.51 1428.76C1430.14 1410.46 1435.14 1391.98 1440.05 1373.95C1452.85 1326.78 1468.54 1278.5 1489.05 1233.55C1522.51 1160.28 1569.89 1097.13 1639.17 1058.73C1662.73 1045.95 1687.62 1035.79 1713.41 1028.43C1750.4 1017.55 1787.24 1010.1 1820.34 994.502C1822.9 993.277 1825.46 991.949 1828.02 990.673C1866.69 970.173 1897.87 938.007 1917.11 898.772C1937.79 857.288 1945.65 808.274 1934.21 761.608" stroke="#909090" stroke-width="0.978593" stroke-miterlimit="10"/>
<path d="M425.292 1676.46C482.355 1592.53 576.332 1537.05 676.019 1516.78C775.705 1496.51 880.281 1509.64 976.204 1543.26C1036.49 1564.39 1094.12 1593.57 1156.25 1608.46C1218.38 1623.34 1288.29 1622.22 1341.03 1586.22C1407 1541.16 1429.02 1456.03 1450.55 1379.26C1485.95 1252.95 1542.71 1118.65 1660.13 1059.83C1718.71 1030.55 1787.24 1023.2 1842.64 988.35C1919.44 940 1957.84 838.244 1931.85 751.448" stroke="#8A8A8A" stroke-width="0.978593" stroke-miterlimit="10"/>
</g>
<g style="mix-blend-mode:multiply">
<path d="M-676.429 -156.131C-627.327 -203.016 -575.454 -246.926 -521.088 -287.626C-496.921 -305.7 -471.629 -323.366 -442.521 -331.56C-368.128 -352.289 -292.352 -305.088 -235.52 -253.087C-182.986 -205.113 -136.357 -151.082 -96.6143 -92.1313C-57.3183 -33.7738 -24.1662 30.0977 27.6994 77.7078C79.565 125.318 157.517 153.68 221.517 124.195C259.584 106.657 287.104 71.0194 302.208 32.0123C317.312 -6.99478 321.229 -49.3971 322.125 -91.2123C323.149 -139.078 321.024 -189.598 343.962 -231.617C367.719 -275.015 418.355 -302.56 467.891 -298.757C538.419 -293.319 590.387 -234.17 641.741 -185.692C706.97 -124.144 786.458 -72.6278 875.52 -61.5485C964.583 -50.4693 1063.71 -87.9958 1105.61 -167.235" stroke="#8A8A8A" stroke-width="0.978593" stroke-miterlimit="10"/>
<path d="M-670.72 -136.423C-622.495 -182.526 -571.38 -225.526 -517.683 -265.161C-493.85 -282.776 -468.864 -300.007 -440.269 -307.972C-382.797 -323.953 -324.48 -299.829 -274.663 -264.574C-261.255 -255.047 -248.36 -244.822 -236.032 -233.94C-183.796 -188.163 -137.217 -136.342 -97.2802 -79.5715C-57.8562 -23.3584 -24.5762 38.6241 26.931 84.7536C55.8078 110.639 91.827 131.317 129.331 140.711C161.997 148.88 196.019 148.37 226.893 134.636C232.385 132.189 237.705 129.374 242.816 126.211C274.227 106.759 296.96 74.6955 310.784 40.1047C315.152 29.0171 318.795 17.6588 321.689 6.1012C329.369 -23.971 332.595 -55.1665 334.618 -85.979C337.894 -134.763 339.558 -185.028 364.339 -226.639C389.12 -268.25 437.581 -294.749 485.99 -291.251C554.905 -286.299 606.157 -230.137 656.717 -184.543C660.685 -180.969 664.73 -177.396 668.826 -173.898C730.598 -120.876 803.84 -78.5503 884.506 -70.4324C970.598 -61.7528 1065.5 -99.7387 1105.18 -177.396" stroke="#909090" stroke-width="0.978593" stroke-miterlimit="10"/>
<path d="M-664.807 -116.689C-617.471 -162.035 -567.112 -204.134 -514.074 -242.697C-490.547 -259.826 -465.92 -276.573 -437.811 -284.384C-381.363 -300.11 -324.019 -277.492 -274.791 -244.126C-261.498 -235.089 -248.681 -225.375 -236.391 -215.024C-184.526 -171.333 -138.075 -121.627 -98.0227 -66.9605C-58.4195 -12.9429 -24.9346 47.125 26.163 91.9015C56.3198 118.144 93.1837 139.588 131.737 149.799C165.248 158.658 200.397 158.683 232.32 145.051C238.016 142.624 243.533 139.801 248.832 136.601C281.446 116.868 304.819 83.809 319.334 48.1972C323.939 36.8171 327.829 25.1622 330.982 13.3001C339.328 -17.5124 343.782 -49.4737 347.136 -80.7458C352.665 -130.424 358.041 -180.306 384.717 -221.636C410.061 -260.796 456.806 -286.86 504.089 -283.721C571.392 -279.228 621.849 -226.078 671.667 -183.369C675.609 -179.965 679.586 -176.647 683.596 -173.413C744.32 -123.837 815.539 -85.1621 893.516 -79.2907C976.537 -73.0362 1067.31 -111.482 1104.77 -187.581" stroke="#959595" stroke-width="0.978593" stroke-miterlimit="10"/>
<path d="M-658.97 -97.0072C-612.494 -141.584 -562.873 -182.781 -510.49 -220.283C-487.271 -236.927 -462.976 -253.138 -435.379 -260.847C-379.955 -276.317 -323.584 -255.18 -274.919 -223.602C-261.781 -215.067 -249.092 -205.865 -236.903 -196.031C-185.337 -154.521 -138.928 -107.016 -98.6626 -54.5283C-58.8802 -2.55287 -25.2417 55.6004 25.3951 98.8962C56.6783 125.624 94.515 147.859 134.118 158.887C168.473 168.435 204.774 169.099 237.722 155.492C243.622 153.067 249.337 150.218 254.822 146.966C288.64 127.003 312.627 92.9481 327.91 56.2896C332.719 44.6215 336.856 32.6889 340.301 20.5502C349.337 -11.0027 354.841 -43.6788 359.629 -75.4614C367.437 -126.058 376.422 -175.685 405.094 -216.581C431.027 -253.623 476.16 -278.998 522.24 -276.164C587.929 -272.156 637.747 -221.993 686.694 -182.195C690.551 -179.063 694.46 -175.966 698.419 -172.903C758.093 -126.824 827.366 -91.7484 902.374 -88.1489C982.323 -84.3197 1069 -123.225 1104.2 -197.767" stroke="#9B9B9B" stroke-width="0.978593" stroke-miterlimit="10"/>
<path d="M-653.159 -77.2484C-607.589 -121.059 -558.749 -161.356 -507.06 -197.793C-484.148 -213.977 -460.212 -229.652 -433.102 -237.234C-378.702 -252.551 -323.303 -232.843 -275.201 -203.051C-262.042 -194.933 -249.422 -186.075 -237.492 -176.962C-186.264 -137.619 -139.956 -92.2885 -99.5592 -41.9429C-59.5464 7.88812 -25.6008 64.0246 24.652 105.942C57.1384 133.129 95.8456 156.13 136.498 167.975C171.673 178.187 209.126 179.463 243.122 165.933C249.224 163.514 255.136 160.647 260.812 157.356C295.858 137.112 320.434 102.062 336.46 64.4076C341.505 52.4158 345.897 40.1614 349.618 27.698C359.372 -4.59518 365.951 -37.9861 372.146 -70.2792C382.182 -121.795 394.726 -171.039 425.471 -211.629C451.89 -246.5 495.282 -271.11 540.287 -268.633C604.287 -265.11 653.465 -217.934 701.567 -181.021C705.356 -178.11 709.247 -175.226 713.087 -172.418C771.711 -129.785 839.039 -98.3858 911.18 -97.0328C987.98 -95.6032 1070.62 -134.968 1103.59 -207.927" stroke="#A0A0A0" stroke-width="0.978593" stroke-miterlimit="10"/>
<path d="M-647.347 -57.5407C-602.651 -100.581 -554.565 -139.979 -503.552 -175.353C-480.973 -191.053 -457.472 -206.191 -430.746 -213.646C-377.37 -228.605 -322.97 -210.48 -275.405 -182.501C-262.374 -174.843 -249.805 -166.521 -238.029 -157.918C-187.123 -120.728 -140.882 -77.5741 -100.301 -29.3831C-60.1088 18.3036 -25.7792 72.4234 23.8848 113.013C57.6256 140.609 97.28 164.402 138.88 177.063C174.899 187.99 213.504 189.828 248.525 176.349C254.832 173.939 260.951 171.064 266.829 167.746C303.053 147.323 328.269 111.175 345.011 72.5C350.282 60.2061 354.93 47.656 358.938 34.897C369.408 1.86347 377.011 -32.2422 384.538 -65.0459C396.8 -117.43 412.928 -166.316 445.85 -206.625C472.627 -239.404 514.509 -263.247 558.49 -261.103C620.954 -258.039 669.337 -213.85 716.697 -179.821C720.435 -177.149 724.207 -174.511 728.013 -171.907C785.613 -132.772 850.893 -104.972 920.243 -105.891C994.074 -106.861 1072.49 -146.736 1103.23 -218.215" stroke="#A6A6A6" stroke-width="0.978593" stroke-miterlimit="10"/>
<path d="M-641.536 -37.8328C-597.712 -80.0967 -550.379 -118.586 -500.045 -152.888C-477.773 -168.205 -454.477 -182.731 -428.365 -190.083C-376.013 -204.813 -322.586 -188.194 -275.584 -162.002C-262.784 -154.88 -250.291 -147.042 -238.515 -139.027C-187.93 -103.963 -141.772 -62.9408 -101.043 -16.8486C-60.6721 28.7192 -26.0097 80.7712 23.0399 119.983C58.1119 148.064 98.5343 172.673 141.261 186.177C178.125 197.741 217.856 200.218 253.901 186.79C260.4 184.374 266.707 181.472 272.768 178.11C310.221 157.356 336 120.289 353.536 80.5925C359.117 67.8284 363.776 55.0643 368.179 42.0705C379.366 8.32217 388.07 -26.4983 397.107 -59.8126C411.546 -113.167 431.002 -161.619 466.227 -201.622C493.261 -232.256 533.734 -255.231 576.486 -253.546C637.338 -250.993 685.005 -209.765 731.571 -178.646C735.232 -176.094 738.944 -173.771 742.681 -171.422C799.232 -135.733 862.72 -111.584 929.05 -114.877C999.808 -118.247 1074.1 -158.53 1102.62 -228.401" stroke="#ABABAB" stroke-width="0.978593" stroke-miterlimit="10"/>
<path d="M-635.725 -18.0997C-592.78 -59.6045 -546.199 -97.1956 -496.537 -130.424C-474.573 -145.179 -451.635 -159.296 -426.035 -166.495C-374.681 -180.97 -322.253 -165.857 -275.84 -141.452C-263.04 -134.815 -250.777 -127.488 -239.053 -119.881C-188.783 -87.0303 -142.691 -48.2253 -101.785 -4.31445C-61.2351 39.0835 -26.2143 89.1187 22.3489 127.13C58.6241 155.518 99.8401 180.918 143.642 195.265C181.351 207.519 222.234 210.582 259.354 197.231C266.055 194.826 272.56 191.907 278.81 188.5C317.466 167.49 343.834 129.402 362.138 88.6848C367.949 75.7164 372.992 62.4673 377.498 49.2692C389.453 14.7806 399.36 -20.7546 409.6 -54.5795C426.291 -108.852 449.05 -156.922 486.554 -196.593C513.792 -225.389 552.96 -247.496 594.586 -246.015C653.824 -243.897 700.774 -205.706 746.547 -177.472C750.131 -175.251 753.792 -173.056 757.453 -170.937C812.954 -138.72 874.445 -118.17 937.958 -123.633C1005.64 -129.428 1075.84 -170.171 1102.11 -238.51" stroke="#B1B1B1" stroke-width="0.978593" stroke-miterlimit="10"/>
<path d="M-629.76 1.60822C-587.741 -39.1288 -541.961 -75.8222 -493.03 -107.984C-471.373 -122.255 -448.768 -135.836 -423.654 -142.932C-373.35 -157.152 -321.945 -143.417 -276.045 -120.927C-263.449 -114.749 -251.238 -107.959 -239.59 -100.862C-189.598 -70.1765 -143.531 -33.5474 -102.4 8.22004C-61.6702 49.5757 -26.2654 97.5687 21.7346 134.202C59.1362 162.972 101.197 189.189 145.92 204.353C184.448 217.296 226.483 220.972 264.653 207.646C271.557 205.262 278.259 202.334 284.698 198.89C324.583 177.6 351.539 138.541 370.586 96.7774C376.653 83.5027 381.927 69.9472 386.765 56.4683C399.386 21.2394 410.266 -15.0106 422.042 -49.3461C441.114 -104.538 467.047 -152.276 506.88 -191.462C534.144 -218.317 572.109 -239.506 612.583 -238.331C670.311 -236.825 716.544 -201.673 761.498 -176.145C765.056 -174.153 768.615 -172.213 772.224 -170.299C826.675 -141.554 886.221 -124.654 946.867 -132.389C1011.51 -140.584 1077.56 -181.786 1101.59 -248.517" stroke="#B7B7B7" stroke-width="0.978593" stroke-miterlimit="10"/>
<path d="M-624.077 21.3159C-582.887 -18.6542 -537.814 -54.442 -489.523 -85.5196C-468.173 -99.3049 -446.003 -112.375 -421.299 -119.344C-372.019 -133.308 -321.587 -121.08 -276.249 -100.403C-263.782 -94.7098 -251.699 -88.4299 -240.102 -81.8436C-190.479 -53.3079 -144.529 -18.8459 -103.27 20.7798C-62.3103 59.9911 -26.4703 105.712 20.8385 141.273C59.6737 170.375 102.528 197.435 148.403 213.441C187.776 227.073 230.963 231.311 270.157 218.087C277.259 215.726 284.16 212.798 290.791 209.331C331.751 187.76 359.45 147.706 379.264 104.921C385.536 91.3398 391.066 77.4779 396.186 63.7182C409.523 27.749 421.478 -9.21584 434.586 -44.0618C455.782 -100.224 484.839 -147.63 527.283 -186.535C554.522 -211.527 591.283 -231.694 630.707 -230.877C686.746 -229.703 732.237 -197.512 776.397 -175.047C779.879 -173.286 783.386 -171.55 786.919 -169.941C840.32 -144.668 897.92 -131.394 955.699 -141.375C1017.14 -151.995 1079.19 -193.657 1100.98 -258.805" stroke="#BCBCBC" stroke-width="0.978593" stroke-miterlimit="10"/>
<path d="M-618.265 41.0493C-577.939 1.84146 -533.615 -33.0578 -486.016 -63.0802C-464.998 -76.3804 -443.059 -88.9148 -418.944 -95.7819C-370.688 -109.49 -321.254 -98.7686 -276.454 -79.8522C-264.14 -74.7466 -252.134 -68.9006 -240.614 -62.8249C-191.318 -36.4416 -145.437 -4.15643 -103.987 33.3143C-63.0268 70.4068 -26.7004 113.983 20.0708 148.319C60.2116 177.804 103.885 205.732 150.784 222.529C191.002 236.851 235.264 241.727 275.559 228.528C282.868 226.138 289.974 223.167 296.807 219.645C339.098 197.844 367.258 156.769 387.815 112.962C394.317 99.0749 400.128 84.8812 405.479 70.8662C419.533 34.1567 432.615 -3.49739 447.156 -38.905C470.631 -95.9095 502.682 -143.162 547.712 -181.608C574.9 -204.787 610.663 -223.908 648.884 -223.397C703.309 -222.708 748.109 -193.504 791.45 -173.949C794.88 -172.418 798.311 -170.911 801.69 -169.456C854.068 -147.655 909.696 -138.031 964.608 -150.285C1023.1 -163.278 1080.91 -205.425 1100.47 -269.042" stroke="#C2C2C2" stroke-width="0.978593" stroke-miterlimit="10"/>
<path d="M-612.454 60.757C-573.001 22.3129 -529.423 -11.6828 -482.508 -40.6155C-461.798 -53.3796 -440.217 -65.4545 -416.588 -72.1939C-369.356 -85.6728 -320.895 -76.4316 -276.684 -59.4298C-264.498 -54.7326 -252.594 -49.4738 -241.151 -43.8831C-192.156 -19.6278 -146.339 10.5431 -104.729 45.9506C-63.4872 80.8221 -26.8024 122.229 19.3032 155.39C60.7752 185.181 105.217 214.105 153.166 231.617C194.126 246.628 239.694 252.04 280.961 238.944C288.468 236.564 295.771 233.585 302.798 230.034C346.318 207.953 375.066 165.882 396.366 121.055C403.124 106.861 409.166 92.3864 414.798 78.0651C429.569 40.5897 443.726 2.24632 459.674 -33.6463C485.402 -91.5698 520.372 -138.695 568.091 -176.604C595.124 -198.048 629.915 -216.02 666.958 -215.867C719.796 -215.662 763.879 -189.419 806.426 -172.775C809.78 -171.448 813.159 -170.222 816.539 -168.971C867.841 -150.617 921.601 -144.592 973.594 -159.117C1029.04 -174.434 1082.73 -217.143 1100.03 -279.1" stroke="#C7C7C7" stroke-width="0.978593" stroke-miterlimit="10"/>
<path d="M-606.72 80.4904C-568.129 42.7802 -525.268 9.67713 -479.001 -18.1506C-458.521 -30.5062 -437.35 -42.0194 -414.233 -48.6313C-368 -61.8293 -320.537 -54.0943 -276.889 -38.8029C-264.832 -34.5652 -253.056 -29.8425 -241.664 -24.7624C-193.008 -2.7325 -147.264 25.2023 -105.472 58.4085C-63.9998 91.2377 -26.931 130.449 18.5602 162.461C61.4402 192.559 106.547 222.274 155.571 240.705C197.427 256.405 244.045 262.481 286.362 249.385C294.071 247.017 301.571 244.02 308.787 240.425C353.511 218.087 382.848 175.021 404.941 129.173C411.904 114.647 418.202 99.8407 424.115 85.2386C439.603 46.9463 454.835 8.01582 472.167 -28.4129C500.327 -87.1278 537.959 -134.355 588.467 -171.575C615.296 -191.334 649.139 -208.131 685.056 -208.31C736.256 -208.565 779.648 -185.335 821.402 -171.55C824.678 -170.477 828.006 -169.431 831.309 -168.461C881.587 -153.578 933.351 -151.204 982.503 -168.001C1034.88 -185.871 1084.44 -228.886 1099.52 -289.362" stroke="#CDCDCD" stroke-width="0.978593" stroke-miterlimit="10"/>
<path d="M-600.806 100.198C-563.104 63.2634 -521.022 31.0554 -475.494 4.28868C-455.398 -7.58194 -434.534 -18.5591 -411.878 -25.0432C-366.669 -38.0115 -320.179 -31.7572 -277.094 -18.2783C-265.19 -14.5256 -253.44 -10.2113 -242.176 -5.74391C-193.85 14.1245 -148.181 39.8919 -106.214 70.9683C-64.5886 101.653 -27.0078 138.669 17.9202 169.507C61.9266 199.911 107.879 230.545 157.952 249.793C200.653 266.183 248.423 272.769 291.789 259.826C299.707 257.455 307.413 254.432 314.829 250.789C360.755 228.197 390.707 184.135 413.543 137.265C420.762 122.433 427.29 107.32 433.485 92.4375C449.69 53.507 466.099 13.7852 484.685 -23.1797C515.021 -82.8646 555.52 -130.194 608.845 -166.546C635.443 -184.697 668.365 -200.243 703.155 -200.754C752.768 -201.494 795.315 -181.25 836.275 -170.375C839.527 -169.533 842.752 -168.716 846.004 -167.95C895.232 -156.565 945.05 -157.739 991.335 -176.859C1040.64 -197.103 1086.05 -240.68 1098.85 -299.548" stroke="#D2D2D2" stroke-width="0.978593" stroke-miterlimit="10"/>
<path d="M-594.995 119.982C-558.196 83.8216 -516.9 52.5155 -472.115 26.8299C-452.352 15.4188 -431.77 4.97781 -409.651 -1.25108C-365.466 -14.0152 -320.051 -9.24141 -277.427 2.47604C-265.651 5.71812 -254.08 9.41971 -242.842 13.5042C-194.865 31.1915 -149.287 54.7742 -107.162 83.7068C-65.1519 112.069 -27.1103 146.838 17.024 176.578C62.5152 207.212 109.184 238.816 160.384 258.881C203.904 275.96 252.826 283.261 297.242 270.267C305.346 267.889 313.241 264.849 320.845 261.179C367.974 238.203 398.515 193.248 422.118 145.357C429.542 130.219 436.326 114.724 442.778 99.6364C459.648 59.9656 477.158 19.5289 497.178 -17.8699C529.92 -78.5505 572.902 -126.11 629.222 -161.543C655.565 -178.136 687.591 -192.381 721.383 -193.223C769.383 -194.423 811.315 -177.166 851.456 -169.201C854.631 -168.563 857.805 -167.976 860.979 -167.465C909.158 -159.526 957.03 -164.427 1000.45 -185.718C1046.68 -208.387 1088 -252.372 1098.62 -309.708" stroke="#D8D8D8" stroke-width="0.978593" stroke-miterlimit="10"/>
<path d="M-589.184 139.639C-553.208 104.219 -512.607 73.7964 -468.48 49.1929C-449.114 37.8362 -428.497 28.7475 -407.04 22.1074C-363.878 9.64968 -319.334 12.8918 -277.402 22.7967C-265.754 25.5538 -254.362 28.7448 -243.098 32.3187C-195.429 47.8693 -149.899 69.3095 -107.571 96.1392C-65.7153 122.535 -27.1616 155.007 16.256 183.624C63.1296 214.437 110.566 247.087 162.714 268.046C207.078 285.916 257.152 293.574 302.592 280.81C310.901 278.464 318.995 275.415 326.784 271.697C375.117 248.568 406.144 202.49 430.618 153.578C438.298 138.261 445.312 122.408 452.045 106.963C469.683 66.3734 488.294 25.2729 509.67 -12.7641C544.563 -74.2615 590.259 -122.306 649.6 -156.59C675.686 -171.652 706.842 -184.543 739.354 -185.718C785.741 -187.403 826.957 -173.158 866.304 -168.078C869.402 -167.669 872.525 -167.312 875.648 -167.005C922.777 -162.564 968.678 -171.064 1009.23 -194.653C1052.42 -219.696 1089.61 -264.166 1097.98 -319.945" stroke="#DEDEDE" stroke-width="0.978593" stroke-miterlimit="10"/>
<path d="M-583.348 159.347C-548.25 124.678 -508.394 95.1533 -464.973 71.6576C-445.928 60.8435 -425.755 52.1378 -404.813 45.6954C-362.676 33.4929 -319.104 35.2033 -277.735 43.3213C-266.215 45.5933 -254.874 48.4269 -243.738 51.3371C-196.406 64.6791 -150.949 83.9173 -108.442 108.597C-66.2789 132.9 -27.2389 163.151 15.5131 190.696C63.7691 221.789 111.897 255.282 165.094 277.083C210.303 295.489 261.504 304.015 307.993 291.123C316.503 288.776 324.794 285.701 332.774 281.933C382.335 258.575 414.079 211.501 439.167 161.542C447.078 145.791 454.348 129.76 461.363 114.034C479.718 72.8829 499.404 31.0167 522.188 -7.47985C559.308 -69.8963 607.564 -118.579 669.977 -151.535C695.782 -165.168 726.067 -176.63 757.452 -178.136C802.227 -180.28 842.726 -169.022 881.279 -166.827C884.326 -166.648 887.372 -166.546 890.419 -166.469C936.499 -165.474 980.454 -177.625 1018.14 -203.46C1058.25 -230.928 1091.33 -275.858 1097.5 -330.08" stroke="#E3E3E3" stroke-width="0.978593" stroke-miterlimit="10"/>
<path d="M-577.537 179.08C-543.299 145.155 -504.178 116.512 -461.466 94.0968C-442.733 83.8517 -423.005 75.5294 -402.586 69.2579C-361.473 57.3107 -318.874 57.5149 -278.068 63.8459C-266.701 65.6328 -255.48 67.8113 -244.404 70.3811C-197.355 81.5126 -151.918 98.5661 -109.185 121.131C-66.8422 143.315 -27.2646 171.294 14.745 197.716C64.409 228.988 113.228 263.553 167.475 286.12C213.555 305.215 265.881 314.354 313.395 301.437C322.102 299.089 330.59 295.997 338.764 292.196C389.529 268.556 421.887 220.487 447.743 169.507C455.884 153.45 463.385 137.112 470.783 121.004C489.83 79.1373 510.617 36.5818 534.783 -2.45086C574.182 -65.7608 624.895 -115.311 690.457 -146.736C716.057 -158.964 745.394 -168.946 775.654 -170.784C818.841 -173.337 858.598 -165.168 896.358 -165.857C899.327 -165.857 902.297 -166.01 905.292 -166.189C949.813 -168.367 992.486 -184.602 1027.15 -212.548C1064.19 -242.416 1093.14 -287.805 1097.06 -340.47" stroke="#E9E9E9" stroke-width="0.978593" stroke-miterlimit="10"/>
<path d="M-571.725 198.788C-538.341 165.624 -499.953 137.878 -457.958 116.562C-439.472 106.841 -420.099 98.8999 -400.102 92.846C-359.987 81.1285 -318.387 79.75 -278.144 84.3961C-266.905 85.647 -255.769 87.3574 -244.864 89.5018C-198.173 98.4422 -152.818 113.292 -109.901 133.691C-67.4046 153.731 -27.3406 179.412 13.9778 204.813C65.1778 236.238 114.586 271.875 169.856 295.259C216.73 315.043 270.234 324.77 318.797 311.98C327.713 309.652 336.407 306.551 344.781 302.713C396.749 278.793 429.671 229.728 456.295 177.625C464.666 161.262 472.423 144.592 480 128.305C499.763 85.6981 521.651 42.4278 547.2 2.88461C588.826 -61.3443 641.92 -111.992 710.733 -141.631C736.986 -153.267 764.984 -160.504 793.6 -163.049C835.175 -166.163 874.215 -160.879 911.155 -164.478C914.074 -164.751 916.992 -165.082 919.911 -165.474C963.518 -171.332 1004.13 -190.845 1035.9 -221.202C1069.88 -253.495 1094.78 -299.344 1096.37 -350.426" stroke="#EEEEEE" stroke-width="0.978593" stroke-miterlimit="10"/>
<path d="M-565.914 218.496C-533.381 186.09 -495.724 159.242 -454.451 139.027C-436.248 129.859 -417.274 122.3 -397.747 116.434C-358.656 104.972 -318.029 102.087 -278.374 104.921C-267.264 105.687 -256.23 106.887 -245.299 108.418C-198.98 115.241 -153.727 127.946 -110.643 146.226C-67.9679 164.172 -27.3919 187.505 13.2097 211.884C65.7665 243.411 115.917 280.146 172.237 304.347C219.955 324.77 274.637 335.16 324.224 322.421C333.31 320.086 342.175 316.969 350.72 313.103C403.891 288.928 437.427 238.842 464.794 185.82C473.421 169.15 481.408 152.174 489.242 135.606C509.722 92.2078 532.762 48.2738 559.642 8.22008C603.546 -56.9279 659.149 -108.929 731.162 -136.499C757.036 -146.508 784.172 -152.907 811.802 -155.518C851.763 -159.092 890.087 -156.794 926.234 -163.176C929.101 -163.687 931.942 -164.274 934.784 -164.887C977.458 -174.429 1016 -197.221 1044.86 -229.984C1075.79 -264.676 1096.47 -310.985 1095.91 -360.509" stroke="#F4F4F4" stroke-width="0.978593" stroke-miterlimit="10"/>
<path d="M-560.076 238.229C-528.41 206.557 -491.488 180.586 -450.943 161.466C-433.023 152.86 -414.447 145.681 -395.391 139.997C-357.455 129.093 -318.039 124.183 -278.579 125.445C-267.596 125.726 -256.691 126.416 -245.836 127.437C-199.859 132.092 -154.672 142.62 -111.385 158.76C-68.5306 174.587 -27.4426 195.597 12.4678 218.955C66.5606 250.559 117.249 288.469 174.618 313.435C223.258 334.598 278.964 345.524 329.626 332.862C338.933 330.541 348.015 327.397 356.762 323.468C411.137 299.037 445.287 247.981 473.421 193.912C482.253 176.936 490.497 159.653 498.612 142.856C519.834 98.7685 543.898 54.0686 572.212 13.5043C618.292 -52.5372 676.378 -106.146 751.412 -131.445C776.868 -139.835 803.172 -145.408 829.85 -148.064C868.25 -152.123 905.806 -152.837 941.159 -162.206C943.95 -162.947 946.74 -163.738 949.505 -164.606C991.261 -177.783 1027.76 -203.806 1053.77 -238.944C1081.63 -276.037 1098.22 -322.83 1095.4 -370.797" stroke="#F9F9F9" stroke-width="0.978593" stroke-miterlimit="10"/>
<path d="M-554.265 257.835C-482.969 185.641 -380.441 148.064 -278.784 145.996C-177.126 143.928 -76.5435 175.66 11.6997 226.001C67.1749 257.656 118.58 296.689 176.999 322.523C235.418 348.358 304.385 359.795 362.753 333.858C435.815 301.412 472.832 221.661 507.93 150.055C565.607 32.1145 645.581 -89.7827 771.841 -126.492C834.74 -144.77 903.476 -139.665 964.276 -163.993C1048.58 -197.741 1104.67 -290.919 1094.84 -380.983" stroke="white" stroke-width="0.978593" stroke-miterlimit="10"/>
</g>
<g style="mix-blend-mode:multiply">
<path opacity="0.65" d="M-108.442 1304.49C-119.194 1217.7 -33.2807 1144.35 53.3753 1130.9C140.031 1117.45 226.969 1145.25 312.857 1163.09C398.745 1180.93 495.334 1186.81 567.065 1136.46C658.764 1072.11 679.961 936.732 774.425 876.281C847.948 829.182 943.667 843.273 1018.98 878.323C1061.58 898.133 1097.8 931.473 1138.51 954.704C1323.16 1060.01 1335.63 1275.24 1492.48 1307.32C1662.21 1342.12 1754.37 1259.54 1786.42 1202.38C1827.38 1129.04 1895.96 938.672 1728.2 806.385C1660.03 752.648 1592.75 695.363 1542.63 624.598C1467.54 518.682 1468.06 356.706 1564.06 269.169C1629.85 209.178 1730.89 187.224 1775.59 110.307C1805.62 58.6127 1801.52 -8.04144 1775.59 -61.9825C1749.66 -115.924 1704.96 -158.658 1656.04 -193.249" stroke="#8A8A8A" stroke-miterlimit="10"/>
<path opacity="0.65" d="M-104.551 1308.91C-111.975 1219.56 -26.5217 1142.46 62.7199 1127.1C149.76 1112.11 238.208 1139.73 324.096 1159.41C408.96 1178.89 503.296 1187.7 574.669 1141.95C666.009 1083.39 691.686 954.882 785.92 895.223C860.979 847.97 955.161 856.752 1032.29 887.386C1076.61 905 1115.88 936.425 1158.5 959.962C1339.26 1059.83 1354.24 1268.06 1507.58 1299.72C1672.63 1333.7 1764.3 1255.55 1797.61 1199.19C1839.82 1127.71 1905.13 944.365 1746.61 813.711C1681.25 759.796 1616.46 701.387 1567.13 631.108C1494.27 527.668 1493.61 371.486 1584.2 284.69C1646.9 224.648 1744.31 200.192 1788.8 124.271C1819.34 72.3469 1817.47 6.66282 1794.92 -47.6612C1772.13 -102.623 1730.56 -147.681 1683.66 -184.824" stroke="#909090" stroke-miterlimit="10"/>
<path opacity="0.65" d="M-100.66 1313.22C-104.756 1221.45 -19.764 1140.52 72.0632 1123.27C159.641 1106.83 249.446 1134.17 335.334 1155.74C419.199 1176.8 511.026 1188.57 582.297 1147.39C673.254 1094.65 703.257 972.803 797.516 914.165C873.983 866.555 966.86 870.154 1045.68 896.448C1091.76 911.765 1134 941.352 1178.6 965.221C1355.24 1059.88 1372.75 1260.86 1522.79 1291.98C1683.07 1325.17 1774.18 1251.47 1808.77 1196.02C1852.11 1126.53 1914.32 949.981 1765.04 820.757C1702.45 766.612 1640.14 707.182 1591.63 637.286C1520.97 536.373 1519.15 385.884 1604.43 299.931C1664 239.965 1757.72 213.033 1802.03 138.107C1833.09 85.9789 1833.45 21.1883 1814.12 -33.4931C1794.41 -89.2722 1756.31 -136.729 1711.28 -176.451" stroke="#959595" stroke-miterlimit="10"/>
<path opacity="0.65" d="M-96.7687 1317.56C-97.5367 1223.29 -13.0055 1138.61 81.4073 1119.44C169.446 1101.57 260.607 1128.58 346.572 1152.06C429.414 1174.68 518.86 1189.44 589.9 1152.85C680.498 1105.91 714.93 990.852 809.113 933.081C887.065 885.267 978.636 883.48 1059.1 905.485C1106.99 918.581 1152.13 946.33 1198.69 970.48C1371.19 1060.14 1391.38 1253.66 1538.02 1284.48C1693.49 1316.9 1784.06 1247.61 1819.93 1193.09C1864.37 1125.54 1923.53 955.674 1783.45 828.288C1723.62 773.887 1664.02 713.411 1616.13 644C1547.98 545.384 1544.68 400.767 1624.5 315.656C1681 255.435 1770.96 225.924 1815.24 152.071C1846.68 99.5598 1849.45 35.7393 1833.34 -19.1974C1816.7 -75.9721 1782.14 -125.752 1738.9 -167.95" stroke="#9B9B9B" stroke-miterlimit="10"/>
<path opacity="0.65" d="M-92.8774 1321.9C-90.3174 1225.12 -6.24705 1136.72 90.7769 1115.63C179.225 1096.39 271.871 1122.99 357.811 1148.36C439.731 1172.54 526.771 1190.3 597.529 1158.29C687.743 1117.17 726.604 1008.9 820.71 951.998C900.07 903.954 990.489 896.729 1072.49 914.522C1122.25 925.321 1170.25 951.232 1218.76 975.79C1386.96 1060.67 1410 1246.54 1553.23 1276.87C1703.91 1308.55 1793.87 1243.68 1831.09 1190.07C1876.61 1124.47 1932.77 961.137 1801.88 835.666C1744.79 780.959 1687.78 719.385 1640.6 650.535C1574.73 554.396 1570.18 415.42 1644.62 331.254C1698.07 270.803 1784.32 238.842 1828.48 165.933C1860.38 113.32 1865.47 50.2905 1852.57 -4.9781C1839.03 -62.7995 1807.74 -114.749 1766.53 -159.602" stroke="#A0A0A0" stroke-miterlimit="10"/>
<path opacity="0.65" d="M-88.9863 1326.22C-83.0727 1226.96 0.613668 1134.88 100.121 1111.78C189.03 1091.15 283.11 1117.34 369.049 1144.66C449.894 1170.37 534.604 1191.3 605.132 1163.73C695.065 1128.58 738.252 1026.95 832.307 970.889C913.254 922.64 1002.37 909.876 1085.9 923.559C1137.54 932.009 1188.3 956.184 1238.86 980.947C1402.7 1061.21 1428.63 1239.24 1568.43 1269.13C1714.35 1300.02 1803.78 1239.57 1842.35 1186.88C1888.9 1123.22 1942.19 966.294 1820.36 842.916C1766.02 787.826 1711.62 725.307 1665.2 656.943C1601.64 563.254 1595.78 429.742 1664.9 346.673C1715.2 286.146 1797.71 251.785 1841.69 179.974C1874.1 127.13 1881.6 64.9182 1871.77 9.39436C1861.38 -49.4992 1833.37 -103.798 1794.15 -151.101" stroke="#A6A6A6" stroke-miterlimit="10"/>
<path opacity="0.65" d="M-85.0952 1330.56C-75.8536 1228.8 7.2696 1133.04 109.465 1107.97C198.834 1086.02 294.322 1111.7 380.287 1141.01C460.134 1168.2 542.438 1192.22 612.761 1169.09C702.361 1139.78 749.977 1044.95 843.903 989.728C926.335 941.225 1014.3 922.895 1099.29 932.52C1152.84 938.595 1206.4 961.086 1258.96 986.129C1418.24 1061.97 1447.27 1232.07 1583.67 1261.53C1724.75 1291.73 1813.58 1235.56 1853.44 1183.84C1901 1122.07 1951.41 971.399 1838.69 850.268C1784.2 791.953 1734.35 729.492 1689.6 663.452C1628.16 572.266 1621.14 444.344 1684.94 362.22C1732.17 301.411 1811.07 264.702 1854.9 193.912C1887.77 140.839 1897.65 79.3926 1890.97 23.6901C1883.75 -36.3523 1859.15 -92.8717 1821.85 -142.703" stroke="#ABABAB" stroke-miterlimit="10"/>
<path opacity="0.65" d="M-81.2036 1334.9C-68.6084 1230.66 14.0284 1131.26 118.809 1104.15C208.665 1080.89 305.689 1106.03 391.526 1137.33C470.374 1166.03 550.246 1193.14 620.364 1174.68C709.555 1151.19 761.651 1063.15 855.5 1008.75C939.443 960.09 1026.25 935.991 1112.7 941.659C1168.15 945.284 1224.45 966.191 1279.1 991.439C1433.68 1062.92 1465.98 1224.84 1598.95 1253.87C1735.24 1283.2 1823.46 1231.58 1864.68 1180.76C1913.32 1120.89 1960.91 976.3 1857.2 857.594C1805.54 798.162 1757.77 735.471 1714.2 669.911C1655.17 581.2 1646.69 458.691 1705.19 377.741C1749.35 316.652 1824.56 277.645 1868.24 207.876C1899.67 157.002 1914.37 97.6012 1910.27 37.9859C1906.3 -23.2818 1884.95 -81.9967 1849.47 -134.253" stroke="#B1B1B1" stroke-miterlimit="10"/>
<path opacity="0.65" d="M-77.313 1339.23C-61.441 1232.5 20.7862 1129.47 128.153 1100.27C218.469 1075.73 316.773 1100.27 402.764 1133.58C480.613 1163.7 558.13 1193.95 628.044 1180.04C716.825 1162.38 773.426 1081.2 867.148 1027.64C952.601 978.802 1038.28 948.909 1126.14 950.67C1183.54 951.819 1242.55 971.093 1299.17 996.621C1449.04 1064.02 1484.57 1217.57 1614.05 1246.13C1745.56 1274.73 1833.16 1227.47 1875.76 1177.62C1925.27 1119.62 1970.35 981.049 1875.51 864.844C1829.43 808.274 1782.73 743.33 1738.6 676.344C1681.82 590.11 1672.04 472.935 1725.23 393.211C1766.19 331.764 1837.87 290.511 1881.39 221.738C1913.4 170.997 1930.08 112.144 1929.45 52.2051C1928.43 -10.7957 1910.33 -72.3464 1877.04 -125.905" stroke="#B7B7B7" stroke-miterlimit="10"/>
<path opacity="0.65" d="M-73.4214 1343.55C-54.1702 1234.34 27.5706 1127.71 137.497 1096.49C228.3 1070.68 328.012 1094.62 413.977 1129.95C490.777 1161.51 565.913 1194.87 635.571 1185.56C723.993 1173.71 785.049 1099.35 878.771 1046.61C965.811 997.591 1050.29 961.826 1139.58 959.809C1198.9 958.431 1260.57 976.352 1319.3 1002.01C1464.37 1065.39 1503.21 1210.5 1629.36 1238.63C1756.08 1266.43 1843.02 1223.59 1887.03 1174.65C1937.48 1118.49 1980.11 985.567 1894.04 872.299C1850.52 815.09 1806.54 749.508 1763.2 682.956C1708.67 599.249 1697.43 487.282 1745.48 408.86C1783.4 347.005 1851.37 303.607 1894.68 235.83C1927.28 185.141 1945.92 126.783 1948.72 66.6286C1951.22 2.40689 1935.97 -61.2639 1904.64 -117.43" stroke="#BCBCBC" stroke-miterlimit="10"/>
<path opacity="0.65" d="M-69.5303 1347.89C-46.9511 1236.18 34.3545 1125.97 146.841 1092.61C238.131 1065.57 339.276 1088.85 425.241 1126.2C501.145 1159.18 573.721 1195.72 643.225 1190.94C731.238 1184.92 796.825 1117.42 890.29 1065.47C978.79 1016.3 1062.17 974.59 1152.92 968.77C1214.13 964.838 1278.49 981.381 1339.29 1007.06C1479.55 1066.57 1521.77 1203.12 1644.52 1230.82C1766.42 1257.85 1852.7 1219.35 1898.11 1171.41C1949.52 1117.17 1989.81 989.677 1912.37 879.472C1871.67 821.498 1830.19 755.379 1787.62 689.287C1735.32 608.056 1722.62 501.272 1765.55 424.228C1800.29 361.913 1864.7 316.397 1907.81 249.615C1942.66 195.674 1962.62 137.163 1967.85 80.7712C1973.91 15.4104 1961.59 -50.3435 1932.26 -109.108" stroke="#C2C2C2" stroke-miterlimit="10"/>
<path opacity="0.65" d="M-65.6392 1352.23C-39.7064 1238.12 41.1384 1124.26 156.159 1088.83C247.935 1060.54 350.489 1083.14 436.479 1122.58C511.385 1156.94 581.58 1196.61 650.802 1196.46C738.431 1196.23 808.498 1135.6 901.862 1084.44C991.897 1035.12 1074.07 987.431 1166.28 977.883C1229.44 971.348 1296.46 986.588 1359.36 1012.47C1494.73 1068.2 1540.35 1196.07 1659.7 1223.31C1776.84 1249.58 1862.4 1215.47 1909.25 1168.5C1961.55 1116.09 1999.77 993.941 1930.78 886.952C1892.86 828.237 1853.98 761.583 1812.1 695.924C1762.02 617.221 1747.79 515.491 1785.68 439.902C1817.19 377.077 1878.09 329.492 1921.02 263.757C1956.38 209.587 1978.96 151.816 1987.05 95.2713C1996.67 28.7701 1987.25 -39.0901 1959.86 -100.479" stroke="#C7C7C7" stroke-miterlimit="10"/>
<path opacity="0.65" d="M-61.7471 1356.57C-32.4863 1239.85 47.9489 1122.58 165.53 1084.95C257.69 1055.46 361.805 1077.29 447.744 1118.85C521.677 1154.59 589.44 1197.43 658.458 1201.84C745.702 1207.43 820.25 1153.7 913.485 1103.33C1005.06 1053.86 1086.05 1000.07 1179.72 986.869C1244.77 977.705 1314.43 991.72 1379.4 1017.68C1509.84 1069.71 1558.89 1189.08 1674.85 1215.63C1787.16 1241.36 1871.97 1211.34 1920.38 1165.39C1973.56 1114.79 2009.98 997.795 1949.13 894.227C1914.14 834.542 1877.45 767.582 1836.49 702.357C1788.62 626.181 1772.77 529.455 1805.77 455.398C1833.93 392.011 1891.46 342.435 1934.18 277.645C1970.02 223.27 1995.29 166.24 2006.22 109.465C2019.43 41.8319 2012.9 -28.1585 1987.43 -92.2079" stroke="#CDCDCD" stroke-miterlimit="10"/>
<path opacity="0.65" d="M-57.8564 1360.88C-25.2676 1241.69 54.7835 1120.92 174.873 1081.17C267.648 1050.54 373.068 1071.55 459.033 1115.2C532.019 1152.32 597.273 1198.34 666.112 1207.36C752.972 1218.72 832.025 1171.9 925.132 1122.3C1018.24 1072.7 1098.01 1012.81 1193.16 995.957C1260.11 984.138 1332.43 997.029 1399.6 1022.97C1525.04 1071.47 1577.63 1181.93 1690.21 1208.05C1797.73 1232.99 1881.88 1207.31 1931.67 1162.38C1985.71 1113.57 2020.4 1001.55 1967.69 901.631C1935.62 840.924 1901.31 773.709 1861.12 708.918C1815.45 635.244 1797.91 543.444 1826 470.995C1850.83 406.971 1904.97 355.455 1947.49 291.634C1984 237.08 2011.78 180.791 2025.5 123.812C2042.3 55.1173 2038.7 -16.9677 2015.13 -83.656" stroke="#D2D2D2" stroke-miterlimit="10"/>
<path opacity="0.65" d="M-53.9399 1365.22C-17.9207 1243.53 61.5673 1119.26 184.319 1077.29C277.606 1045.43 384.46 1065.67 470.322 1111.47C542.386 1149.92 605.209 1199.14 673.791 1212.74C760.268 1229.9 843.801 1190.02 936.78 1141.26C1031.5 1091.53 1109.94 1025.49 1206.63 1005.07C1275.44 990.52 1350.4 1002.39 1419.75 1028.28C1540.25 1073.23 1596.39 1174.78 1705.47 1200.46C1808.18 1224.61 1891.63 1203.25 1942.89 1159.34C1997.8 1112.34 2031.1 1005.2 1986.15 909.008C1957.27 847.23 1925.09 779.835 1885.72 715.453C1842.2 644.332 1822.87 557.383 1846.27 486.567C1867.6 421.905 1918.51 368.474 1960.83 305.649C1997.72 250.891 2028.31 195.367 2044.82 138.159C2065.22 68.3841 2064.55 -5.83864 2042.88 -75.2317" stroke="#D8D8D8" stroke-miterlimit="10"/>
<path opacity="0.65" d="M-50.0488 1369.56C-10.804 1245.39 68.3768 1117.65 193.561 1073.44C287.359 1040.4 395.801 1059.8 481.458 1107.77C552.575 1147.52 612.94 1199.98 681.292 1218.18C767.385 1241.16 855.372 1208.17 948.274 1160.05C1044.48 1110.2 1121.69 1037.98 1219.92 1013.98C1290.6 996.723 1368.19 1007.65 1439.74 1033.38C1555.22 1074.97 1614.82 1167.43 1720.58 1192.68C1818.5 1216.06 1901.18 1198.98 1953.94 1156.15C2009.7 1110.91 2041.93 1008.49 2004.48 916.182C1978.88 853.229 1948.67 785.758 1910.12 721.81C1868.8 653.215 1847.53 571.193 1866.32 501.961C1884.06 436.609 1931.85 381.289 1973.84 319.46C2011.26 264.498 2044.57 209.689 2063.85 152.327C2087.82 81.5144 2090.06 5.17813 2070.27 -66.9095" stroke="#DEDEDE" stroke-miterlimit="10"/>
<path opacity="0.65" d="M-46.0801 1373.88C-3.58407 1247.23 75.2127 1116.04 202.906 1069.63C297.216 1035.4 406.989 1053.93 492.698 1104.07C562.918 1145.14 620.698 1200.82 688.922 1223.62C774.63 1252.31 867.2 1226.35 959.872 1178.97C1057.64 1129.04 1133.54 1050.56 1233.33 1023.04C1305.83 1003.03 1386.06 1013.11 1459.84 1038.64C1570.28 1076.93 1633.46 1160.23 1735.81 1185.04C1828.92 1207.64 1910.86 1194.82 1965.13 1153.08C2021.71 1109.56 2053.15 1011.86 2022.89 923.559C2000.9 859.356 1972.33 791.859 1934.64 728.32C1895.48 662.278 1872.15 585.004 1886.46 517.508C1900.47 451.466 1945.34 394.309 1987.17 333.449C2025.11 278.283 2061.16 224.367 2083.15 166.648C2110.74 94.8203 2115.92 16.3533 2098 -58.4596" stroke="#E3E3E3" stroke-miterlimit="10"/>
<path opacity="0.65" d="M-42.2661 1378.22C3.66029 1249.07 82.0731 1114.43 212.249 1065.88C306.969 1030.5 418.329 1048.14 503.935 1100.47C573.235 1142.85 628.659 1201.59 696.524 1229.16C781.951 1263.44 878.95 1244.6 971.468 1197.99C1070.8 1147.93 1145.34 1063.2 1246.72 1032.05C1320.96 1009.28 1403.9 1018.65 1479.91 1043.87C1585.33 1078.85 1652.15 1152.78 1751.01 1177.39C1839.39 1199.01 1920.51 1190.64 1976.29 1149.99C2033.69 1108.18 2064.69 1015.18 2041.32 930.86C2022.39 862.285 1994.77 796.394 1959.14 734.778C1922.12 671.315 1896.63 598.866 1906.61 533.105C1916.85 466.375 1958.73 407.353 2000.38 347.464C2038.78 292.119 2077.64 239.021 2102.37 180.995C2133.56 108.176 2141.67 27.5881 2125.62 -49.9587" stroke="#E9E9E9" stroke-miterlimit="10"/>
<path opacity="0.65" d="M-38.3999 1382.56C10.8801 1250.88 88.9089 1112.85 221.594 1061.97C316.954 1025.44 429.696 1042.16 515.174 1096.72C583.603 1140.37 636.518 1202.4 704.154 1234.57C789.197 1274.67 890.701 1262.78 983.194 1216.88C1084.08 1166.74 1157.27 1075.73 1260.26 1041.19C1336.37 1015.66 1421.85 1024.4 1500.13 1049.18C1600.49 1080.99 1670.89 1145.65 1766.37 1169.83C1849.96 1190.69 1930.21 1186.5 1987.61 1147.01C2045.82 1106.88 2076.72 1018.68 2059.88 938.263C2044.91 869.093 2019.24 802.666 1983.8 741.364C1948.9 680.454 1921.15 612.856 1926.91 548.627C1932.95 481.258 1972.35 420.347 2013.77 361.403C2052.79 305.879 2094.31 253.648 2121.75 195.291C2156.52 121.486 2167.57 38.7727 2153.4 -41.5344" stroke="#EEEEEE" stroke-miterlimit="10"/>
<path opacity="0.65" d="M-34.4839 1386.9C18.0985 1252.75 95.7689 1111.19 230.937 1058.22C326.835 1020.57 441.062 1036.32 526.412 1093.09C593.971 1138.02 644.351 1203.35 711.756 1240.06C796.441 1286.01 902.527 1281.18 994.662 1235.82C1097.22 1185.81 1168.9 1088.29 1273.52 1050.26C1351.42 1021.92 1439.51 1030.22 1520.1 1054.47C1615.36 1083.14 1689.39 1138.56 1781.45 1162.2C1860.22 1182.29 1939.76 1182.29 1998.62 1143.94C2057.47 1105.6 2088.73 1022.25 2078.16 945.641C2068.76 877.634 2043.19 810.342 2008.14 747.874C1975.35 689.542 1945.24 626.896 1946.9 564.199C1948.72 496.217 1985.77 433.443 2026.83 375.29C2066.51 319.664 2110.67 268.072 2140.8 209.51C2179.17 134.744 2193.17 49.8986 2180.86 -33.1868" stroke="#F4F4F4" stroke-miterlimit="10"/>
<path opacity="0.65" d="M-30.5923 1391.29C25.3181 1254.58 102.707 1109.94 240.281 1054.31C336.768 1015.67 452.454 1030.29 537.651 1089.34C604.211 1135.55 652.211 1204.22 719.411 1245.42C803.712 1297.14 914.278 1299.23 1006.28 1254.66C1110.37 1204.52 1180.65 1100.75 1286.96 1059.22C1366.63 1028.1 1457.28 1036.11 1540.2 1059.65C1630.49 1085.18 1708.03 1131.13 1796.68 1154.49C1870.69 1173.81 1949.41 1177.95 2009.83 1140.8C2069.66 1104.02 2101.2 1025.93 2096.59 952.891C2092.24 883.812 2066.79 816.315 2032.59 754.307C2001.87 698.528 1969.33 640.937 1967 579.643C1964.44 511.177 1999.13 446.335 2040.01 389.28C2080.2 333.424 2127.05 282.904 2159.97 223.857C2201.94 148.162 2218.91 61.2044 2208.49 -24.6603" stroke="#F9F9F9" stroke-miterlimit="10"/>
<path opacity="0.65" d="M-26.7012 1395.55C32.5628 1256.42 109.516 1108.23 249.625 1050.56C346.624 1010.66 463.872 1024.42 548.889 1085.74C614.732 1133.2 660.044 1205.08 727.04 1250.88C810.982 1308.4 926.003 1317.38 1017.91 1273.6C1123.51 1223.29 1192.4 1113.28 1300.38 1068.28C1381.81 1034.33 1475.05 1042.27 1560.32 1064.88C1645.59 1087.5 1726.72 1124.03 1811.92 1146.85C1881.04 1165.39 1959.07 1173.68 2021.02 1137.74C2081.66 1102.56 2113.92 1030.19 2115.05 960.243C2116.17 890.296 2090.34 822.391 2057.19 760.791C2028.6 707.616 1993.47 655.207 1987.25 595.19C1980.13 526.264 2012.65 459.303 2053.32 403.243C2094 347.184 2143.74 297.582 2179.28 238.153C2224.8 161.513 2244.7 72.4247 2236.11 -16.236" stroke="white" stroke-miterlimit="10"/>
</g>
<g style="mix-blend-mode:multiply">
<path d="M988.161 1913.72C913.563 1867.77 910.056 1754.96 953.806 1679.17C997.556 1603.38 1073.79 1553.21 1141.53 1497.66C1209.27 1442.11 1274.39 1370.69 1279.98 1283.4C1287.14 1171.82 1194.6 1070.5 1206.45 959.197C1215.69 872.554 1286.68 806.972 1361.28 770.288C1403.44 749.585 1452.19 742.335 1495.86 725.231C1693.95 647.906 1869.98 773.071 1993.35 671.392C2126.9 561.161 2120.09 437.783 2095.41 377C2063.8 299.114 1957.91 126.645 1749.4 174.153C1664.72 193.453 1577.88 209.893 1491.07 204.506C1361.23 196.363 1234.97 94.4544 1226.68 -34.9736C1221.12 -123.684 1267.2 -215.969 1235.02 -298.884C1213.44 -354.638 1158.76 -393.134 1100.44 -406.894C1042.13 -420.654 980.609 -412.383 922.958 -396.07" stroke="white" stroke-width="0.978593" stroke-miterlimit="10"/>
<path d="M994.074 1913.42C919.629 1863.25 912.871 1748.48 956.775 1669.49C999.655 1592.4 1076.58 1541.04 1145.78 1486.61C1214.16 1432.85 1280.08 1365.15 1289.14 1280.9C1300.58 1173.23 1216.23 1072.75 1228.65 962.158C1238.73 874.213 1304.6 806.436 1376.87 765.744C1418.39 742.335 1467.55 731.511 1512.55 713.105C1703.83 635.193 1875.92 754.078 1996.8 654.645C2126.75 547.657 2123.09 427.444 2099.92 366.177C2070.53 288.622 1968.1 122.969 1766.58 164.223C1683.61 181.25 1597.44 195.138 1511.5 189.419C1384.96 181.25 1262.52 83.8858 1251.46 -40.845C1243.78 -127.181 1285.68 -218.215 1254.22 -300.365C1232.79 -356.527 1180.26 -396.325 1123.66 -412.842C1066.55 -429.486 1005.29 -425.427 946.868 -412.204" stroke="#FBFBFB" stroke-width="0.978593" stroke-miterlimit="10"/>
<path d="M999.911 1913.11C925.671 1858.78 915.585 1742.07 959.642 1659.84C1001.65 1581.47 1079.27 1528.81 1149.95 1475.56C1218.94 1423.58 1285.63 1359.58 1298.15 1278.4C1313.9 1174.65 1237.48 1074.99 1250.66 964.992C1261.39 875.643 1322.34 805.798 1392.31 760.996C1433.27 734.804 1482.75 720.482 1529.34 700.8C1714.02 622.735 1882.06 735.11 2000.38 638.026C2126.75 534.28 2126.21 417.258 2104.53 355.659C2077.39 278.462 1978.34 119.472 1783.89 154.599C1702.38 169.303 1616.87 180.51 1531.85 174.434C1408.72 166.112 1289.93 73.266 1276.14 -46.8187C1266.48 -130.806 1304.3 -220.564 1273.34 -301.947C1252.07 -358.748 1201.66 -399.618 1146.8 -418.867C1090.84 -438.498 1029.91 -438.6 970.676 -428.44" stroke="#F6F6F6" stroke-width="0.978593" stroke-miterlimit="10"/>
<path d="M1005.72 1912.78C931.483 1854.32 918.325 1735.59 962.511 1650.17C1003.7 1570.57 1081.93 1516.61 1154.1 1464.53C1223.68 1414.26 1291.27 1354.04 1307.19 1275.9C1327.23 1176.06 1258.88 1077.21 1272.73 967.825C1284.2 877.277 1340.19 805.007 1407.77 756.248C1448.01 727.222 1497.96 709.48 1546.01 688.47C1724.16 610.558 1888.08 716.117 2004 621.433C2126.75 520.903 2129.44 406.996 2109.19 345.039C2084.23 268.2 1988.53 115.796 1801.19 144.873C1721.22 157.279 1636.53 165.653 1552.33 159.475C1432.58 150.668 1317.45 62.5954 1300.94 -52.7411C1289.27 -134.431 1322.55 -222.81 1292.6 -303.479C1271.32 -360.739 1223.14 -403.039 1170.08 -424.84C1115.27 -447.484 1054.65 -451.721 994.639 -444.624" stroke="#F2F2F2" stroke-width="0.978593" stroke-miterlimit="10"/>
<path d="M1011.56 1912.47C937.523 1849.85 921.088 1729.15 965.479 1640.52C1005.85 1559.7 1084.7 1504.35 1158.37 1453.47C1228.54 1404.97 1296.97 1348.48 1316.3 1273.4C1340.67 1177.49 1280.46 1079.38 1294.87 970.685C1307.11 878.783 1358.05 804.088 1423.36 751.5C1462.96 719.589 1513.27 698.528 1562.8 676.14C1734.5 598.586 1894.25 697.124 2007.68 604.814C2126.82 507.552 2132.53 396.938 2113.92 334.445C2091.14 257.988 1998.72 112.018 1818.6 135.147C1740.08 145.358 1656.24 150.974 1572.84 144.49C1456.46 135.453 1345 51.9246 1325.82 -58.6891C1312.08 -138.031 1341.18 -225.082 1311.9 -305.011C1290.75 -362.781 1244.67 -406.23 1193.4 -430.814C1139.64 -456.521 1079.42 -464.817 1018.62 -460.809" stroke="#EEEEEE" stroke-width="0.978593" stroke-miterlimit="10"/>
<path d="M1017.37 1912.06C943.488 1845.28 923.878 1722.64 968.243 1630.77C1007.85 1548.72 1087.23 1492.02 1162.42 1442.32C1233.18 1395.6 1302.6 1342.89 1325.23 1270.77C1354.09 1178.87 1301.73 1081.6 1316.84 973.416C1329.84 880.263 1375.72 802.99 1438.72 746.649C1477.66 711.828 1528.32 687.474 1579.52 663.708C1744.84 586.74 1900.31 678.029 2011.26 588.093C2126.8 494.073 2135.6 386.676 2118.53 323.749C2098.05 247.675 2008.63 107.984 1835.9 125.318C1758.8 132.976 1675.85 136.193 1593.32 129.402C1480.29 120.136 1372.34 41.1005 1350.63 -64.6118C1334.81 -141.681 1359.69 -227.38 1331.12 -306.543C1310.11 -364.849 1266.18 -409.625 1216.67 -436.736C1164.11 -465.583 1104.15 -477.888 1042.59 -476.943" stroke="#E9E9E9" stroke-width="0.978593" stroke-miterlimit="10"/>
<path d="M1023.21 1911.86C949.454 1840.92 926.67 1716.34 971.111 1621.19C1009.95 1537.97 1089.84 1479.84 1166.59 1431.39C1237.86 1386.39 1308.21 1337.45 1334.27 1268.37C1367.55 1180.4 1323.19 1083.95 1338.88 976.352C1352.68 881.897 1393.41 802.02 1454.08 742.003C1492.48 704.196 1543.5 676.651 1595.98 651.505C1754.98 575.253 1906.13 659.164 2014.59 571.602C2126.54 480.798 2138.39 376.643 2122.91 313.231C2104.42 237.591 2018.25 103.9 1852.95 115.719C1773.23 121.532 1693.18 121.14 1613.52 114.545C1503.85 105.049 1399.37 30.4553 1375.18 -70.5343C1357.26 -145.357 1377.97 -229.677 1350.09 -308.1C1329.2 -366.815 1287.37 -413.072 1239.66 -442.761C1188.22 -474.773 1128.63 -491.06 1066.24 -493.205" stroke="#E5E5E5" stroke-width="0.978593" stroke-miterlimit="10"/>
<path d="M1029.12 1911.55C955.52 1836.47 929.613 1709.88 974.055 1611.54C1012.2 1527.12 1092.56 1467.57 1170.87 1420.34C1242.68 1376.94 1313.92 1331.91 1343.41 1265.87C1380.92 1181.85 1344.77 1086.2 1361.05 979.185C1375.62 883.48 1411.17 800.896 1469.75 737.255C1507.33 696.409 1558.94 665.776 1612.88 639.175C1765.63 563.841 1912.4 640.171 2018.36 554.932C2126.69 467.37 2141.62 366.457 2127.72 302.586C2111.33 227.354 2025.93 78.7035 1870.41 106.019C1797.07 118.783 1715 106.963 1634.15 99.5856C1527.83 89.9104 1426.79 19.7334 1400.14 -76.4314C1380.05 -149.034 1396.69 -231.949 1369.42 -309.606C1349.34 -365.901 1312.13 -414.533 1262.98 -448.709C1212.7 -483.938 1153.43 -504.131 1090.25 -509.364" stroke="#E1E1E1" stroke-width="0.978593" stroke-miterlimit="10"/>
<path d="M1034.86 1911.25C961.384 1832.11 932.456 1703.57 976.82 1601.87C1014.25 1516.38 1095.04 1455.29 1175.04 1409.31C1247.36 1367.67 1319.55 1326.37 1352.47 1263.37C1394.28 1183.28 1366.27 1088.42 1383.19 982.044C1398.55 885.037 1428.87 799.697 1485.31 732.506C1522.15 688.623 1574.25 654.901 1629.65 626.845C1776.21 552.584 1918.49 621.178 2021.99 538.364C2126.72 454.121 2144.67 356.399 2132.38 292.043C2118.09 217.22 2036.02 72.5002 1887.77 96.2669C1815.53 107.831 1734.66 92.2846 1654.66 84.6006C1551.69 74.7212 1453.93 8.93499 1424.97 -82.4049C1402.68 -152.786 1415.27 -234.272 1388.78 -311.163C1369.17 -367.823 1333.62 -417.655 1286.38 -454.708C1236.5 -493.409 1177.04 -517.9 1114.32 -525.574" stroke="#DCDCDC" stroke-width="0.978593" stroke-miterlimit="10"/>
<path d="M1040.67 1910.91C967.373 1827.54 935.245 1697.22 979.687 1592.22C1016.42 1505.42 1097.6 1442.96 1179.09 1398.21C1251.92 1358.23 1325.01 1320.78 1361.36 1260.81C1407.44 1184.66 1387.62 1090.62 1405.06 984.827C1421.24 886.518 1446.25 798.471 1500.6 727.707C1536.69 680.761 1589.33 644.026 1646.16 614.464C1786.6 541.402 1924.35 602.159 2025.37 521.72C2126.49 440.642 2147.48 346.239 2136.81 281.372C2124.57 207.008 2045.95 66.5011 1904.87 86.4896C1833.6 96.7009 1754.09 77.5547 1674.91 69.5644C1575.3 59.5063 1480.76 -1.91453 1449.63 -88.3786C1425.02 -156.59 1433.68 -236.621 1407.85 -312.746C1388.68 -369.877 1354.74 -420.951 1309.44 -460.809C1260.85 -502.988 1201.57 -531.035 1138.07 -541.887" stroke="#D8D8D8" stroke-width="0.978593" stroke-miterlimit="10"/>
<path d="M1046.5 1910.61C973.338 1823.07 938.138 1690.86 982.503 1582.54C1018.55 1494.65 1100.11 1430.63 1183.18 1387.2C1256.5 1348.91 1330.56 1315.32 1370.34 1258.36C1420.78 1186.17 1409.1 1092.94 1427.07 987.763C1444.07 888.203 1463.71 797.246 1516.01 723.061C1551.31 673 1604.53 633.355 1662.8 602.236C1797.17 530.502 1930.34 583.269 2028.88 505.229C2126.41 427.393 2150.38 336.258 2141.34 270.906C2131.1 196.874 2056.09 60.885 1922.1 76.8912C1851.62 85.3155 1773.62 63.0294 1695.28 54.7072C1599.03 44.4959 1507.61 -12.5597 1474.28 -94.1988C1447.35 -160.24 1452.11 -238.816 1426.94 -314.175C1406.59 -375.06 1373.39 -427.214 1332.56 -466.63C1285.27 -512.279 1226.16 -543.883 1161.86 -557.893" stroke="#D4D4D4" stroke-width="0.978593" stroke-miterlimit="10"/>
<path d="M1052.31 1910.3C979.304 1818.6 941.057 1684.5 985.422 1572.89C1020.8 1483.85 1102.72 1418.27 1187.41 1376.17C1261.21 1339.46 1336.19 1309.8 1379.41 1255.86C1434.14 1187.6 1430.61 1095.19 1449.14 990.545C1467.06 889.683 1481.19 795.893 1531.5 718.261C1565.95 665.086 1619.87 622.556 1679.51 589.88C1807.87 519.576 1936.41 564.352 2032.49 488.533C2126.39 413.94 2153.32 326.072 2145.97 260.235C2137.78 186.739 2066.23 80.516 1939.38 67.1137C1869.7 59.7361 1793.23 48.3249 1715.74 39.6708C1622.84 29.2809 1534.41 -23.3838 1499.09 -100.173C1469.7 -163.993 1470.67 -241.165 1446.15 -315.758C1425.97 -377.154 1394.95 -430.89 1355.8 -472.655C1309.86 -521.791 1250.93 -556.969 1185.79 -574.129" stroke="#CFCFCF" stroke-width="0.978593" stroke-miterlimit="10"/>
<path d="M1058.15 1909.99C985.269 1814.14 944.002 1678.17 988.29 1563.22C1023.03 1473.03 1105.26 1405.89 1191.58 1365.12C1265.82 1330.05 1341.77 1304.21 1388.47 1253.36C1447.35 1189.03 1452.19 1097.43 1471.23 993.405C1489.92 891.292 1498.63 794.591 1547.01 713.513C1580.6 657.198 1635.2 611.835 1696.23 577.55C1818.63 508.624 1942.63 545.436 2036.07 471.915C2126.52 400.767 2156.26 315.963 2150.61 249.615C2144.36 176.604 2075.68 75.0786 1956.69 57.3876C1888.1 47.1763 1812.84 33.6974 1736.19 24.686C1646.59 14.1683 1561.12 -34.0289 1523.87 -106.121C1492 -167.746 1489.23 -243.488 1465.37 -317.29C1445.35 -379.221 1416.58 -434.566 1379.05 -478.628C1334.48 -531.247 1275.71 -570.009 1209.7 -590.314" stroke="#CBCBCB" stroke-width="0.978593" stroke-miterlimit="10"/>
<path d="M1063.96 1909.69C991.233 1809.69 946.945 1671.84 991.13 1553.57C1025.28 1462.23 1107.79 1393.48 1195.73 1354.07C1270.45 1320.57 1347.35 1298.67 1397.48 1250.83C1460.79 1190.46 1473.72 1099.68 1493.27 996.238C1512.83 892.798 1516.01 793.263 1562.39 708.765C1595.09 649.31 1650.46 601.189 1712.85 565.22C1829.33 498.055 1948.6 526.443 2039.55 455.449C2126.39 387.518 2159.05 305.981 2155.11 239.148C2150.84 166.572 2085.02 69.4367 1973.89 47.6867C1906.38 34.5652 1832.35 19.1206 1756.52 9.7518C1670.35 -0.893463 1587.56 -44.7765 1548.54 -112.018C1514.09 -171.422 1507.71 -245.76 1484.54 -318.796C1464.68 -381.264 1438.18 -438.192 1402.24 -484.576C1359.06 -540.666 1300.45 -583.026 1233.56 -606.499" stroke="#C7C7C7" stroke-width="0.978593" stroke-miterlimit="10"/>
<path d="M1069.8 1909.51C997.197 1805.35 949.939 1665.64 993.997 1544.05C1027.53 1451.56 1110.3 1381.18 1199.9 1343.17C1275.08 1311.23 1352.93 1293.26 1406.52 1248.46C1474.1 1191.99 1495.27 1102.08 1515.34 999.199C1535.82 894.534 1533.26 792.089 1577.93 704.145C1609.68 641.549 1665.92 590.723 1729.59 553.018C1840.23 487.538 1954.71 507.577 2043.19 438.83C2126.41 374.141 2162 295.872 2159.8 228.554C2157.44 156.411 2094.57 63.4123 1991.22 38.0883C1924.84 21.6737 1852.01 4.49316 1777.02 -5.25862C1694.18 -16.006 1614.11 -55.4215 1573.4 -117.966C1536.23 -175.072 1526.35 -248.159 1503.77 -320.353C1484.06 -383.331 1459.87 -441.893 1425.48 -490.575C1383.73 -550.123 1325.3 -596.082 1257.5 -622.709" stroke="#C2C2C2" stroke-width="0.978593" stroke-miterlimit="10"/>
<path d="M1075.61 1909.05C1003.16 1800.76 952.935 1659.18 996.864 1534.25C1029.79 1440.63 1112.83 1368.62 1204.05 1331.99C1279.69 1301.61 1358.49 1287.57 1415.55 1245.83C1487.41 1193.26 1516.83 1104.2 1537.38 1001.93C1558.71 895.912 1550.62 790.634 1593.4 699.269C1624.12 633.533 1681.33 580.052 1746.28 540.585C1851.24 476.765 1960.76 488.457 2046.75 422.083C2126.36 360.637 2164.81 285.661 2164.51 217.858C2164.05 146.2 2104.19 57.03 2008.6 28.2853C1943.37 8.70516 1871.69 -10.007 1797.56 -20.2183C1718.2 -31.0678 1640.55 -65.9904 1598.26 -123.888C1558.2 -178.697 1544.91 -250.432 1522.97 -321.885C1503.44 -385.399 1481.55 -445.595 1448.73 -496.549C1408.42 -559.554 1350.15 -609.12 1281.41 -638.894" stroke="#BEBEBE" stroke-width="0.978593" stroke-miterlimit="10"/>
<path d="M1081.45 1908.74C1009.13 1796.29 956.008 1652.85 999.732 1524.6C1032.07 1429.86 1115.34 1356.11 1208.22 1320.93C1284.3 1292.11 1364.07 1282 1424.59 1243.33C1500.72 1194.67 1538.41 1106.47 1559.45 1004.76C1581.65 897.546 1567.87 789.332 1608.86 694.52C1638.66 625.594 1696.79 569.585 1762.97 528.255C1862.07 466.349 1966.77 469.54 2050.31 405.49C2126.31 347.26 2167.63 275.551 2168.99 207.212C2170.42 135.989 2113.77 50.3161 2025.78 18.508C1961.78 -4.62055 1891.18 -24.6857 1817.88 -35.1012C1741.75 -46.1294 1666.71 -76.4314 1623.04 -129.836C1580.08 -182.093 1563.5 -252.729 1542.15 -323.417C1522.82 -387.467 1503.26 -449.271 1471.92 -502.523C1433.07 -568.966 1374.97 -622.143 1305.27 -655.079" stroke="#BABABA" stroke-width="0.978593" stroke-miterlimit="10"/>
<path d="M1087.28 1908.44C1015.09 1791.82 959.003 1646.57 1002.6 1514.92C1034.37 1419.06 1117.8 1343.65 1212.37 1309.9C1288.91 1282.56 1369.6 1276.41 1433.6 1240.82C1513.91 1195.92 1559.96 1108.74 1581.47 1007.6C1604.51 899.052 1585.08 788.056 1624.32 689.772C1653.1 617.757 1712.31 559.195 1779.64 515.925C1873.03 455.908 1972.66 450.318 2053.84 388.871C2126.13 333.73 2170.39 265.493 2173.59 196.567C2176.87 125.752 2123.62 43.3982 2043.03 8.73087C1977.56 -19.5294 1908.74 -39.3378 1838.23 -50.2138C1765.51 -61.2675 1692.9 -86.7957 1647.69 -135.759C1601.87 -185.411 1582.08 -255.052 1561.35 -324.948C1542.2 -389.535 1524.99 -452.947 1495.14 -508.496C1457.76 -578.36 1399.85 -635.155 1329.18 -671.264" stroke="#B5B5B5" stroke-width="0.978593" stroke-miterlimit="10"/>
<path d="M1093.12 1908.13C1021.08 1787.36 962.075 1640.24 1005.49 1505.27C1036.67 1408.26 1120.36 1331.12 1216.57 1298.85C1293.54 1273.01 1375.29 1270.77 1442.66 1238.32C1527.3 1197.35 1581.6 1110.99 1603.59 1010.43C1627.6 900.661 1602.31 786.728 1639.84 685.024C1667.53 609.869 1728 548.856 1796.35 503.595C1884.09 445.518 1978.73 431.325 2057.47 372.252C2126.13 320.354 2173.21 255.308 2178.23 185.896C2183.35 115.515 2133.76 36.2502 2060.47 -1.02103C1997.02 -32.726 1929.02 -54.3948 1858.89 -65.25C1789.42 -76.3037 1719.22 -97.0581 1672.63 -141.835C1623.73 -188.755 1600.95 -257.528 1580.7 -326.633C1561.76 -391.756 1546.93 -456.827 1518.52 -514.623C1482.61 -587.891 1424.88 -648.306 1353.22 -687.602" stroke="#B1B1B1" stroke-width="0.978593" stroke-miterlimit="10"/>
<path d="M1098.93 1907.82C1027.02 1782.92 965.122 1633.93 1008.33 1495.6C1039.05 1397.49 1122.84 1318.56 1220.81 1287.8C1298.23 1263.47 1380.87 1265.2 1451.78 1235.82C1540.71 1198.75 1603.46 1113.28 1625.7 1013.29C1650.87 902.243 1619.56 785.452 1655.37 680.276C1682.05 601.981 1743.72 538.722 1813.15 491.367C1895.27 435.205 1984.87 412.408 2061.08 355.736C2126.06 306.977 2176 245.071 2182.79 175.404C2189.57 105.738 2144.1 29.1278 2077.6 -10.6451C2018.72 -45.9506 1949.88 -68.2878 1879.17 -80.1329C1813.02 -91.1866 1745.21 -107.014 1697.28 -147.629C1645.29 -191.615 1619.43 -259.724 1599.8 -328.012C1581.16 -393.721 1568.62 -460.273 1541.61 -520.443C1507.22 -597.126 1449.67 -661.181 1377 -703.659" stroke="#ADADAD" stroke-width="0.978593" stroke-miterlimit="10"/>
<path d="M1104.74 1907.52C1033.06 1778.45 968.423 1627.68 1011.18 1485.95C1041.43 1386.74 1125.35 1306 1224.86 1276.77C1302.76 1253.79 1386.34 1259.64 1460.71 1233.37C1553.95 1200.18 1624.86 1115.63 1647.59 1016.2C1673.6 903.877 1636.53 784.252 1670.63 675.604C1696.23 594.169 1759.28 528.74 1829.63 479.037C1906.23 424.917 1990.71 393.441 2064.44 339.117C2125.88 293.702 2178.48 235.089 2187.32 164.887C2196.02 95.3224 2154.83 21.9288 2094.8 -20.2948C2038.07 -60.1954 1969.36 -82.6857 1899.52 -95.0159C1836.7 -106.095 1771.29 -116.868 1721.91 -153.475C1666.79 -194.321 1637.84 -261.945 1618.87 -329.467C1600.38 -395.687 1590.3 -463.847 1564.7 -526.366C1531.83 -606.408 1474.5 -674.082 1400.86 -719.768" stroke="#A8A8A8" stroke-width="0.978593" stroke-miterlimit="10"/>
<path d="M1110.58 1907.21C1038.9 1773.98 971.341 1621.3 1014.04 1476.27C1043.61 1375.89 1127.86 1293.39 1229.08 1265.71C1307.42 1244.27 1392 1254.1 1469.72 1230.79C1567.26 1201.59 1646.36 1117.83 1669.68 1018.91C1696.54 905.307 1653.71 782.873 1686.19 670.728C1710.67 586.179 1775.28 518.682 1846.4 466.502C1917.52 414.323 1996.8 374.371 2068.1 322.421C2125.95 280.249 2181.25 224.852 2191.97 154.19C2202.47 85.0089 2166.12 14.6277 2112.15 -30.0978C2058.19 -74.8232 1989.12 -97.2114 1920 -110.078C1860.51 -121.157 1797.53 -126.696 1746.74 -159.475C1688.47 -197.052 1656.42 -264.344 1638.12 -331.075C1619.81 -397.806 1612.16 -467.549 1587.97 -532.416C1556.6 -615.842 1499.42 -687.152 1424.72 -736.029" stroke="#A4A4A4" stroke-width="0.978593" stroke-miterlimit="10"/>
</g>
</g>
</g>
</svg>
