<svg width="1304" height="132" viewBox="0 0 1304 132" fill="none" xmlns="http://www.w3.org/2000/svg">
<g opacity="0.35">
<path d="M42.6892 132C33.184 132 24.584 130.447 16.8893 127.342C9.19462 124.073 2.63148 118.925 -2.80007 111.898C-8.23163 104.706 -12.4562 95.554 -15.4737 84.4404C-18.4912 73.1634 -20 59.5166 -20 43.5C-20 27.4834 -18.4912 13.9183 -15.4737 2.8047C-12.4562 -8.47231 -8.23163 -17.6247 -2.80007 -24.6524C2.63148 -31.8435 9.19462 -36.9917 16.8893 -40.097C24.584 -43.3657 33.184 -45 42.6892 -45C52.1944 -45 60.7944 -43.3657 68.4891 -40.097C76.1838 -36.9917 82.747 -31.8435 88.1785 -24.6524C93.6101 -17.6247 97.8346 -8.47231 100.852 2.8047C103.87 13.9183 105.378 27.4834 105.378 43.5C105.378 59.5166 103.87 73.1634 100.852 84.4404C97.8346 95.554 93.6101 104.706 88.1785 111.898C82.747 118.925 76.1838 124.073 68.4891 127.342C60.7944 130.447 52.1944 132 42.6892 132ZM42.6892 101.111C51.7418 101.111 58.6821 98.169 63.5102 92.2853C68.4891 86.4017 70.9786 77.5762 70.9786 65.8089V21.1911C70.9786 9.42382 68.4891 0.598339 63.5102 -5.28532C58.6821 -11.169 51.7418 -14.1108 42.6892 -14.1108C33.6366 -14.1108 26.6209 -11.169 21.6419 -5.28532C16.8139 0.598339 14.3999 9.42382 14.3999 21.1911V65.8089C14.3999 77.5762 16.8139 86.4017 21.6419 92.2853C26.6209 98.169 33.6366 101.111 42.6892 101.111Z" fill="url(#paint0_linear_20_3999)"/>
<path d="M162.093 -42.0582V68.9958C162.093 80.2729 163.828 88.4446 167.299 93.5111C170.92 98.4141 177.332 100.866 186.535 100.866C195.739 100.866 202.076 98.4141 205.546 93.5111C209.167 88.4446 210.977 80.2729 210.977 68.9958V-42.0582H243.34V64.338C243.34 76.4321 242.36 86.7285 240.398 95.2271C238.437 103.726 235.193 110.753 230.667 116.31C226.291 121.704 220.483 125.708 213.24 128.323C205.998 130.774 197.097 132 186.535 132C175.974 132 167.072 130.774 159.83 128.323C152.588 125.708 146.704 121.704 142.178 116.31C137.802 110.753 134.634 103.726 132.672 95.2271C130.711 86.7285 129.73 76.4321 129.73 64.338V-42.0582H162.093Z" fill="url(#paint1_linear_20_3999)"/>
<path d="M305.55 129.058H273.187V-42.0582H341.534C355.717 -42.0582 366.505 -37.2368 373.897 -27.5942C381.29 -17.9515 384.987 -5.04017 384.987 11.1399C384.987 23.7244 382.799 34.3476 378.424 43.0097C374.048 51.6717 367.561 57.7188 358.961 61.151L386.571 129.058H351.492L327.05 64.338H305.55V129.058ZM337.461 35.1648C341.836 35.1648 345.231 34.0208 347.645 31.7327C350.21 29.2812 351.492 25.1136 351.492 19.2299V4.52078C351.492 -1.36288 350.21 -5.44875 347.645 -7.73684C345.231 -10.1884 341.836 -11.4141 337.461 -11.4141H305.55V35.1648H337.461Z" fill="url(#paint2_linear_20_3999)"/>
<path d="M564.967 39.8227L566.778 11.1399H563.157L553.425 38.3518L527.173 100.375L501.147 38.3518L491.415 11.1399H487.794L489.604 39.8227V129.058H459.278V-42.0582H493.226L514.725 8.93352L526.494 45.4612H528.757L540.525 8.93352L561.573 -42.0582H595.294V129.058H564.967V39.8227Z" fill="url(#paint3_linear_20_3999)"/>
<path d="M621.157 129.058V101.356H639.715V-14.356H621.157V-42.0582H690.636V-14.356H672.078V101.356H690.636V129.058H621.157Z" fill="url(#paint4_linear_20_3999)"/>
<path d="M762.482 132C738.794 132 720.236 123.011 706.808 105.033L727.629 82.4792C736.682 95.0637 748.526 101.356 763.161 101.356C778.248 101.356 785.792 94.1648 785.792 79.7825C785.792 73.8989 784.434 69.3227 781.719 66.054C779.003 62.7853 774.778 60.4972 769.045 59.1897L754.561 56.2479C739.926 53.3061 729.138 47.831 722.198 39.8227C715.408 31.651 712.014 20.374 712.014 5.99169C712.014 -10.6787 716.54 -23.3449 725.593 -32.0069C734.645 -40.669 747.922 -45 765.424 -45C787.754 -45 804.727 -37.1551 816.345 -21.4654L795.524 1.08864C791.601 -4.14127 787.15 -7.98199 782.171 -10.4335C777.343 -13.0485 771.61 -14.356 764.971 -14.356C757.729 -14.356 752.449 -12.885 749.129 -9.94321C745.961 -7.00138 744.377 -2.26177 744.377 4.27563C744.377 9.99585 745.584 14.3269 747.998 17.2687C750.563 20.2105 754.636 22.3352 760.219 23.6427L774.703 26.8296C782.398 28.6274 788.961 30.8338 794.392 33.4488C799.975 35.9003 804.501 39.0873 807.971 43.0097C811.592 46.9321 814.157 51.59 815.666 56.9834C817.326 62.3767 818.155 68.669 818.155 75.8601C818.155 94.1648 813.403 108.139 803.898 117.781C794.392 127.26 780.587 132 762.482 132Z" fill="url(#paint5_linear_20_3999)"/>
<path d="M886.027 132C862.339 132 843.781 123.011 830.353 105.033L851.174 82.4792C860.227 95.0637 872.071 101.356 886.706 101.356C901.793 101.356 909.337 94.1648 909.337 79.7825C909.337 73.8989 907.979 69.3227 905.264 66.054C902.548 62.7853 898.323 60.4972 892.59 59.1897L878.106 56.2479C863.471 53.3061 852.683 47.831 845.743 39.8227C838.953 31.651 835.559 20.374 835.559 5.99169C835.559 -10.6787 840.085 -23.3449 849.138 -32.0069C858.19 -40.669 871.467 -45 888.969 -45C911.299 -45 928.272 -37.1551 939.89 -21.4654L919.069 1.08864C915.146 -4.14127 910.695 -7.98199 905.716 -10.4335C900.888 -13.0485 895.155 -14.356 888.516 -14.356C881.274 -14.356 875.994 -12.885 872.674 -9.94321C869.506 -7.00138 867.922 -2.26177 867.922 4.27563C867.922 9.99585 869.129 14.3269 871.543 17.2687C874.108 20.2105 878.181 22.3352 883.764 23.6427L898.248 26.8296C905.943 28.6274 912.506 30.8338 917.937 33.4488C923.52 35.9003 928.046 39.0873 931.516 43.0097C935.137 46.9321 937.702 51.59 939.211 56.9834C940.87 62.3767 941.7 68.669 941.7 75.8601C941.7 94.1648 936.948 108.139 927.442 117.781C917.937 127.26 904.132 132 886.027 132Z" fill="url(#paint6_linear_20_3999)"/>
<path d="M960.408 129.058V101.356H978.966V-14.356H960.408V-42.0582H1029.89V-14.356H1011.33V101.356H1029.89V129.058H960.408Z" fill="url(#paint7_linear_20_3999)"/>
<path d="M1112.82 132C1103.32 132 1094.72 130.447 1087.02 127.342C1079.33 124.073 1072.76 118.925 1067.33 111.898C1061.9 104.706 1057.68 95.554 1054.66 84.4404C1051.64 73.1634 1050.13 59.5166 1050.13 43.5C1050.13 27.4834 1051.64 13.9183 1054.66 2.8047C1057.68 -8.47231 1061.9 -17.6247 1067.33 -24.6524C1072.76 -31.8435 1079.33 -36.9917 1087.02 -40.097C1094.72 -43.3657 1103.32 -45 1112.82 -45C1122.33 -45 1130.93 -43.3657 1138.62 -40.097C1146.32 -36.9917 1152.88 -31.8435 1158.31 -24.6524C1163.74 -17.6247 1167.97 -8.47231 1170.99 2.8047C1174 13.9183 1175.51 27.4834 1175.51 43.5C1175.51 59.5166 1174 73.1634 1170.99 84.4404C1167.97 95.554 1163.74 104.706 1158.31 111.898C1152.88 118.925 1146.32 124.073 1138.62 127.342C1130.93 130.447 1122.33 132 1112.82 132ZM1112.82 101.111C1121.88 101.111 1128.82 98.169 1133.64 92.2853C1138.62 86.4017 1141.11 77.5762 1141.11 65.8089V21.1911C1141.11 9.42382 1138.62 0.598339 1133.64 -5.28532C1128.82 -11.169 1121.88 -14.1108 1112.82 -14.1108C1103.77 -14.1108 1096.75 -11.169 1091.78 -5.28532C1086.95 0.598339 1084.53 9.42382 1084.53 21.1911V65.8089C1084.53 77.5762 1086.95 86.4017 1091.78 92.2853C1096.75 98.169 1103.77 101.111 1112.82 101.111Z" fill="url(#paint8_linear_20_3999)"/>
<path d="M1242.86 37.3712L1232.91 10.1593H1229.28L1231.1 38.8421V129.058H1200.77V-42.0582H1236.07L1275.91 49.6288L1285.86 76.8407H1289.48L1287.67 48.1579V-42.0582H1318V129.058H1282.69L1242.86 37.3712Z" fill="url(#paint9_linear_20_3999)"/>
</g>
<defs>
<linearGradient id="paint0_linear_20_3999" x1="649" y1="-30.5" x2="649" y2="145" gradientUnits="userSpaceOnUse">
<stop stop-color="#333333"/>
<stop offset="1" stop-color="#333333" stop-opacity="0"/>
</linearGradient>
<linearGradient id="paint1_linear_20_3999" x1="649" y1="-30.5" x2="649" y2="145" gradientUnits="userSpaceOnUse">
<stop stop-color="#333333"/>
<stop offset="1" stop-color="#333333" stop-opacity="0"/>
</linearGradient>
<linearGradient id="paint2_linear_20_3999" x1="649" y1="-30.5" x2="649" y2="145" gradientUnits="userSpaceOnUse">
<stop stop-color="#333333"/>
<stop offset="1" stop-color="#333333" stop-opacity="0"/>
</linearGradient>
<linearGradient id="paint3_linear_20_3999" x1="649" y1="-30.5" x2="649" y2="145" gradientUnits="userSpaceOnUse">
<stop stop-color="#333333"/>
<stop offset="1" stop-color="#333333" stop-opacity="0"/>
</linearGradient>
<linearGradient id="paint4_linear_20_3999" x1="649" y1="-30.5" x2="649" y2="145" gradientUnits="userSpaceOnUse">
<stop stop-color="#333333"/>
<stop offset="1" stop-color="#333333" stop-opacity="0"/>
</linearGradient>
<linearGradient id="paint5_linear_20_3999" x1="649" y1="-30.5" x2="649" y2="145" gradientUnits="userSpaceOnUse">
<stop stop-color="#333333"/>
<stop offset="1" stop-color="#333333" stop-opacity="0"/>
</linearGradient>
<linearGradient id="paint6_linear_20_3999" x1="649" y1="-30.5" x2="649" y2="145" gradientUnits="userSpaceOnUse">
<stop stop-color="#333333"/>
<stop offset="1" stop-color="#333333" stop-opacity="0"/>
</linearGradient>
<linearGradient id="paint7_linear_20_3999" x1="649" y1="-30.5" x2="649" y2="145" gradientUnits="userSpaceOnUse">
<stop stop-color="#333333"/>
<stop offset="1" stop-color="#333333" stop-opacity="0"/>
</linearGradient>
<linearGradient id="paint8_linear_20_3999" x1="649" y1="-30.5" x2="649" y2="145" gradientUnits="userSpaceOnUse">
<stop stop-color="#333333"/>
<stop offset="1" stop-color="#333333" stop-opacity="0"/>
</linearGradient>
<linearGradient id="paint9_linear_20_3999" x1="649" y1="-30.5" x2="649" y2="145" gradientUnits="userSpaceOnUse">
<stop stop-color="#333333"/>
<stop offset="1" stop-color="#333333" stop-opacity="0"/>
</linearGradient>
</defs>
</svg>
