<svg width="1920" height="354" viewBox="0 0 1920 354" fill="none" xmlns="http://www.w3.org/2000/svg">
<path d="M68.7742 354C43.2646 354 22.8871 346.304 7.64168 330.913C-7.45277 315.522 -15 295.302 -15 270.253V83.7468C-15 58.5473 -7.45277 38.3274 7.64168 23.087C22.8871 7.69565 43.2646 0 68.7742 0C94.4348 0 114.812 7.69565 129.907 23.087C145.001 38.3274 152.548 58.5473 152.548 83.7468V270.253C152.548 295.302 145.001 315.522 129.907 330.913C114.812 346.304 94.4348 354 68.7742 354ZM68.7742 292.887C76.0195 292.887 81.6045 290.85 85.529 286.776C89.4536 282.551 91.4159 277.043 91.4159 270.253V83.7468C91.4159 76.9565 89.4536 71.5243 85.529 67.4501C81.6045 63.2251 76.0195 61.1125 68.7742 61.1125C61.5289 61.1125 55.9439 63.2251 52.0194 67.4501C48.0948 71.5243 46.1325 76.9565 46.1325 83.7468V270.253C46.1325 277.043 48.0948 282.551 52.0194 286.776C55.9439 290.85 61.5289 292.887 68.7742 292.887Z" fill="#E1E7EB" fill-opacity="0.55"/>
<path d="M379.029 7.24295V270.253C379.029 295.302 371.482 315.522 356.387 330.913C341.293 346.304 320.915 354 295.255 354C269.745 354 249.367 346.304 234.122 330.913C219.028 315.522 211.48 295.302 211.48 270.253V7.24295H272.613V270.253C272.613 277.043 274.575 282.551 278.5 286.776C282.424 290.85 288.009 292.887 295.255 292.887C302.5 292.887 308.085 290.85 312.009 286.776C315.934 282.551 317.896 277.043 317.896 270.253V7.24295H379.029Z" fill="#E1E7EB" fill-opacity="0.55"/>
<path d="M442.815 346.757V7.24295H526.589C552.249 7.24295 572.627 14.9386 587.721 30.3299C602.816 45.5703 610.363 65.7903 610.363 90.9898V145.312C610.363 161.307 607.193 175.416 600.854 187.638C594.514 199.861 585.457 209.744 573.684 217.289L569.155 197.371C582.287 202.049 592.401 208.99 599.495 218.194C606.74 227.399 610.363 238.565 610.363 251.693V346.757H549.231V251.693C549.231 244.903 547.268 239.471 543.344 235.396C539.419 231.171 533.834 229.059 526.589 229.059H503.947V346.757H442.815ZM503.947 167.946H526.589C533.834 167.946 539.419 165.909 543.344 161.835C547.268 157.61 549.231 152.102 549.231 145.312V90.9898C549.231 84.1995 547.268 78.7673 543.344 74.6931C539.419 70.468 533.834 68.3555 526.589 68.3555H503.947V167.946Z" fill="#E1E7EB" fill-opacity="0.55"/>
<path d="M817.825 346.757L753.522 7.24295H816.013L854.957 260.294H846.806L884.391 7.24295H946.882L883.938 346.757H817.825Z" fill="#E1E7EB" fill-opacity="0.55"/>
<path d="M951.637 346.757L1015.94 7.24295H1082.05L1145 346.757H1082.51L1074.81 293.793H1022.28L1014.13 346.757H951.637ZM1031.34 232.68H1065.75L1044.92 89.6317H1053.07L1031.34 232.68Z" fill="#E1E7EB" fill-opacity="0.55"/>
<path d="M1245.99 7.24295V285.645H1316.18V346.757H1184.86V7.24295H1245.99Z" fill="#E1E7EB" fill-opacity="0.55"/>
<path d="M1521.28 7.24295V270.253C1521.28 295.302 1513.74 315.522 1498.64 330.913C1483.55 346.304 1463.17 354 1437.51 354C1412 354 1391.62 346.304 1376.38 330.913C1361.28 315.522 1353.74 295.302 1353.74 270.253V7.24295H1414.87V270.253C1414.87 277.043 1416.83 282.551 1420.75 286.776C1424.68 290.85 1430.26 292.887 1437.51 292.887C1444.75 292.887 1450.34 290.85 1454.26 286.776C1458.19 282.551 1460.15 277.043 1460.15 270.253V7.24295H1521.28Z" fill="#E1E7EB" fill-opacity="0.55"/>
<path d="M1725.45 7.24295V68.3555H1646.2V136.258H1713.22V197.371H1646.2V285.645H1725.45V346.757H1585.07V7.24295H1725.45Z" fill="#E1E7EB" fill-opacity="0.55"/>
<path d="M1851.23 354C1825.72 354 1805.34 346.304 1790.09 330.913C1775 315.522 1767.45 295.302 1767.45 270.253V252.146H1828.58V270.253C1828.58 277.043 1830.55 282.551 1834.47 286.776C1838.4 290.85 1843.98 292.887 1851.23 292.887C1858.47 292.887 1864.06 290.85 1867.98 286.776C1871.91 282.551 1873.87 277.043 1873.87 270.253V235.396C1873.87 231.473 1873.72 228.38 1873.41 226.116C1873.11 223.853 1872.28 222.042 1870.92 220.684C1869.72 219.326 1867.53 218.119 1864.36 217.063C1861.34 215.855 1856.96 214.422 1851.23 212.762C1830.24 206.425 1814.02 201.068 1802.55 196.692C1791.07 192.165 1782.85 187.336 1777.87 182.206C1772.89 177.075 1769.87 170.436 1768.81 162.288C1767.9 153.988 1767.45 142.898 1767.45 129.015V83.7468C1767.45 58.5473 1775 38.3274 1790.09 23.087C1805.34 7.69565 1825.72 0 1851.23 0C1876.89 0 1897.26 7.69565 1912.36 23.087C1927.45 38.3274 1935 58.5473 1935 83.7468V101.854H1873.87V83.7468C1873.87 76.9565 1871.91 71.5243 1867.98 67.4501C1864.06 63.2251 1858.47 61.1125 1851.23 61.1125C1843.98 61.1125 1838.4 63.2251 1834.47 67.4501C1830.55 71.5243 1828.58 76.9565 1828.58 83.7468V129.015C1828.58 132.939 1828.74 136.032 1829.04 138.295C1829.34 140.559 1830.09 142.37 1831.3 143.728C1832.66 145.086 1834.92 146.368 1838.09 147.575C1841.26 148.632 1845.64 149.99 1851.23 151.65C1872.21 157.987 1888.43 163.419 1899.91 167.946C1911.38 172.322 1919.6 177.075 1924.58 182.206C1929.57 187.336 1932.51 194.051 1933.42 202.35C1934.47 210.499 1935 221.514 1935 235.396V270.253C1935 295.302 1927.45 315.522 1912.36 330.913C1897.26 346.304 1876.89 354 1851.23 354Z" fill="#E1E7EB" fill-opacity="0.55"/>
</svg>
