<svg width="408" height="803" viewBox="0 0 408 803" fill="none" xmlns="http://www.w3.org/2000/svg">
<g clip-path="url(#clip0_46_40)">
<path d="M302.104 758.657L295.929 758.545L231.99 721.607C230.858 721.112 229.626 720.886 228.392 720.948C227.158 721.01 225.955 721.358 224.878 721.964L166.424 756.337H161.207V760.798C161.25 761.167 161.385 761.52 161.599 761.824C161.813 762.128 162.1 762.373 162.433 762.538L231.321 802.331C232.45 802.839 233.684 803.071 234.92 803.009C236.156 802.947 237.36 802.592 238.433 801.974L300.343 765.571C300.797 765.376 301.194 765.069 301.498 764.679C301.802 764.289 302.002 763.829 302.082 763.341L302.104 758.657Z" fill="#B5BDBD"/>
<path d="M232.101 717.101L301.012 756.894C302.818 757.943 302.572 759.794 300.454 761.043L238.544 797.446C237.468 798.055 236.264 798.403 235.028 798.461C233.793 798.519 232.561 798.286 231.433 797.781L162.545 757.987C160.739 756.961 160.962 755.088 163.08 753.839L224.99 717.458C226.062 716.84 227.266 716.486 228.503 716.424C229.739 716.361 230.972 716.594 232.101 717.101Z" fill="#EFEAEA"/>
<path d="M257.516 757.43V737.154H206.24V757.43C206.24 761.199 208.804 765.014 213.82 767.891C223.875 773.713 240.105 773.735 250.115 767.891C254.997 765.081 257.516 761.244 257.516 757.43Z" fill="url(#paint0_linear_46_40)"/>
<path d="M257.405 737.154L246.838 286.002L216.696 285.846L206.107 737.154C206.107 740.991 208.604 744.849 213.687 747.771C223.741 753.593 239.971 753.615 249.981 747.771C255.064 745.005 257.516 741.035 257.405 737.154Z" fill="url(#paint1_linear_46_40)"/>
<path d="M242.401 279.845C239.095 278.168 235.44 277.294 231.734 277.294C228.027 277.294 224.372 278.168 221.066 279.845C215.203 283.236 215.225 288.768 221.066 292.158C224.372 293.835 228.027 294.71 231.734 294.71C235.44 294.71 239.095 293.835 242.401 292.158C248.331 288.768 248.309 283.281 242.401 279.845Z" fill="#FCFAFA"/>
<path d="M240.618 280.872C237.857 279.46 234.801 278.724 231.7 278.724C228.6 278.724 225.543 279.46 222.783 280.872C217.878 283.704 217.923 288.299 222.783 291.132C225.543 292.544 228.6 293.28 231.7 293.28C234.801 293.28 237.857 292.544 240.618 291.132C245.567 288.299 245.545 283.704 240.618 280.872Z" fill="#FCFAFA"/>
<path d="M296.508 232.468C296.347 229.207 295.414 226.03 293.786 223.199C292.159 220.368 289.882 217.964 287.145 216.185L262.778 202.111C253.058 196.78 246.124 200.772 244.43 201.709L180.759 238.491L221.49 316.248L286.008 278.998C286.721 278.485 290.266 276.254 291.626 268.827L296.508 243.956V232.468Z" fill="url(#paint2_linear_46_40)"/>
<path d="M126.429 300.567C99.5058 302.697 72.4278 301.731 45.7248 297.69C30.2973 295.539 15.0456 292.274 0.0892487 287.92H-0.0221863C-0.0221863 287.92 13.8223 283.459 37.8773 278.507C62.9051 273.365 88.2161 269.716 113.676 267.577C142.658 265.124 172.51 270.209 176.099 279.31L176.278 279.868C176.297 280.031 176.297 280.195 176.278 280.358C177.437 289.125 151.019 298.471 126.429 300.567Z" fill="url(#paint3_linear_46_40)"/>
<path d="M126.428 300.567C83.9145 303.809 41.1623 299.528 0.133743 287.92C21.5135 293.296 148.566 313.304 175.943 279.266L176.122 279.823C176.141 279.986 176.141 280.151 176.122 280.314C177.437 289.125 151.019 298.471 126.428 300.567Z" fill="#DBD6D6"/>
<path d="M217.387 315.847L187.068 298.337C185.547 297.342 184.259 296.029 183.294 294.489C182.328 292.949 181.706 291.218 181.472 289.415L177.86 256.068V244.224C177.972 238.536 182.074 236.149 187.224 239.138L217.387 256.514C220.13 258.292 222.41 260.699 224.039 263.535C225.667 266.37 226.597 269.553 226.751 272.819V284.284L223.162 313.46C222.716 316.471 220.33 317.497 217.387 315.847Z" fill="#E8E3E3"/>
<path d="M215.961 276.99C215.961 283.169 211.502 285.645 206.218 282.544C203.389 280.708 201.032 278.231 199.339 275.312C197.647 272.394 196.666 269.117 196.476 265.748C196.476 259.57 200.935 257.094 206.218 260.194C209.048 262.03 211.404 264.508 213.097 267.427C214.79 270.345 215.771 273.622 215.961 276.99Z" fill="#515151"/>
<path d="M175.029 284.106C175.029 284.106 180.892 289.013 186.51 288.567C178.485 282.009 181.873 268.024 181.873 268.024C179.617 267.754 177.337 268.273 175.42 269.493C173.502 270.712 172.065 272.557 171.351 274.715L171.484 274.849C171.25 276.566 171.452 278.314 172.071 279.932C172.691 281.55 173.708 282.986 175.029 284.106Z" fill="url(#paint4_linear_46_40)"/>
<path d="M210.9 280.894C210.657 276.605 209.408 272.434 207.254 268.718C205.101 265.002 202.103 261.845 198.505 259.503C194.224 257.027 190.434 257.272 188.227 259.86C184.795 263.867 181.707 268.158 178.997 272.685C177.214 276.477 180.87 291.154 189.186 291.154C194.617 291.086 200.032 290.548 205.371 289.548H205.505H205.75C208.849 288.656 210.9 285.645 210.9 280.894Z" fill="url(#paint5_linear_46_40)"/>
<path d="M204.011 0V191.047C204.011 229.435 198.237 261.867 191.125 257.785C190.679 257.526 190.292 257.177 189.988 256.759C183.412 248.975 178.262 208.222 178.262 176.192C178.262 131.268 184.571 87.6162 190.947 54.9832C197.033 23.7554 203.186 2.74358 203.922 0.245362C203.961 0.167434 203.991 0.0850581 204.011 0Z" fill="url(#paint6_linear_46_40)"/>
<path d="M408 523.534L407.532 523.177C404.344 520.723 387.334 507.563 363.724 486.707C333.516 459.941 292.54 420.772 255.911 375.358C232.324 346.093 211.948 315.735 207.132 302.798C206.04 299.876 205.75 297.846 206.397 296.909C209.964 291.89 243.248 325.55 268.819 357.134C305.181 402.214 342.233 446.356 368.963 477.852C391.725 504.775 407.019 522.396 408 523.534Z" fill="url(#paint7_linear_46_40)"/>
<path d="M187.581 252.231C187.581 252.231 183.501 254.952 183.501 262.38C182.81 269.786 196.52 272.039 198.839 271.302C204.19 267.667 195.941 255.042 195.941 255.042L194.848 256.603C192.708 257.25 189.654 255.443 187.581 252.231Z" fill="url(#paint8_linear_46_40)"/>
<path d="M210.833 297.623C210.833 297.623 210.833 284.128 203.431 283.057C194.514 285.511 192.53 291.98 195.762 293.853C199.068 297.398 202.904 300.408 207.132 302.776C207.155 299.809 208.47 297.824 210.833 297.623Z" fill="url(#paint9_linear_46_40)"/>
<path d="M193.778 285.511C193.778 290.508 190.256 292.515 185.909 289.972C183.622 288.486 181.718 286.482 180.35 284.122C178.983 281.761 178.191 279.112 178.039 276.388C178.039 271.392 181.561 269.384 185.909 271.927C188.193 273.416 190.095 275.421 191.462 277.78C192.829 280.14 193.623 282.788 193.778 285.511Z" fill="#F5F0F0"/>
<path d="M221.846 257.049C223.765 258.525 225.372 260.367 226.574 262.47C227.775 264.572 228.548 266.892 228.846 269.295C236.56 265.213 295.082 233.227 295.082 233.227C295.082 233.227 293.632 223.591 288.616 219.844L221.846 257.049Z" fill="#F5F0F0"/>
<path d="M190.033 256.759C183.456 248.975 178.306 208.222 178.306 176.192C178.306 88.33 202.451 5.35333 203.967 0.245361C171.418 131.09 180.558 229.212 189.275 254.35C189.565 255.22 189.832 256.023 190.033 256.759Z" fill="#F5F0F0"/>
<path d="M407.532 523.177C400.242 517.6 321.121 456.26 255.934 375.358C232.347 346.093 211.97 315.735 207.155 302.798C208.18 304.582 276.332 419.344 407.532 523.177Z" fill="#D9D4D4"/>
<path d="M408 523.534L407.532 523.177C404.344 520.723 387.334 507.563 363.724 486.707C365.609 483.871 367.343 480.938 368.919 477.919C391.725 504.775 407.019 522.396 408 523.534ZM204.011 0.245362C204.02 0.163835 204.02 0.0815278 204.011 0V63.5262C199.686 60.5522 195.331 57.7045 190.947 54.9832C197.078 23.8223 203.231 2.74358 204.011 0.245362ZM37.8773 278.463C40.3445 284.887 42.99 291.296 45.8139 297.69C30.3864 295.539 15.1348 292.274 0.178375 287.92H0.066864C0.066864 287.92 13.8668 283.414 37.8327 278.463H37.8773Z" fill="#FF629B"/>
<path d="M253.058 93.6832C250.115 91.988 247.729 93.3487 247.729 96.7391C247.827 98.5836 248.361 100.378 249.287 101.976C250.214 103.574 251.506 104.929 253.058 105.929C256 107.624 258.386 106.264 258.408 102.873C258.301 101.028 257.761 99.2349 256.831 97.6381C255.902 96.0414 254.609 94.6865 253.058 93.6832Z" fill="#9CBCFF"/>
<path d="M253.058 79.9654C248.354 77.2218 244.14 77.1103 241.108 79.1178C240.283 79.6754 240.372 81.3483 241.286 82.7982C241.648 83.3956 242.144 83.8999 242.736 84.2703C242.981 84.4202 243.262 84.4994 243.549 84.4994C243.836 84.4994 244.118 84.4202 244.363 84.2703C246.592 82.8205 249.624 82.9097 253.035 84.8949C256.705 87.2033 259.697 90.4435 261.708 94.2855C262.073 95.0147 262.637 95.6255 263.335 96.0477C263.545 96.1904 263.785 96.2827 264.036 96.3175C264.288 96.3524 264.543 96.3287 264.784 96.2484C265.698 95.8692 265.787 94.2855 264.963 92.7688C262.205 87.5161 258.095 83.0959 253.058 79.9654Z" fill="#9CBCFF"/>
<path d="M253.191 65.4446C245.79 61.1619 238.812 60.4704 233.551 63.4594C233.194 63.6601 232.859 63.8832 232.525 64.1062C231.722 64.6639 231.812 66.3368 232.726 67.7867C233.081 68.3816 233.569 68.8856 234.152 69.2588C234.401 69.4201 234.692 69.506 234.988 69.506C235.285 69.506 235.575 69.4201 235.825 69.2588C240.105 66.2699 246.303 66.426 253.169 70.3964C260.53 75.0214 266.507 81.5485 270.469 89.2892C270.85 90.0208 271.42 90.6369 272.119 91.0737C272.328 91.2185 272.567 91.3139 272.818 91.3526C273.069 91.3912 273.325 91.3721 273.568 91.2967C274.504 90.8952 274.594 89.3338 273.769 87.817C273.457 87.2148 273.122 86.5902 272.765 85.988C268.098 77.5824 261.36 70.5106 253.191 65.4446Z" fill="#9CBCFF"/>
<path d="M253.214 50.9458C242.736 44.8787 232.859 43.875 225.413 48.113C224.884 48.4216 224.371 48.7566 223.875 49.1168C223.05 49.6744 223.139 51.3474 224.053 52.7972C224.425 53.3936 224.929 53.8971 225.525 54.2694C225.771 54.4261 226.057 54.5094 226.35 54.5094C226.642 54.5094 226.928 54.4261 227.174 54.2694C233.573 49.8083 242.892 49.9198 253.214 55.8754C263.536 61.831 272.81 72.3815 279.164 84.2927C279.535 85.037 280.106 85.6628 280.813 86.0994C281.02 86.2491 281.259 86.3474 281.511 86.3861C281.763 86.4249 282.021 86.4031 282.263 86.3225C283.199 85.921 283.288 84.3596 282.485 82.8651C281.995 81.9283 281.482 81.0138 280.947 80.0992C274.362 68.1574 264.81 58.1163 253.214 50.9458Z" fill="#9CBCFF"/>
<path d="M252.054 91.6981C252.663 91.421 253.335 91.3101 254 91.3767C254.666 91.4433 255.302 91.685 255.844 92.0773C257.394 93.0852 258.684 94.4448 259.61 96.0455C260.536 97.6462 261.071 99.4429 261.173 101.289C261.238 101.946 261.127 102.607 260.853 103.207C260.579 103.806 260.151 104.322 259.612 104.702L256.87 106.308C257.412 105.927 257.843 105.407 258.117 104.803C258.391 104.199 258.5 103.533 258.43 102.873C258.321 101.026 257.777 99.2316 256.844 97.6347C255.91 96.0379 254.613 94.684 253.058 93.6833C252.514 93.2946 251.876 93.0569 251.211 92.9942C250.545 92.9315 249.875 93.0461 249.268 93.3264L252.054 91.6981Z" fill="#5875B0"/>
<path d="M244.385 77.2442C247.328 75.5267 251.408 75.772 255.889 78.3595C260.939 81.5327 265.049 85.9994 267.794 91.2967C268.596 92.7466 268.53 94.241 267.794 94.7095L265.052 96.3155C265.854 95.847 265.921 94.3303 265.052 92.8804C262.286 87.5756 258.143 83.1143 253.058 79.9655C248.599 77.3557 244.497 77.1327 241.554 78.8279L244.385 77.2442Z" fill="#5875B0"/>
<path d="M236.204 61.9202C241.465 58.909 248.443 59.6897 255.844 63.9054C264.037 68.9907 270.779 76.105 275.418 84.5604C275.775 85.1626 276.11 85.7649 276.422 86.3894C277.202 87.817 277.157 89.3114 276.422 89.7799L273.679 91.3859C274.504 90.9174 274.549 89.423 273.679 87.9731C273.367 87.3709 273.033 86.7463 272.676 86.1441C268.024 77.6976 261.285 70.5861 253.102 65.4891C245.701 61.2064 238.723 60.515 233.461 63.5039L236.204 61.9202Z" fill="#5875B0"/>
<path d="M228.044 46.5962H228.155C235.602 42.3582 245.478 43.3619 255.956 49.4067C267.556 56.62 277.107 66.6979 283.689 78.6716C284.224 79.5862 284.737 80.523 285.228 81.4375C286.008 82.8874 285.941 84.3595 285.116 84.8503L282.374 86.434C283.199 85.9655 283.266 84.4711 282.374 83.0435C281.884 82.1067 281.371 81.1922 280.836 80.2776C274.266 68.2949 264.712 58.2142 253.102 51.0127C242.624 44.9456 232.748 43.9419 225.302 48.1799L228.044 46.5962Z" fill="#5875B0"/>
<path d="M253.102 124.465H255.978V215.717H253.102V124.465Z" fill="#9CBCFF"/>
<path d="M250.137 121.9C250.137 119.023 252.166 117.863 254.596 119.312C255.902 120.18 256.986 121.343 257.76 122.707C258.534 124.071 258.978 125.597 259.055 127.164C259.055 130.041 257.026 131.201 254.596 129.751C253.289 128.885 252.204 127.722 251.43 126.358C250.655 124.994 250.212 123.467 250.137 121.9Z" fill="#9CBCFF"/>
<path d="M250.137 213.152C250.137 210.274 252.166 209.115 254.596 210.564C255.903 211.431 256.988 212.594 257.762 213.958C258.537 215.322 258.98 216.849 259.055 218.416C259.055 221.293 257.026 222.453 254.596 221.003C253.29 220.135 252.206 218.973 251.432 217.609C250.657 216.245 250.214 214.719 250.137 213.152Z" fill="#9CBCFF"/>
</g>
<defs>
<linearGradient id="paint0_linear_46_40" x1="206.107" y1="754.709" x2="257.427" y2="754.709" gradientUnits="userSpaceOnUse">
<stop offset="0.13" stop-color="#858A92"/>
<stop offset="0.36" stop-color="#858A92"/>
<stop offset="0.39" stop-color="#858A92"/>
<stop offset="0.53" stop-color="#7C8189"/>
<stop offset="0.74" stop-color="#676C74"/>
<stop offset="0.96" stop-color="#676C74"/>
</linearGradient>
<linearGradient id="paint1_linear_46_40" x1="206.107" y1="519.006" x2="257.405" y2="519.006" gradientUnits="userSpaceOnUse">
<stop offset="0.13" stop-color="#F5F0F0"/>
<stop offset="0.36" stop-color="#F5F0F0"/>
<stop offset="0.39" stop-color="#F5F0F0"/>
<stop offset="0.53" stop-color="#ECE7E7"/>
<stop offset="0.74" stop-color="#D7D2D2"/>
<stop offset="0.96" stop-color="#D7D2D2"/>
</linearGradient>
<linearGradient id="paint2_linear_46_40" x1="268.753" y1="288.968" x2="224.866" y2="213.016" gradientUnits="userSpaceOnUse">
<stop stop-color="#C9C5C5"/>
<stop offset="0.06" stop-color="#C9C5C5"/>
<stop offset="0.07" stop-color="#C9C5C5"/>
<stop offset="0.48" stop-color="#DBDBDB"/>
<stop offset="0.5" stop-color="#E0DFDF"/>
<stop offset="0.55" stop-color="#EBE7E7"/>
<stop offset="0.6" stop-color="#EFEAEA"/>
</linearGradient>
<linearGradient id="paint3_linear_46_40" x1="91.717" y1="318.925" x2="86.9858" y2="273.221" gradientUnits="userSpaceOnUse">
<stop offset="0.04" stop-color="#D7D2D2"/>
<stop offset="0.26" stop-color="#D7D2D2"/>
<stop offset="0.47" stop-color="#ECE7E7"/>
<stop offset="0.61" stop-color="#F5F0F0"/>
<stop offset="0.64" stop-color="#F5F0F0"/>
<stop offset="0.87" stop-color="#F5F0F0"/>
</linearGradient>
<linearGradient id="paint4_linear_46_40" x1="171.418" y1="278.24" x2="186.555" y2="278.24" gradientUnits="userSpaceOnUse">
<stop offset="0.13" stop-color="#858A92"/>
<stop offset="0.36" stop-color="#858A92"/>
<stop offset="0.39" stop-color="#858A92"/>
<stop offset="0.53" stop-color="#7C8189"/>
<stop offset="0.74" stop-color="#676C74"/>
<stop offset="0.96" stop-color="#676C74"/>
</linearGradient>
<linearGradient id="paint5_linear_46_40" x1="202.607" y1="291.511" x2="185.137" y2="261.273" gradientUnits="userSpaceOnUse">
<stop offset="0.04" stop-color="#D7D2D2"/>
<stop offset="0.26" stop-color="#D7D2D2"/>
<stop offset="0.47" stop-color="#ECE7E7"/>
<stop offset="0.61" stop-color="#F5F0F0"/>
<stop offset="0.64" stop-color="#F5F0F0"/>
<stop offset="0.87" stop-color="#F5F0F0"/>
</linearGradient>
<linearGradient id="paint6_linear_46_40" x1="178.596" y1="128.034" x2="223.385" y2="130.396" gradientUnits="userSpaceOnUse">
<stop offset="0.13" stop-color="#F5F0F0"/>
<stop offset="0.36" stop-color="#F5F0F0"/>
<stop offset="0.39" stop-color="#F5F0F0"/>
<stop offset="0.53" stop-color="#ECE7E7"/>
<stop offset="0.74" stop-color="#D7D2D2"/>
<stop offset="0.96" stop-color="#D7D2D2"/>
</linearGradient>
<linearGradient id="paint7_linear_46_40" x1="286.186" y1="431.947" x2="321.898" y2="395.05" gradientUnits="userSpaceOnUse">
<stop offset="0.04" stop-color="#D7D2D2"/>
<stop offset="0.26" stop-color="#D7D2D2"/>
<stop offset="0.47" stop-color="#ECE7E7"/>
<stop offset="0.61" stop-color="#F5F0F0"/>
<stop offset="0.64" stop-color="#F5F0F0"/>
<stop offset="0.87" stop-color="#F5F0F0"/>
</linearGradient>
<linearGradient id="paint8_linear_46_40" x1="183.479" y1="261.8" x2="200.645" y2="261.8" gradientUnits="userSpaceOnUse">
<stop offset="0.13" stop-color="#858A92"/>
<stop offset="0.36" stop-color="#858A92"/>
<stop offset="0.39" stop-color="#858A92"/>
<stop offset="0.53" stop-color="#7C8189"/>
<stop offset="0.74" stop-color="#676C74"/>
<stop offset="0.96" stop-color="#676C74"/>
</linearGradient>
<linearGradient id="paint9_linear_46_40" x1="194.291" y1="292.939" x2="210.811" y2="292.939" gradientUnits="userSpaceOnUse">
<stop offset="0.13" stop-color="#858A92"/>
<stop offset="0.36" stop-color="#858A92"/>
<stop offset="0.39" stop-color="#858A92"/>
<stop offset="0.53" stop-color="#7C8189"/>
<stop offset="0.74" stop-color="#676C74"/>
<stop offset="0.96" stop-color="#676C74"/>
</linearGradient>
<clipPath id="clip0_46_40">
<rect width="408" height="803" fill="white" transform="matrix(-1 0 0 1 408 0)"/>
</clipPath>
</defs>
</svg>
