<svg width="24" height="24" viewBox="0 0 24 24" fill="none" xmlns="http://www.w3.org/2000/svg">
<path d="M13.0565 18.4312C12.9556 18.3301 12.8989 18.1931 12.8989 18.0503C12.8989 17.9074 12.9556 17.7704 13.0565 17.6693L18.6044 12.1206L4.09374 12.1206C3.95077 12.1206 3.81366 12.0638 3.71256 11.9627C3.61147 11.8616 3.55468 11.7245 3.55468 11.5815C3.55468 11.4386 3.61147 11.3014 3.71256 11.2004C3.81366 11.0993 3.95077 11.0425 4.09374 11.0425L18.6044 11.0425L13.0565 5.49371C12.9613 5.39152 12.9095 5.25636 12.912 5.11671C12.9144 4.97706 12.971 4.84381 13.0698 4.74505C13.1685 4.64628 13.3018 4.58971 13.4414 4.58724C13.5811 4.58478 13.7162 4.63662 13.8184 4.73184L20.2872 11.2006C20.3881 11.3017 20.4448 11.4387 20.4448 11.5815C20.4448 11.7244 20.3881 11.8614 20.2872 11.9625L13.8184 18.4312C13.7173 18.5322 13.5803 18.5889 13.4375 18.5889C13.2946 18.5889 13.1576 18.5322 13.0565 18.4312Z" fill="black"/>
</svg>
