<svg width="23" height="23" viewBox="0 0 23 23" fill="none" xmlns="http://www.w3.org/2000/svg">
<path d="M12.5565 18.3497C12.4556 18.2486 12.3989 18.1116 12.3989 17.9687C12.3989 17.8259 12.4556 17.6889 12.5565 17.5878L18.1044 12.039L3.59374 12.039C3.45077 12.039 3.31366 11.9823 3.21256 11.8812C3.11147 11.7801 3.05468 11.6429 3.05468 11.5C3.05468 11.357 3.11147 11.2199 3.21256 11.1188C3.31366 11.0177 3.45077 10.9609 3.59374 10.9609L18.1044 10.9609L12.5565 5.41217C12.4613 5.30998 12.4095 5.17482 12.412 5.03517C12.4144 4.89551 12.471 4.76227 12.5698 4.6635C12.6685 4.56474 12.8018 4.50816 12.9414 4.5057C13.0811 4.50323 13.2162 4.55507 13.3184 4.65029L19.7872 11.119C19.8881 11.2201 19.9448 11.3571 19.9448 11.5C19.9448 11.6428 19.8881 11.7798 19.7872 11.8809L13.3184 18.3497C13.2173 18.4506 13.0803 18.5073 12.9375 18.5073C12.7946 18.5073 12.6576 18.4506 12.5565 18.3497Z" fill="#F0F3F5"/>
</svg>
