<svg width="57" height="57" viewBox="0 0 57 57" fill="none" xmlns="http://www.w3.org/2000/svg">
<circle cx="28.5" cy="28.5" r="28.5" fill="#318337"/>
<path d="M23.0683 14.5686C23.8241 14.3407 24.6352 14.3785 25.3665 14.6758C26.0978 14.9731 26.7052 15.512 27.0877 16.2026L27.2155 16.4599L28.3589 19.0008C28.706 19.772 28.8186 20.6282 28.6829 21.4629C28.5471 22.2976 28.169 23.074 27.5955 23.6955L27.3658 23.9235L25.5642 25.6041C25.2395 25.9116 25.483 27.1017 26.6576 29.1364C27.7147 30.9673 28.5749 31.8223 28.998 31.8689H29.0723L29.1639 31.8517L32.7048 30.7687C33.1806 30.6227 33.6885 30.6169 34.1676 30.752C34.6467 30.8871 35.0767 31.1573 35.4062 31.5304L35.5634 31.729L37.9073 34.9763C38.3667 35.6128 38.5956 36.3867 38.5563 37.1707C38.5171 37.9547 38.212 38.7019 37.6914 39.2893L37.4807 39.5069L36.5445 40.3948C35.7038 41.1909 34.6522 41.7289 33.5147 41.9447C32.3772 42.1606 31.2016 42.0453 30.1277 41.6125C26.7854 40.2652 23.7489 37.1872 20.9904 32.4096C18.2268 27.6198 17.0781 23.445 17.5911 19.8696C17.7464 18.7888 18.1914 17.7702 18.879 16.922C19.5667 16.0738 20.4712 15.4277 21.4965 15.0522L21.8299 14.9417L23.0683 14.5686Z" fill="white"/>
</svg>
