<svg width="32" height="32" viewBox="0 0 32 32" fill="none" xmlns="http://www.w3.org/2000/svg">
<path d="M11.224 24H5C4.73478 24 4.48043 23.8946 4.29289 23.7071C4.10536 23.5196 4 23.2652 4 23V6H2C1.73478 6 1.48043 5.89464 1.29289 5.70711C1.10536 5.51957 1 5.26522 1 5C1 4.73478 1.10536 4.48043 1.29289 4.29289C1.48043 4.10536 1.73478 4 2 4H30C30.2652 4 30.5196 4.10536 30.7071 4.29289C30.8946 4.48043 31 4.73478 31 5C31 5.26522 30.8946 5.51957 30.7071 5.70711C30.5196 5.89464 30.2652 6 30 6H28V23C28 23.2652 27.8946 23.5196 27.7071 23.7071C27.5196 23.8946 27.2652 24 27 24H20.788L24.252 30H21.944L18.48 24H13.532L10.068 30H7.76L11.224 24ZM26 6H6V22H26V6ZM10.708 16.708C10.615 16.801 10.5046 16.8747 10.3832 16.925C10.2617 16.9754 10.1315 17.0013 10 17.0013C9.86851 17.0013 9.73831 16.9754 9.61683 16.925C9.49535 16.8747 9.38498 16.801 9.292 16.708C9.19902 16.615 9.12527 16.5046 9.07495 16.3832C9.02464 16.2617 8.99874 16.1315 8.99874 16C8.99874 15.8685 9.02464 15.7383 9.07495 15.6168C9.12527 15.4954 9.19902 15.385 9.292 15.292L13.906 10.68L17.826 13.62L21.22 9.376C21.2994 9.26649 21.4003 9.17423 21.5164 9.10482C21.6325 9.03541 21.7615 8.99028 21.8956 8.97217C22.0297 8.95406 22.166 8.96335 22.2964 8.99947C22.4268 9.03559 22.5485 9.09779 22.6542 9.18231C22.7598 9.26682 22.8472 9.3719 22.9111 9.49117C22.9749 9.61044 23.0139 9.74144 23.0257 9.87622C23.0374 10.011 23.0217 10.1468 22.9795 10.2753C22.9373 10.4038 22.8694 10.5225 22.78 10.624L18.176 16.382L14.094 13.32L10.708 16.706V16.708Z" fill="url(#paint0_linear_66_88)"/>
<defs>
<linearGradient id="paint0_linear_66_88" x1="1.10638" y1="17" x2="31.1064" y2="17" gradientUnits="userSpaceOnUse">
<stop stop-color="#0273A8"/>
<stop offset="1" stop-color="#49BA56"/>
</linearGradient>
</defs>
</svg>
