<svg width="22" height="23" viewBox="0 0 22 23" fill="none" xmlns="http://www.w3.org/2000/svg">
<path d="M3.1875 3.5H13.8125C15.02 3.5 16 4.50814 16 5.75031V12.8227C16 13.4195 15.7695 13.9919 15.3593 14.4139C14.9491 14.8359 14.3927 15.073 13.8125 15.073H9.82625L6.60875 18.3816C6.35381 18.6429 6.0294 18.8206 5.6764 18.8925C5.3234 18.9644 4.95761 18.9272 4.62514 18.7855C4.29268 18.6439 4.00841 18.4042 3.80818 18.0966C3.60795 17.789 3.50072 17.4273 3.5 17.0571V15.073H3.1875C2.60734 15.073 2.05094 14.8359 1.6407 14.4139C1.23047 13.9919 1 13.4195 1 12.8227L1 5.75031C1 4.50814 1.98 3.5 3.1875 3.5ZM2.875 5.75031V12.8227C2.875 13.0002 3.015 13.1442 3.1875 13.1442H4.4375C4.68614 13.1442 4.9246 13.2458 5.10041 13.4266C5.27623 13.6075 5.375 13.8528 5.375 14.1086V16.9247L8.775 13.4271C8.86193 13.3374 8.96519 13.2663 9.07887 13.2178C9.19255 13.1692 9.31442 13.1442 9.4375 13.1442H13.8125C13.8954 13.1442 13.9749 13.1103 14.0335 13.05C14.0921 12.9897 14.125 12.908 14.125 12.8227V5.75031C14.125 5.66505 14.0921 5.58328 14.0335 5.52299C13.9749 5.4627 13.8954 5.42884 13.8125 5.42884H3.1875C3.10462 5.42884 3.02513 5.4627 2.96653 5.52299C2.90792 5.58328 2.875 5.66505 2.875 5.75031ZM19.125 8.32209C19.125 8.23683 19.0921 8.15506 19.0335 8.09477C18.9749 8.03449 18.8954 8.00062 18.8125 8.00062H18.1875C17.9389 8.00062 17.7004 7.89901 17.5246 7.71814C17.3488 7.53728 17.25 7.29198 17.25 7.0362C17.25 6.78042 17.3488 6.53512 17.5246 6.35425C17.7004 6.17339 17.9389 6.07178 18.1875 6.07178H18.8125C20.02 6.07178 21 7.07992 21 8.32209V15.3945C21 15.9913 20.7695 16.5637 20.3593 16.9857C19.9491 17.4077 19.3927 17.6448 18.8125 17.6448H18.5V19.6289C18.4993 19.9991 18.392 20.3608 18.1918 20.6684C17.9916 20.976 17.7073 21.2157 17.3749 21.3573C17.0424 21.499 16.6766 21.5362 16.3236 21.4643C15.9706 21.3924 15.6462 21.2147 15.3913 20.9534L12.525 18.0048C12.4016 17.887 12.3114 17.737 12.2639 17.5708C12.2163 17.4046 12.2133 17.2283 12.255 17.0605C12.2967 16.8926 12.3817 16.7395 12.5009 16.6171C12.6201 16.4948 12.7692 16.4078 12.9325 16.3653C13.0955 16.3224 13.2667 16.3254 13.4281 16.374C13.5896 16.4227 13.7353 16.5152 13.85 16.6418L16.625 19.4965V16.6804C16.625 16.4246 16.7238 16.1793 16.8996 15.9984C17.0754 15.8176 17.3139 15.716 17.5625 15.716H18.8125C18.8954 15.716 18.9749 15.6821 19.0335 15.6218C19.0921 15.5615 19.125 15.4797 19.125 15.3945V8.32209Z" fill="black"/>
</svg>
