<svg width="18" height="19" viewBox="0 0 18 19" fill="none" xmlns="http://www.w3.org/2000/svg">
<path d="M8.91 7.355C9.87 7.4 10.1175 8.2175 10.1325 8.6H11.475C11.415 7.115 10.3575 6.2075 8.8875 6.2075C7.23 6.2075 6 7.25 6 9.605C6 11.06 6.6975 12.785 8.88 12.785C10.545 12.785 11.4375 11.5475 11.46 10.5725H10.1175C10.095 11.015 9.78 11.6075 8.895 11.6525C7.9125 11.6225 7.5 10.8575 7.5 9.605C7.5 7.4375 8.46 7.37 8.91 7.355ZM9 2C4.86 2 1.5 5.36 1.5 9.5C1.5 13.64 4.86 17 9 17C13.14 17 16.5 13.64 16.5 9.5C16.5 5.36 13.14 2 9 2ZM9 15.5C5.6925 15.5 3 12.8075 3 9.5C3 6.1925 5.6925 3.5 9 3.5C12.3075 3.5 15 6.1925 15 9.5C15 12.8075 12.3075 15.5 9 15.5Z" fill="#F0F3F5"/>
</svg>
