<svg width="24" height="25" viewBox="0 0 24 25" fill="none" xmlns="http://www.w3.org/2000/svg">
<path d="M21 18.0556V6.94444C21 4.53556 16.8791 2.5 12 2.5C7.12088 2.5 3 4.53556 3 6.94444V18.0556C3 20.4644 7.12088 22.5 12 22.5C16.8791 22.5 21 20.4644 21 18.0556ZM12 4.72222C16.1524 4.72222 18.6724 6.39667 18.75 6.93778C18.6724 7.49222 16.1524 9.16667 12 9.16667C7.84762 9.16667 5.32763 7.49222 5.25 6.95111C5.32763 6.39667 7.84762 4.72222 12 4.72222ZM5.25 9.84111C6.91387 10.7822 9.34163 11.3889 12 11.3889C14.6584 11.3889 17.0861 10.7822 18.75 9.84111V12.4933C18.6724 13.0478 16.1524 14.7222 12 14.7222C7.84762 14.7222 5.32763 13.0478 5.25 12.5V9.84111ZM5.25 18.0556V15.3967C6.91387 16.3378 9.34163 16.9444 12 16.9444C14.6584 16.9444 17.0861 16.3378 18.75 15.3967V18.0489C18.6724 18.6033 16.1524 20.2778 12 20.2778C7.84762 20.2778 5.32763 18.6033 5.25 18.0556Z" fill="#2A2A2A"/>
</svg>
