<svg width="32" height="32" viewBox="0 0 32 32" fill="none" xmlns="http://www.w3.org/2000/svg">
<path d="M26.1029 10.9082H27.4545C28.1296 10.9082 28.7771 11.1764 29.2545 11.6537C29.7318 12.1311 30 12.7786 30 13.4537V18.5449C30 19.22 29.7318 19.8675 29.2545 20.3449C28.7771 20.8223 28.1296 21.0905 27.4545 21.0905H26.1029C25.7926 23.5512 24.5951 25.814 22.735 27.4544C20.8748 29.0948 18.48 30 16 30V27.4544C18.0253 27.4544 19.9676 26.6498 21.3997 25.2177C22.8318 23.7855 23.6364 21.8431 23.6364 19.8177V12.1809C23.6364 10.1556 22.8318 8.21312 21.3997 6.78096C19.9676 5.34879 18.0253 4.54421 16 4.54421C13.9747 4.54421 12.0324 5.34879 10.6003 6.78096C9.16818 8.21312 8.36364 10.1556 8.36364 12.1809V21.0905H4.54545C3.87036 21.0905 3.22291 20.8223 2.74555 20.3449C2.26818 19.8675 2 19.22 2 18.5449V13.4537C2 12.7786 2.26818 12.1311 2.74555 11.6537C3.22291 11.1764 3.87036 10.9082 4.54545 10.9082H5.89709C6.20768 8.44772 7.40537 6.18518 9.26546 4.54507C11.1255 2.90496 13.5202 2 16 2C18.4798 2 20.8745 2.90496 22.7345 4.54507C24.5946 6.18518 25.7923 8.44772 26.1029 10.9082ZM4.54545 13.4537V18.5449H5.81818V13.4537H4.54545ZM26.1818 13.4537V18.5449H27.4545V13.4537H26.1818ZM10.6036 20.8168L11.9527 18.6582C13.1657 19.4181 14.5686 19.82 16 19.8177C17.4314 19.82 18.8343 19.4181 20.0473 18.6582L21.3964 20.8168C19.7791 21.8301 17.9085 22.3662 16 22.3633C14.0915 22.3663 12.2209 21.8302 10.6036 20.8168Z" fill="url(#paint0_linear_66_94)"/>
<defs>
<linearGradient id="paint0_linear_66_94" x1="2.09929" y1="16" x2="30.0993" y2="16" gradientUnits="userSpaceOnUse">
<stop stop-color="#0273A8"/>
<stop offset="1" stop-color="#49BA56"/>
</linearGradient>
</defs>
</svg>
