<svg width="28" height="27" viewBox="0 0 28 27" fill="none" xmlns="http://www.w3.org/2000/svg">
<path d="M11.2674 6.8418H16.4923C18.4828 6.8418 20.1 8.45905 20.1 10.4495V15.6745C20.1 16.6313 19.7199 17.5489 19.0434 18.2255C18.3668 18.9021 17.4492 19.2822 16.4923 19.2822H11.2674C9.27692 19.2822 7.65967 17.6649 7.65967 15.6745V10.4495C7.65967 9.49268 8.03976 8.57505 8.71634 7.89847C9.39292 7.22189 10.3106 6.8418 11.2674 6.8418ZM11.143 8.08583C10.5491 8.08583 9.97952 8.32176 9.55957 8.7417C9.13963 9.16165 8.90371 9.73121 8.90371 10.3251V15.7989C8.90371 17.0367 9.90516 18.0381 11.143 18.0381H16.6167C17.2106 18.0381 17.7802 17.8022 18.2001 17.3823C18.6201 16.9623 18.856 16.3928 18.856 15.7989V10.3251C18.856 9.08728 17.8546 8.08583 16.6167 8.08583H11.143ZM17.1455 9.01886C17.3517 9.01886 17.5494 9.10078 17.6952 9.24659C17.8411 9.39241 17.923 9.59017 17.923 9.79639C17.923 10.0026 17.8411 10.2004 17.6952 10.3462C17.5494 10.492 17.3517 10.5739 17.1455 10.5739C16.9392 10.5739 16.7415 10.492 16.5957 10.3462C16.4498 10.2004 16.3679 10.0026 16.3679 9.79639C16.3679 9.59017 16.4498 9.39241 16.5957 9.24659C16.7415 9.10078 16.9392 9.01886 17.1455 9.01886ZM13.8799 9.95189C14.7047 9.95189 15.4958 10.2796 16.079 10.8628C16.6623 11.4461 16.99 12.2371 16.99 13.062C16.99 13.8868 16.6623 14.6779 16.079 15.2612C15.4958 15.8444 14.7047 16.1721 13.8799 16.1721C13.055 16.1721 12.2639 15.8444 11.6807 15.2612C11.0974 14.6779 10.7698 13.8868 10.7698 13.062C10.7698 12.2371 11.0974 11.4461 11.6807 10.8628C12.2639 10.2796 13.055 9.95189 13.8799 9.95189ZM13.8799 11.1959C13.3849 11.1959 12.9103 11.3925 12.5604 11.7425C12.2104 12.0924 12.0138 12.5671 12.0138 13.062C12.0138 13.5569 12.2104 14.0315 12.5604 14.3815C12.9103 14.7314 13.3849 14.928 13.8799 14.928C14.3748 14.928 14.8494 14.7314 15.1994 14.3815C15.5493 14.0315 15.7459 13.5569 15.7459 13.062C15.7459 12.5671 15.5493 12.0924 15.1994 11.7425C14.8494 11.3925 14.3748 11.1959 13.8799 11.1959Z" fill="#9CB0BD"/>
<rect x="1.2839" y="0.466514" width="25.6583" height="25.6583" rx="1.95088" stroke="#9CB0BD" stroke-width="0.933028"/>
</svg>
