<svg width="24" height="32" viewBox="0 0 24 32" fill="none" xmlns="http://www.w3.org/2000/svg">
<g clip-path="url(#clip0_71_12)">
<path d="M16.5248 30.0981L9.52178 31.9682C9.02285 32.1014 8.50534 31.8036 8.37163 31.3064C8.238 30.8092 8.53678 30.2933 9.03564 30.1601L16.0386 28.29C16.5375 28.1568 17.055 28.4545 17.1888 28.9518C17.3225 29.449 17.0236 29.9648 16.5248 30.0981ZM13.2823 8.64935C13.2196 9.50017 12.7367 9.97972 11.987 9.96757C11.2406 9.95557 10.6974 9.44572 10.7153 8.66935C10.7327 7.91395 11.2079 7.41773 12.0163 7.42654C12.8242 7.43521 13.2246 7.91098 13.2823 8.64935ZM22.2602 5.78195C19.4744 1.19618 13.9566 -1.03189 8.83043 0.46077C4.34435 1.76714 1.41935 4.71928 0.355783 9.2595C-0.696933 13.7533 0.613388 17.6185 3.92962 20.8554C4.70734 21.6146 5.42241 22.5342 5.86084 23.5154C6.30039 24.499 6.44131 24.8065 7.51193 24.5483C8.99885 24.1897 10.4658 23.7493 11.9525 23.3893C12.7146 23.2048 13.0041 22.7807 12.9991 22.015C12.9787 18.9247 12.9856 15.8341 12.9968 12.7436C12.9993 12.0441 12.7787 11.4681 12.0235 11.4506C11.259 11.4329 11.025 11.9896 11.0314 12.7028C11.0491 14.7065 11.0367 16.7102 11.0366 18.7139C11.0365 21.9373 11.0366 21.9373 7.8565 22.4004C6.64755 21.0198 5.54667 19.7787 4.46341 18.5225C0.575557 14.0139 1.28653 7.34906 6.13888 3.89714C9.62495 1.41707 13.3698 1.27907 17.1034 3.37306C20.5702 5.31751 22.4562 9.32343 21.9563 13.1986C21.6224 15.7873 20.3821 17.8538 18.5424 19.6302C17.4322 20.7022 16.4205 21.8565 16.0563 23.4066C15.8859 24.1316 15.4781 24.4913 14.7733 24.6644C14.905 24.5424 7.17733 26.7004 7.17733 26.7004C6.68843 26.8309 6.39567 27.3364 6.5267 27.8236L6.54684 27.8989C6.67788 28.3861 7.18498 28.6779 7.67388 28.5474C7.67388 28.5474 16.5407 26.1727 16.6569 26.1399C17.478 25.914 17.9249 25.3314 17.9437 24.4999C17.9716 23.2584 18.5128 22.2922 19.3936 21.4674C19.8651 21.0258 20.3345 20.5802 20.7782 20.1114C24.4406 16.2401 25.045 10.3662 22.2602 5.78195Z" fill="url(#paint0_linear_71_12)"/>
</g>
<defs>
<linearGradient id="paint0_linear_71_12" x1="0.0851065" y1="16" x2="24.0851" y2="16" gradientUnits="userSpaceOnUse">
<stop stop-color="#0273A8"/>
<stop offset="1" stop-color="#49BA56"/>
</linearGradient>
<clipPath id="clip0_71_12">
<rect width="24" height="32" fill="white"/>
</clipPath>
</defs>
</svg>
