<svg width="27" height="27" viewBox="0 0 27 27" fill="none" xmlns="http://www.w3.org/2000/svg">
<g clip-path="url(#clip0_102_34)">
<path d="M7.69019 8.33263C7.69019 7.85277 8.08894 7.46387 8.58094 7.46387H18.9288C19.4208 7.46387 19.8196 7.85277 19.8196 8.33263V18.7245C19.8196 19.2043 19.4208 19.5932 18.9288 19.5932H8.58094C8.08894 19.5932 7.69019 19.2043 7.69019 18.7245V8.33263ZM11.4374 17.6177V12.1405H9.61724V17.6177H11.4374ZM10.5277 11.3923C11.1622 11.3923 11.5572 10.9723 11.5572 10.4462C11.5458 9.90869 11.163 9.50008 10.5398 9.50008C9.91668 9.50008 9.50959 9.90945 9.50959 10.4462C9.50959 10.9723 9.90455 11.3923 10.5156 11.3923H10.5277ZM14.2484 17.6177V14.5588C14.2484 14.395 14.2605 14.2313 14.309 14.1146C14.4402 13.7878 14.7396 13.449 15.243 13.449C15.9018 13.449 16.1648 13.9508 16.1648 14.6877V17.6177H17.985V14.4762C17.985 12.7932 17.0874 12.0109 15.8896 12.0109C14.9238 12.0109 14.491 12.5415 14.2484 12.9153V12.9342H14.2363C14.2403 12.9279 14.2443 12.9216 14.2484 12.9153V12.1405H12.429C12.4517 12.6545 12.429 17.6177 12.429 17.6177H14.2484Z" fill="#9CB0BD"/>
</g>
<rect x="0.692588" y="0.466514" width="25.6583" height="25.6583" rx="1.95088" stroke="#9CB0BD" stroke-width="0.933028"/>
<defs>
<clipPath id="clip0_102_34">
<rect width="12.1294" height="12.1294" fill="white" transform="translate(7.69019 7.46387)"/>
</clipPath>
</defs>
</svg>
