<svg width="24" height="24" viewBox="0 0 24 24" fill="none" xmlns="http://www.w3.org/2000/svg">
<path d="M19.4851 20.154L13.2231 13.892C12.7231 14.318 12.1481 14.6477 11.4981 14.881C10.8481 15.1143 10.1948 15.231 9.53811 15.231C7.93677 15.231 6.58144 14.6767 5.47211 13.568C4.36277 12.4587 3.80811 11.1037 3.80811 9.503C3.80811 7.90233 4.36211 6.54666 5.47011 5.436C6.57877 4.32466 7.93344 3.769 9.53411 3.769C11.1354 3.769 12.4914 4.32366 13.6021 5.433C14.7128 6.54233 15.2681 7.898 15.2681 9.5C15.2681 10.1947 15.1451 10.867 14.8991 11.517C14.6524 12.167 14.3291 12.723 13.9291 13.185L20.1911 19.446L19.4841 20.154H19.4851ZM9.53811 14.23C10.8648 14.23 11.9851 13.7733 12.8991 12.86C13.8124 11.9467 14.2691 10.8263 14.2691 9.499C14.2691 8.17233 13.8124 7.05233 12.8991 6.139C11.9858 5.22566 10.8658 4.769 9.5391 4.769C8.21244 4.769 7.09211 5.22566 6.17811 6.139C5.26477 7.05233 4.80811 8.17233 4.80811 9.499C4.80811 10.8257 5.26477 11.9457 6.17811 12.859C7.09144 13.7723 8.21144 14.23 9.53811 14.23Z" fill="#F0F3F5"/>
</svg>
