<svg width="32" height="32" viewBox="0 0 32 32" fill="none" xmlns="http://www.w3.org/2000/svg">
<g clip-path="url(#clip0_66_23)">
<path d="M20.4445 23.1112C20.4445 23.3469 20.3508 23.573 20.1842 23.7397C20.0175 23.9064 19.7914 24.0001 19.5556 24.0001H7.11117C6.91561 24.0001 6.72894 24.1778 6.56894 24.2934L3.55561 26.6667V12.4445C3.55561 12.2088 3.64926 11.9827 3.81596 11.816C3.98266 11.6493 4.20875 11.5556 4.4445 11.5556H7.87561V9.77783H4.4445C3.73725 9.77783 3.05898 10.0588 2.55888 10.5589C2.05878 11.059 1.77783 11.7373 1.77783 12.4445V28.4445C1.77915 28.6096 1.82642 28.771 1.91434 28.9108C2.00226 29.0505 2.12736 29.163 2.27561 29.2356C2.41844 29.3006 2.57591 29.3266 2.73203 29.3109C2.88815 29.2953 3.03736 29.2387 3.1645 29.1467L7.74228 25.7778H19.6889C20.0258 25.7878 20.3612 25.7285 20.6742 25.6036C20.9873 25.4787 21.2713 25.2908 21.5088 25.0516C21.7463 24.8125 21.9322 24.5271 22.0549 24.2132C22.1776 23.8993 22.2346 23.5635 22.2223 23.2267V22.2223H20.4445V23.1112Z" fill="url(#paint0_linear_66_23)"/>
<path d="M28.4445 11.7512V20.3912L25.3334 17.9646C25.1782 17.8441 24.9876 17.7785 24.7912 17.7779H12.4445C12.2088 17.7779 11.9827 17.6842 11.816 17.5175C11.6493 17.3508 11.5556 17.1247 11.5556 16.889V6.22233C11.5556 5.98658 11.6493 5.76049 11.816 5.59379C11.9827 5.42709 12.2088 5.33344 12.4445 5.33344H20.0001C20.0024 4.73233 20.0861 4.1343 20.2489 3.55566H12.4445C11.7373 3.55566 11.059 3.83662 10.5589 4.33671C10.0588 4.83681 9.77783 5.51509 9.77783 6.22233V16.889C9.77783 17.5962 10.0588 18.2745 10.5589 18.7746C11.059 19.2747 11.7373 19.5557 12.4445 19.5557H24.4889L28.7378 22.8534C28.8641 22.9468 29.0129 23.0051 29.1691 23.0222C29.3252 23.0394 29.4831 23.0149 29.6267 22.9512C29.778 22.8792 29.9058 22.7658 29.9955 22.6243C30.0851 22.4828 30.1329 22.3188 30.1334 22.1512V10.9957C29.6086 11.3253 29.04 11.5796 28.4445 11.7512Z" fill="url(#paint1_linear_66_23)"/>
<path d="M26.6666 9.77781C29.1212 9.77781 31.1111 7.78796 31.1111 5.33336C31.1111 2.87876 29.1212 0.888916 26.6666 0.888916C24.212 0.888916 22.2222 2.87876 22.2222 5.33336C22.2222 7.78796 24.212 9.77781 26.6666 9.77781Z" fill="url(#paint2_linear_66_23)"/>
</g>
<defs>
<linearGradient id="paint0_linear_66_23" x1="1.85034" y1="19.5466" x2="22.2964" y2="19.5466" gradientUnits="userSpaceOnUse">
<stop stop-color="#0273A8"/>
<stop offset="1" stop-color="#49BA56"/>
</linearGradient>
<linearGradient id="paint1_linear_66_23" x1="9.85001" y1="13.2916" x2="30.2056" y2="13.2916" gradientUnits="userSpaceOnUse">
<stop stop-color="#0273A8"/>
<stop offset="1" stop-color="#49BA56"/>
</linearGradient>
<linearGradient id="paint2_linear_66_23" x1="22.2537" y1="5.33336" x2="31.1426" y2="5.33336" gradientUnits="userSpaceOnUse">
<stop stop-color="#0273A8"/>
<stop offset="1" stop-color="#49BA56"/>
</linearGradient>
<clipPath id="clip0_66_23">
<rect width="32" height="32" fill="white"/>
</clipPath>
</defs>
</svg>
