<svg width="32" height="32" viewBox="0 0 32 32" fill="none" xmlns="http://www.w3.org/2000/svg">
<path d="M30.6667 5.46675V3.06675L28.2667 2.80008C28.1333 2.80008 27.3333 2.66675 26 2.66675C20.5333 2.66675 16.5333 4.26675 14.2667 7.06675C12.5333 6.00008 10.1333 5.33341 7.33334 5.33341C6.00001 5.33341 5.06667 5.46675 5.06667 5.46675L2.53334 5.86675L2.66667 8.13341C2.80001 12.1334 4.80001 19.7334 11.7333 19.7334H12V24.2667C6.93334 24.9334 2.66667 26.6667 2.66667 26.6667V29.3334H29.3333V26.6667C29.3333 26.6667 25.0667 24.9334 20 24.2667V20.0001C28.4 19.8667 30.6667 10.4001 30.6667 5.46675ZM16 24.0001H14.6667V16.5334C14.6667 16.5334 14.4 12.0001 10.6667 12.0001C10.6667 12.0001 12.6667 13.0667 13.2 16.9334C12.6667 17.0667 12.1333 17.0667 11.7333 17.0667C5.60001 17.0667 5.33334 8.13341 5.33334 8.13341C5.33334 8.13341 6.13334 8.00008 7.33334 8.00008C9.86667 8.00008 14 8.53341 15.2 12.1334C15.8667 6.13341 22.6667 5.33341 26 5.33341C27.2 5.33341 28 5.46675 28 5.46675C28 5.46675 28 17.4667 19.6 17.4667H18.6667C18.6667 14.8001 21.3333 10.8001 21.3333 10.8001C17.3333 12.1334 17.3333 17.3334 17.3333 17.3334V24.0001H16Z" fill="url(#paint0_linear_71_10)"/>
<defs>
<linearGradient id="paint0_linear_71_10" x1="2.6331" y1="16.0001" x2="30.7664" y2="16.0001" gradientUnits="userSpaceOnUse">
<stop stop-color="#0273A8"/>
<stop offset="1" stop-color="#49BA56"/>
</linearGradient>
</defs>
</svg>
