<svg width="29" height="30" viewBox="0 0 29 30" fill="none" xmlns="http://www.w3.org/2000/svg">
<path d="M15.7083 2.95294V2.97711V5.39378C21.0129 6.04628 24.7708 10.8675 24.1183 16.1721C23.5625 20.5704 20.1066 24.0625 15.7083 24.5821V26.9988C22.3541 26.3342 27.1875 20.4375 26.5229 13.7917C25.9791 8.05211 21.4237 3.52086 15.7083 2.95294ZM13.2916 2.98919C10.9354 3.21878 8.68788 4.12503 6.85122 5.64753L8.57913 7.43586C9.93247 6.34836 11.5637 5.64753 13.2916 5.40586V2.98919ZM5.14747 7.35127C3.62497 9.18794 2.71872 11.4234 2.47705 13.7917H4.89372C5.1233 12.0759 5.79997 10.4446 6.87538 9.07919L5.14747 7.35127ZM2.48913 16.2084C2.7308 18.5767 3.66122 20.8121 5.15955 22.6488L6.87538 20.9209C5.81205 19.5554 5.1233 17.9242 4.9058 16.2084H2.48913ZM8.57913 22.6971L6.85122 24.3525C8.6758 25.875 10.9233 26.8296 13.2916 27.0834V24.6667C11.5758 24.4492 9.94455 23.7604 8.57913 22.6971ZM15.1041 8.95836V15.3021L20.5416 18.5284L19.6354 20.0146L13.2916 16.2084V8.95836H15.1041Z" fill="#D06709"/>
</svg>
