<svg width="27" height="27" viewBox="0 0 27 27" fill="none" xmlns="http://www.w3.org/2000/svg">
<mask id="mask0_270_260" style="mask-type:luminance" maskUnits="userSpaceOnUse" x="0" y="0" width="27" height="27">
<path d="M13.5001 25.5833C15.0872 25.5854 16.6591 25.2738 18.1254 24.6664C19.5916 24.059 20.9234 23.1679 22.0442 22.0441C23.1679 20.9233 24.0591 19.5916 24.6665 18.1253C25.2739 16.659 25.5855 15.0871 25.5834 13.5C25.5854 11.9129 25.2738 10.341 24.6664 8.87476C24.0591 7.40847 23.1679 6.07667 22.0442 4.95587C20.9234 3.83214 19.5916 2.94098 18.1254 2.3336C16.6591 1.72622 15.0872 1.41461 13.5001 1.41667C11.913 1.41464 10.3411 1.72627 8.87485 2.33365C7.40857 2.94102 6.07676 3.83217 4.95597 4.95587C3.83226 6.07667 2.94111 7.40847 2.33374 8.87476C1.72636 10.341 1.41473 11.9129 1.41676 13.5C1.4147 15.0871 1.72632 16.659 2.33369 18.1253C2.94107 19.5916 3.83223 20.9233 4.95597 22.0441C6.07676 23.1678 7.40857 24.059 8.87485 24.6664C10.3411 25.2737 11.913 25.5854 13.5001 25.5833Z" fill="white" stroke="white" stroke-width="2.41667" stroke-linejoin="round"/>
<path d="M8.66675 13.4999L12.2917 17.1249L19.5417 9.87491" stroke="black" stroke-width="2.41667" stroke-linecap="round" stroke-linejoin="round"/>
</mask>
<g mask="url(#mask0_270_260)">
<path d="M-1 -1.00009H28V27.9999H-1V-1.00009Z" fill="#318337"/>
</g>
</svg>
