<svg width="32" height="32" viewBox="0 0 32 32" fill="none" xmlns="http://www.w3.org/2000/svg">
<path d="M21.1974 26.9907C19.5736 27.7573 17.7973 28.1528 15.9991 28.1481C9.3094 28.1481 3.86657 22.7481 3.86657 16.1111C3.86657 13.2639 4.85303 10.575 6.66638 8.41851V10.5555H8.53291V5H2.9333V6.85185H5.58565C3.27176 9.38867 1.99342 12.6897 2.00003 16.1111C2.00003 23.7694 8.28 30 15.9991 30C18.075 30.0052 20.1257 29.5483 22 28.6629L21.1974 26.9907Z" fill="url(#paint0_linear_71_6)"/>
<path d="M21 10C17.84 10 15.248 12.3205 15.022 15.2511C13.9226 14.3038 12.4882 13.7783 11 13.7778H7V17.5556C7 20.6807 9.692 23.2222 13 23.2222H15V27H17V19.4444H19C22.308 19.4444 25 16.9029 25 13.7778V10H21ZM13 21.3333C10.794 21.3333 9 19.639 9 17.5556V15.6667H11C13.206 15.6667 15 17.361 15 19.4444V19.9979L12.707 17.8323L11.293 19.1677L13.586 21.3333H13ZM23 13.7778C23 15.8612 21.206 17.5556 19 17.5556H18.414L20.707 15.3899L19.293 14.0545L17 16.2201V15.6667C17 13.5832 18.794 11.8889 21 11.8889H23V13.7778Z" fill="url(#paint1_linear_71_6)"/>
<path d="M30 15.8889C30 8.23059 23.72 2.00004 16.0009 2.00004C13.925 1.99481 11.8743 2.45171 10 3.33708L10.8026 5.0093C12.4264 4.24274 14.2027 3.84723 16.0009 3.85189C22.6906 3.85189 28.1334 9.25188 28.1334 15.8889C28.1334 18.7361 27.147 21.425 25.3336 23.5815V21.4445H23.4671V27H29.0667V25.1482H26.4144C28.7282 22.6113 30.0066 19.3103 30 15.8889Z" fill="url(#paint2_linear_71_6)"/>
<defs>
<linearGradient id="paint0_linear_71_6" x1="2.07092" y1="17.5" x2="22.0709" y2="17.5" gradientUnits="userSpaceOnUse">
<stop stop-color="#0273A8"/>
<stop offset="1" stop-color="#49BA56"/>
</linearGradient>
<linearGradient id="paint1_linear_71_6" x1="7.06383" y1="18.5" x2="25.0638" y2="18.5" gradientUnits="userSpaceOnUse">
<stop stop-color="#0273A8"/>
<stop offset="1" stop-color="#49BA56"/>
</linearGradient>
<linearGradient id="paint2_linear_71_6" x1="10.0709" y1="14.5" x2="30.0709" y2="14.5" gradientUnits="userSpaceOnUse">
<stop stop-color="#0273A8"/>
<stop offset="1" stop-color="#49BA56"/>
</linearGradient>
</defs>
</svg>
