<svg width="27" height="27" viewBox="0 0 27 27" fill="none" xmlns="http://www.w3.org/2000/svg">
<path fill-rule="evenodd" clip-rule="evenodd" d="M12.655 9.96413C12.5602 9.9072 12.452 9.87646 12.3414 9.87505C12.2308 9.87364 12.1218 9.9016 12.0255 9.95609C11.9292 10.0106 11.8492 10.0896 11.7935 10.1852C11.7377 10.2807 11.7084 10.3894 11.7084 10.5V15.5C11.7084 15.6106 11.7377 15.7192 11.7935 15.8148C11.8492 15.9103 11.9292 15.9894 12.0255 16.0438C12.1218 16.0983 12.2308 16.1263 12.3414 16.1249C12.452 16.1235 12.5602 16.0927 12.655 16.0358L16.8217 13.5358C16.9142 13.4803 16.9908 13.4017 17.0439 13.3078C17.097 13.2139 17.125 13.1079 17.125 13C17.125 12.8921 17.097 12.786 17.0439 12.6921C16.9908 12.5982 16.9142 12.5197 16.8217 12.4641L12.655 9.96413ZM15.285 13L12.9584 14.3958V11.6041L15.285 13Z" fill="#9CB0BD"/>
<path fill-rule="evenodd" clip-rule="evenodd" d="M18.1917 6.86731C15.4015 6.64905 12.5985 6.64905 9.80832 6.86731L7.94082 7.01397C7.38902 7.05699 6.86748 7.28341 6.45927 7.65719C6.05106 8.03096 5.77967 8.53058 5.68832 9.07647C5.25428 11.674 5.25428 14.3256 5.68832 16.9231C5.77967 17.469 6.05106 17.9687 6.45927 18.3424C6.86748 18.7162 7.38902 18.9426 7.94082 18.9856L9.80749 19.1323C12.5983 19.3506 15.4017 19.3506 18.1925 19.1323L20.0592 18.9856C20.611 18.9426 21.1325 18.7162 21.5407 18.3424C21.9489 17.9687 22.2203 17.469 22.3117 16.9231C22.745 14.3256 22.745 11.674 22.3117 9.07647C22.2203 8.53058 21.9489 8.03096 21.5407 7.65719C21.1325 7.28341 20.611 7.05699 20.0592 7.01397L18.1917 6.86731ZM9.90582 8.11397C12.6317 7.9007 15.37 7.9007 18.0958 8.11397L19.9625 8.25981C20.5258 8.30397 20.9867 8.72647 21.0792 9.28314C21.4903 11.7439 21.4903 14.2557 21.0792 16.7165C21.034 16.9872 20.8996 17.2351 20.6972 17.4206C20.4948 17.606 20.2362 17.7184 19.9625 17.7398L18.0958 17.8856C15.37 18.099 12.6317 18.099 9.90582 17.8856L8.03916 17.7398C7.76549 17.7184 7.50685 17.606 7.30447 17.4206C7.1021 17.2351 6.96762 16.9872 6.92249 16.7165C6.51139 14.2557 6.51139 11.7439 6.92249 9.28314C6.96762 9.01237 7.1021 8.7645 7.30447 8.57904C7.50685 8.39358 7.76549 8.2812 8.03916 8.25981L9.90582 8.11397Z" fill="#9CB0BD"/>
<rect x="0.875206" y="0.466514" width="25.6583" height="25.6583" rx="1.95088" stroke="#9CB0BD" stroke-width="0.933028"/>
</svg>
